<svg xmlns="http://www.w3.org/2000/svg" width="23" height="23" viewBox="0 0 23 23">
    <path data-name="Rectangle 6633" style="fill:none" d="M0 0h23v23H0z"/>
    <path data-name="Path 91702" d="M48 139.588v6.146a.719.719 0 0 0 .719.719h12.937a.719.719 0 0 0 .719-.719v-6.146" transform="translate(-43.687 -127.047)" style="stroke:#000;stroke-linecap:round;stroke-linejoin:round;fill:none"/>
    <path data-name="Path 91703" d="M33.98 40h13.29a.719.719 0 0 1 .691.521l1.289 4.51H32l1.289-4.51A.719.719 0 0 1 33.98 40z" transform="translate(-29.125 -36.406)" style="stroke:#000;stroke-linecap:round;stroke-linejoin:round;fill:none"/>
    <path data-name="Path 91704" d="M37.75 96v1.438a2.875 2.875 0 0 1-5.75 0V96" transform="translate(-29.125 -87.375)" style="stroke:#000;stroke-linecap:round;stroke-linejoin:round;fill:none"/>
    <path data-name="Path 91705" d="M101.75 96v1.438a2.875 2.875 0 0 1-5.75 0V96" transform="translate(-87.375 -87.375)" style="stroke:#000;stroke-linecap:round;stroke-linejoin:round;fill:none"/>
    <path data-name="Path 91706" d="M165.75 96v1.438a2.875 2.875 0 1 1-5.75 0V96" transform="translate(-145.625 -87.375)" style="stroke:#000;stroke-linecap:round;stroke-linejoin:round;fill:none"/>
</svg>
