<svg width="24" height="19" viewBox="0 0 24 19" fill="none" xmlns="http://www.w3.org/2000/svg">
<path fill-rule="evenodd" clip-rule="evenodd" d="M15.0089 9.08398L14.5086 8.69803L13.0435 7.66885V7.59738L13.0649 7.5402V7.50447V7.31864V7.10423L13.0435 6.49672L12.9506 5.3246L12.8576 4.75283L12.8219 4.65992L12.7862 4.53127V4.42406L12.7719 4.29541L12.9148 4.18106L13.0649 4.07385L13.7939 3.52353L15.2805 2.53008L16.8815 1.67242L18.511 0.900536L19.3544 0.571769L19.483 0.536033L19.5759 0.493151L19.6474 0.478856L19.6831 0.457415L20.2335 0.257296L21.3913 0.0357356L21.9774 0H21.9988H22.0345H22.0703L22.399 0.0214413L23.0065 0.257296L23.464 0.64324L23.757 1.19357L23.8499 1.52233V1.57951V1.65098L23.9786 2.62299L24 3.63073L23.9786 4.58845L23.757 6.46099L23.5569 7.37582H23.5354V7.41155V7.44729L23.3925 7.92615L23.0065 8.84812L22.4562 9.6486L21.7558 10.349L21.3913 10.642L21.084 10.8636L20.4407 11.2281L19.7403 11.464L19.0256 11.6355L18.6182 11.6712L15.0089 9.08398Z" fill="#751C47"/>
<path fill-rule="evenodd" clip-rule="evenodd" d="M13.6295 14.4227L12.3859 13.6151L12.3288 13.5579L12.3645 13.3221L12.5503 11.9284L12.5861 11.7997L12.8577 9.90576L13.5009 10.1845L14.8946 10.7348L15.4806 10.9707L18.4038 12.1642L18.7683 12.5145L19.3544 13.3364L19.5545 13.8152L19.5974 13.851V13.8867V13.9081L19.6117 13.9439L19.6474 14.0368L19.6831 14.1083L19.726 14.2369L19.7403 14.3656L19.7975 14.6229L19.8118 15.1589L19.7761 15.409L19.7046 15.8522L19.5045 16.3096L19.3758 16.5669L19.0256 17.0243L18.6039 17.4102L18.1251 17.7033L17.6105 17.9248L17.0816 18.0392L16.5313 18.0535L15.9595 17.9606L15.6665 17.8891L15.6522 17.8676H15.6093L15.5736 17.8534L15.5235 17.8319H15.5021L15.4806 17.8176L15.2662 17.7247L15.0447 17.6318L14.623 17.3745L13.8868 16.8099L13.265 16.1095L12.8076 15.3018L12.6432 14.8802L13.5795 15.0088L13.9083 15.0803V14.6229L13.6295 14.4227Z" fill="#751C47"/>
<path fill-rule="evenodd" clip-rule="evenodd" d="M9.13401 9.08398L9.67004 8.69803L11.1566 7.66885V7.59738V7.5402V7.50447V7.31864L11.1352 7.10423L11.1566 6.49672L11.2638 5.3246L11.3568 4.75283L11.3711 4.65992L11.3925 4.53127L11.4139 4.42406L11.4497 4.29541L11.2996 4.18106L11.1352 4.07385L10.399 3.52353L8.84098 2.53008L7.24717 1.67242L5.56045 0.900536L4.69565 0.571769L4.58845 0.536033L4.49553 0.493151L4.43836 0.478856L4.38118 0.457415L3.81656 0.257296L2.64443 0.0357356L2.03693 0H2.01549H1.95831H1.94401L1.61525 0.0214413L1.00774 0.257296L0.528886 0.64324L0.200119 1.19357L0.128648 1.52233V1.57951V1.65098L0.0214413 2.62299L0 3.63073L0.0214413 4.58845L0.257296 6.46099L0.457415 7.37582V7.41155L0.478857 7.44729L0.600357 7.92615L1.00774 8.84812L1.55807 9.6486L2.25849 10.349L2.64443 10.642L2.95176 10.8636L3.61644 11.2281L4.33115 11.464L5.06016 11.6355L5.4461 11.6712L9.13401 9.08398Z" fill="#1FA1DB"/>
<path fill-rule="evenodd" clip-rule="evenodd" d="M10.4419 14.4227L11.6284 13.6151L11.6641 13.5579L11.6284 13.3221L11.4497 11.9284L11.4282 11.7997L11.1709 9.90576L10.5277 10.1845L9.1769 10.7348L8.61942 10.9707L5.79631 12.1642L5.43181 12.5145L4.84575 13.3364L4.63848 13.8152V13.851V13.8867L4.60275 13.9081V13.9439L4.56701 14.0368L4.54557 14.1083L4.50983 14.2369L4.4741 14.3656L4.41692 14.6229L4.40263 15.1589L4.43836 15.409L4.50983 15.8522L4.69566 16.3096L4.84575 16.5669L5.15307 17.0243L5.57475 17.4102L6.03217 17.7033L6.53247 17.9248L7.08279 18.0392L7.63312 18.0535L8.18345 17.9606L8.44075 17.8891L8.47648 17.8676L8.52651 17.8534L8.56939 17.8319H8.58369L8.60513 17.8176L8.82669 17.7247L9.0411 17.6318L9.46278 17.3745L10.1846 16.8099L10.7707 16.1095L11.2067 15.3018L11.3711 14.8802L10.492 15.0088L10.1418 15.0803V14.6229L10.4419 14.4227Z" fill="#1FA1DB"/>
</svg>
