<svg xmlns="http://www.w3.org/2000/svg" width="140" height="62.511" viewBox="0 0 140 62.511">
    <defs>
        <clipPath id="vk1eyw8x0a">
            <path data-name="Rectangle 1448" d="M0 0h140v62.511H0z"/>
        </clipPath>
    </defs>
    <g data-name="Group 9063" style="clip-path:url(#vk1eyw8x0a)">
        <g data-name="Group 9068" style="clip-path:url(#vk1eyw8x0a)">
            <path data-name="Path 2404" d="M91.438 12.022s-.024-.173-.542-.222c0 0-1.158.271-1.181-1.378s-.1-3.989 0-6.376a2.117 2.117 0 0 1 1.4-1.9s.493-.05.27-.641l-.147-.3s0-.247-.345-.2a23.424 23.424 0 0 1-4.309.049.507.507 0 0 0-.492.492s-.123.444.221.593a2.483 2.483 0 0 1 1.625 2.486c.073 1.9.1 4.529.1 4.529s-2.807-4.135-4.6-7.312a1.284 1.284 0 0 0-1.354-.788 39.131 39.131 0 0 1-5.439.026.526.526 0 0 0-.592.516.639.639 0 0 0 .3.738s1.476.936 1.476 1.256-.024 6.869-.024 6.869.124 2.683-.592 2.339c0 0-.419.27-1.427-1.576a95.741 95.741 0 0 1-4.438-9.592S70.907.205 69.997.205a2.784 2.784 0 0 0-1.109.344 20.994 20.994 0 0 1-4.234 1.871.5.5 0 0 0-.346.641s-.073.37.468.567a2.272 2.272 0 0 1 1.157.688 22.27 22.27 0 0 1-1.6 3.694c-1.034 1.87-2.362 4.973-6.179 4.973h-1.5s-.393.048-.393-.493V8.53h.985s1.6-.344 2.362 1.724c0 0 .148.64.69.395a.636.636 0 0 0 .566-.69 27.356 27.356 0 0 1 .025-3.767.505.505 0 0 0-.441-.546.6.6 0 0 0-.69.123 2.84 2.84 0 0 1-2.313 1.082h-1.158V3.159s-.024-.244.149-.27 2.314-.542 3.568.468a5.536 5.536 0 0 1 1.6 1.8s.245.616.885.2c0 0 .494-.073.247-.838a24.561 24.561 0 0 1-.738-2.955.811.811 0 0 0-.912-.738 64.6 64.6 0 0 1-11 .3.494.494 0 0 0-.616.419.553.553 0 0 0 .2.715s1.452.665 1.452 3.224v4.283s.247 3.4-.96 3.4c0 0-.518.221-1.4-1.526s-.935-1.8-.935-1.8a3.874 3.874 0 0 0-3.793-2.387s4.248-.724 3.855-3.924c0 0-.073-2.436-3.274-2.536h-.346a87.474 87.474 0 0 1-10.685.173.456.456 0 0 0-.566.393.485.485 0 0 0 .148.666c.394.27 1.526.934 1.526 3.4v4.751s.222 2.611-1.575 3.595c0 0-.37.123-.173.641a.431.431 0 0 0 .542.394 45.206 45.206 0 0 1 7.411-.026s.345.026.442-.2a1.279 1.279 0 0 1 .123-.246s.345-.345-.172-.689-1.379-.862-1.452-3.054a10.34 10.34 0 0 1 0-2.239h.32s1.107-.1 1.845 1.575c0 0 1.429 3.445 1.65 3.865a1.927 1.927 0 0 0 2.191 1.157 100.9 100.9 0 0 1 16.47.025 1.1 1.1 0 0 0 1.157-.689s1.33-3.572 1.65-4.138c0 0 2.806-.073 4.333-.048a4.637 4.637 0 0 1 .566 2.116 1.448 1.448 0 0 1-1.009 1.429.5.5 0 0 0-.222.689.515.515 0 0 0 .566.442 76.043 76.043 0 0 1 11.547-.048s.443.173.59-.419a.475.475 0 0 0-.2-.69s-1.744-.389-1.744-3.174.025-4.751.025-4.751 1.33 1.895 2.9 4.725 2.413 4.039 2.413 4.039a1.681 1.681 0 0 0 2.338.713 46 46 0 0 0 4.186-2.413.456.456 0 0 0 .171-.64zM42.525 4.785c.013.222-.076 2.239-2.711 2.239V4.612s.025-1.8 1.452-1.8 1.247 1.747 1.259 1.97M65.86 8.645s.91-2.14 1.3-2.755a12.112 12.112 0 0 1 1.5 2.781 10.477 10.477 0 0 1-2.808-.026"/>
            <path data-name="Path 2405" d="M120.218 13.857a2.948 2.948 0 0 1-1.4-2.683c-.1-2.092-.073-6.058-.073-6.058s-.1-2.214 1.3-2.9c0 0 .37-.172.173-.665a.514.514 0 0 0-.542-.418 52.685 52.685 0 0 1-7.287.023s-.493-.023-.59.395a.531.531 0 0 0 .172.714 3.636 3.636 0 0 1 1.5 3.348v4.259s.1 3.225-1.106 3c0 0-.419.271-1.429-1.576a95.942 95.942 0 0 1-4.431-9.6s-.443-1.429-1.354-1.429a2.763 2.763 0 0 0-1.108.345 21.089 21.089 0 0 1-4.235 1.876.5.5 0 0 0-.345.641s-.074.369.467.566a2.258 2.258 0 0 1 1.157.69 22.288 22.288 0 0 1-1.6 3.692c-1.034 1.871-1.945 4.6-4.382 5.836 0 0-.472.1-.32.664.172.64.492.468.492.468a15.624 15.624 0 0 1 4.333 0c.641.049.541-.468.541-.468a.412.412 0 0 0-.049-.516l-.271-.345s-1.06-.271.442-3.3c0 0 2.807-.075 4.333-.051a4.649 4.649 0 0 1 .567 2.119 1.446 1.446 0 0 1-1.01 1.428.5.5 0 0 0-.222.688.517.517 0 0 0 .567.444c.492-.049 8.666-.394 15.313.025a.592.592 0 0 0 .591-.394.621.621 0 0 0-.2-.813m-19.2-5.218a21.985 21.985 0 0 1 1.305-2.757 8.783 8.783 0 0 1 1.5 2.781 13.317 13.317 0 0 1-2.806-.024"/>
            <path data-name="Path 2406" d="M139.419 13.241c-.589-.122-1.034-.689-1.451-1.526s-1.059-2.067-1.059-2.067a3.889 3.889 0 0 0-3.669-2.166s3.866-.665 3.866-3.57-3.448-2.954-3.448-2.954h-.59a56.321 56.321 0 0 1-10.44.143.546.546 0 0 0-.715.492s-.049.444.222.616 1.379.837 1.452 3.151.124 1.649.075 4.8c0 0 .2 3.028-1.527 3.768 0 0-.443.1-.2.738 0 0 .148.493.567.32a58.763 58.763 0 0 1 7.533.024s.394.148.516-.369c0 0 .321-.345-.173-.714a3.183 3.183 0 0 1-1.477-2.561c-.1-1.552-.073-2.782-.073-2.782h.344s1.158-.149 1.945 1.673 1.329 3.151 1.329 3.151a4.2 4.2 0 0 0 1.354 1.92s.345.319 1.625.173a12.9 12.9 0 0 0 4.161-1.084.465.465 0 0 0 .32-.64s.1-.419-.493-.543m-7.875-8.345c-.07.5-.2 2.191-2.71 2.191V4.674s.049-1.8 1.4-1.8 1.378 1.523 1.307 2.018"/>
            <path data-name="Path 2407" d="M31.559 8.147a3.6 3.6 0 0 0-6.879 1.491l.009 1.552a1.877 1.877 0 0 1-.982 1.649H23.7a3.2 3.2 0 0 1-2.514.245 5.831 5.831 0 0 1-.773-.3 7.189 7.189 0 0 1-.328-.166l-.19-.1a5.564 5.564 0 0 1-.848-.608 5.232 5.232 0 0 1-.248-.222l-.135-.133a6.06 6.06 0 0 1-1.77-4.286 6.169 6.169 0 0 1 .111-1.166l.01-.054a6.941 6.941 0 0 1 1.23-2.882 8.136 8.136 0 0 0-.856 8.636h-.014c0 .006 0 .013.007.018l-.066.05s-.319.246-.961-.492-4.406-5.294-4.406-5.294a18.007 18.007 0 0 1 4.728-3.595s.615-.2.467-.738l-.1-.32s-.025-.344-.566-.271a30.259 30.259 0 0 1-5.662.025.628.628 0 0 0-.542.32s-.246.418 0 .664 1.133.863 1.133 1.7c0 0 .2.615-1.158 1.6a30.669 30.669 0 0 1-2.756 1.921l.024-2.315a3.506 3.506 0 0 1 1.33-2.855.375.375 0 0 0 .22-.468l-.1-.246a.434.434 0 0 0-.493-.345 52.388 52.388 0 0 1-7.286.05.478.478 0 0 0-.443.221l-.1.2s-.172.443.1.64a3.242 3.242 0 0 1 1.45 2.904s.123 3.87-.049 5.37-.3 2.364-1.5 3.422a.544.544 0 0 0-.172.616l.172.32s.123.246.542.2a42.173 42.173 0 0 1 7.286-.05.312.312 0 0 0 .394-.172l.173-.345a.47.47 0 0 0-.173-.616 3.193 3.193 0 0 1-1.378-2.584c-.025-1.527-.025-2.488-.025-2.488s.665.272 4.21 5.515a2.752 2.752 0 0 0 3.915.863 22.716 22.716 0 0 0 2.757-1.749l.084-.051a.043.043 0 0 1 .007.008.056.056 0 0 1 .01-.007 8.155 8.155 0 0 0 11.611.9l.019-.013a5.685 5.685 0 0 0 1.5-6.137z"/>
            <path data-name="Path 2408" d="m18.26 3.144-.016.024.026-.035z"/>
            <path data-name="Path 2409" d="M24.688 0a8.133 8.133 0 0 0-3.832.955h7.662A8.13 8.13 0 0 0 24.688 0"/>
            <path data-name="Path 2410" d="M17.526 5.379a5.772 5.772 0 0 0-.062.831v.11h7.23l-.006-.941z"/>
            <path data-name="Path 2411" d="M24.699 6.721h-7.212a5.646 5.646 0 0 0 .165.94h6.915a3.546 3.546 0 0 0 .132-.94"/>
            <path data-name="Path 2412" d="M32.404 8.062a6.029 6.029 0 0 1 .082.943h.321a8.226 8.226 0 0 0 .043-.838v-.1z"/>
            <path data-name="Path 2413" d="M29.189 1.354H20.18a8.012 8.012 0 0 0-.862.658l-.019.015a4.926 4.926 0 0 0-.272.269H30.36a8.287 8.287 0 0 0-1.17-.943"/>
            <path data-name="Path 2414" d="M24.432 8.062h-6.664c.011.032.022.069.035.1l.012.026a3.545 3.545 0 0 0 .512.815h5.541a3.651 3.651 0 0 0 .566-.943"/>
            <path data-name="Path 2415" d="M23.476 9.404h-4.757a3.6 3.6 0 0 0 4.757 0"/>
            <path data-name="Path 2416" d="m31.12 13.197.014-.021-.025.033z"/>
            <path data-name="Path 2417" d="M31.134 13.176a8.1 8.1 0 0 0 .716-1.089h-.065a6.952 6.952 0 0 1-.651 1.089"/>
            <path data-name="Path 2418" d="M31.961 11.687h.092a8.01 8.01 0 0 0 .38-.94h-.16a7.059 7.059 0 0 1-.308.94"/>
            <path data-name="Path 2419" d="m32.376 10.236-.009.053c0 .02-.009.04-.012.058h.2a8.091 8.091 0 0 0 .2-.943h-.28a6.114 6.114 0 0 1-.1.832"/>
            <path data-name="Path 2420" d="M17.897 4.037a5.585 5.585 0 0 0-.3.942h7.1a1.871 1.871 0 0 1 .358-.942z"/>
            <path data-name="Path 2421" d="M32.323 7.66h.511a8.553 8.553 0 0 0-.112-.94h-.7a6.1 6.1 0 0 1 .306.94"/>
            <path data-name="Path 2422" d="M25.454 3.637a1.927 1.927 0 0 1 .217-.14h.007a3.2 3.2 0 0 1 2.514-.245 6.029 6.029 0 0 1 .957.387h2.329a8.474 8.474 0 0 0-.732-.942H18.684a5.731 5.731 0 0 0-.605.942z"/>
            <path data-name="Path 2423" d="M31.827 6.32h.807a7.8 7.8 0 0 0-.277-.941h-1.12a6.091 6.091 0 0 1 .591.941"/>
            <path data-name="Path 2424" d="M30.908 4.979h1.3a8.128 8.128 0 0 0-.476-.942h-1.9a6.08 6.08 0 0 1 1.082.942"/>
            <path data-name="Path 2425" d="m18.251 3.149-.01.014.02-.027z"/>
            <path data-name="Path 2426" d="M4.488 43.656c0-2.469 2.449-3.257 4.388-3.257a7.544 7.544 0 0 1 5.339 2.254V38.61a16.315 16.315 0 0 0-5.067-.786c-4.149 0-8.537 1.717-8.537 6.225 0 7.586 11.7 6.584 11.7 12.166 0 2.5-2.925 3.72-4.862 3.72A11.441 11.441 0 0 1 0 56.965l.987 4.473a16.81 16.81 0 0 0 6.087 1.073c5.305 0 9.115-3.578 9.115-7.406 0-6.619-11.7-6.547-11.7-11.449"/>
            <path data-name="Path 2427" d="M22.51 56.89V43.405c0-1.61-.2-4.258 1.53-4.9v-.108h-6.529v.108c1.734.68 1.53 3.291 1.53 4.9V56.89c0 1.61.2 4.257-1.53 4.937v.108h6.529v-.108c-1.733-.68-1.53-3.291-1.53-4.937"/>
            <path data-name="Path 2428" d="M54.763 38.396H48.81v.108c1.9.966 1.123 2.683.545 3.577l-4.217 6.655-5.443-9.338a2.832 2.832 0 0 0-2.551-1h-8.852v.108c2.278 1.073.239 3.291-.885 4.973l-4.455 6.225 7.551 10.7a4.962 4.962 0 0 0 3.843 1.539h3.2v-.108a10.837 10.837 0 0 1-4.081-3.363l-6.873-9.482 7.728-10.429a8.833 8.833 0 0 1 2.961 3.523l5.646 9.553v5.294c0 1.682.237 4.008-1.43 4.9v.108h6.632v-.108c-1.734-1.323-1.734-2.4-1.734-4.544v-5.652z"/>
            <path data-name="Path 2429" d="M62.675 43.656c0-2.469 2.45-3.257 4.388-3.257a7.545 7.545 0 0 1 5.339 2.254V38.61a16.312 16.312 0 0 0-5.068-.786c-4.148 0-8.534 1.717-8.534 6.225 0 7.586 11.7 6.584 11.7 12.166 0 2.5-2.923 3.72-4.863 3.72a11.44 11.44 0 0 1-7.447-2.969l.986 4.473a16.814 16.814 0 0 0 6.088 1.073c5.305 0 9.114-3.578 9.114-7.406 0-6.619-11.7-6.547-11.7-11.449"/>
            <path data-name="Path 2430" d="M91.093 38.503c1.735.68 1.5 3.291 1.5 4.937v4.437H80.312V43.44c0-1.646-.2-4.257 1.5-4.937v-.107h-6.464v.107c1.737.68 1.5 3.291 1.5 4.9v13.523c0 1.611.2 4.222-1.5 4.9v.108h6.464v-.108c-1.7-.68-1.5-3.291-1.5-4.9v-6.475h12.279v6.475c0 1.611.237 4.222-1.5 4.9v.108h6.5v-.108c-1.735-.68-1.531-3.291-1.531-4.9V43.405c0-1.61-.2-4.222 1.531-4.9v-.107h-6.5z"/>
            <path data-name="Path 2431" d="M110.85 37.788a12.314 12.314 0 0 0-12.661 12.308 12.145 12.145 0 0 0 12.323 12.415 12.384 12.384 0 0 0 12.426-12.595 11.983 11.983 0 0 0-12.088-12.128m-.167 22.146c-5.3 0-8.645-5.152-8.645-10.161 0-5.4 3.342-9.41 8.577-9.41 5.336 0 8.477 5.046 8.477 10.269 0 5.332-3.278 9.3-8.408 9.3"/>
            <path data-name="Path 2432" d="M132.214 38.396h-8.266v.107c1.7.715 1.5 3.327 1.5 4.937v13.488c0 1.611.2 4.258-1.533 4.9v.109h6.768v-.109c-1.8-1.073-1.769-2.5-1.769-4.508V41.19a13.1 13.1 0 0 1 2.381-.215c2.722 0 4.831 1.253 4.831 4.4 0 3.111-2.595 4.959-5.256 5.414h4.769a6.56 6.56 0 0 0 4.363-6.131c0-4.007-3.368-6.261-7.786-6.261"/>
            <path data-name="Path 2433" d="M.732 22.803a1.646 1.646 0 0 0-.714-1.555 83.37 83.37 0 0 1 4.035-.139c4.469 0 6.083 2.715 6.083 5.524 0 3.2-2.328 5.478-6.1 5.478H.018a1.646 1.646 0 0 0 .714-1.552zm1.583 7.9a6.146 6.146 0 0 0 1.412.14c2.887 0 4.625-1.536 4.625-4.267a4.044 4.044 0 0 0-4.3-4.19c-.559 0-1.49.093-1.738.124z"/>
            <path data-name="Path 2434" d="M22.08 21.249a1.646 1.646 0 0 0-.714 1.552v5.54a2.362 2.362 0 0 0 2.591 2.731c1.707 0 2.856-.9 2.856-2.53v-5.741a1.646 1.646 0 0 0-.714-1.552h3.01a1.646 1.646 0 0 0-.714 1.552v7.759a1.646 1.646 0 0 0 .714 1.552h-2.25v-1.04a4.109 4.109 0 0 1-3.15 1.273c-3.585 0-3.926-2.5-3.926-3.8v-5.744a1.647 1.647 0 0 0-.714-1.552z"/>
            <path data-name="Path 2435" d="M42.117 30.56a1.647 1.647 0 0 0 .714 1.552H39.82a1.646 1.646 0 0 0 .714-1.552v-8.07l-1.847-.015a2.171 2.171 0 0 0-1.614.652l.621-1.94a5.167 5.167 0 0 0 .993.062h6.005a8.837 8.837 0 0 0 .947-.062l-.543 1.816a1.255 1.255 0 0 0-1.241-.528l-1.738.015z"/>
            <path data-name="Path 2436" d="M54.082 21.218a1.1 1.1 0 0 1 .45.078l2.964 4.686 2.141-3.321a1.246 1.246 0 0 0 .217-.621.951.951 0 0 0-.527-.792h2.684l-4 6.006v3.301a1.646 1.646 0 0 0 .714 1.552h-3.011a1.646 1.646 0 0 0 .714-1.552v-3.316l-3.2-4.935a2.712 2.712 0 0 0-1.164-1.055z"/>
            <path data-name="Path 2437" d="M86.808 21.249a3.109 3.109 0 0 0 .559-.047v1.831a1.868 1.868 0 0 0-1.629-.559l-2.095.047v3.1h2.234a3.138 3.138 0 0 0 .559-.047v1.696a1.523 1.523 0 0 0-1.179-.4h-1.614v3.693a1.6 1.6 0 0 0 .791 1.552h-3.088a1.671 1.671 0 0 0 .714-1.552v-7.762a1.671 1.671 0 0 0-.714-1.552z"/>
            <path data-name="Path 2438" d="M97.842 21.218c.45-.015.9-.031 1.35-.031 3.538 0 3.895 1.971 3.895 2.824a2.937 2.937 0 0 1-2.685 2.747c1.21 1.909 3.46 4.718 5 5.354-1.086.078-1.505.093-1.676.093-1.784 0-4.206-3.926-5.183-5.757 1.117-.109 2.762-.745 2.762-2.3 0-.7-.264-1.816-2.173-1.816a3.818 3.818 0 0 0-1.04.109v8.116a1.646 1.646 0 0 0 .714 1.552h-3.01a1.646 1.646 0 0 0 .714-1.552v-7.756a1.647 1.647 0 0 0-.714-1.552c.683 0 1.366-.015 2.048-.031"/>
            <path data-name="Path 2439" d="M118.294 21.249v1.784a1.868 1.868 0 0 0-1.629-.559l-2.095.047v3.1h2.235a3.138 3.138 0 0 0 .559-.047v1.692a1.5 1.5 0 0 0-1.179-.4h-1.619v3.9c.947.093 1.707.109 2.017.109a4.414 4.414 0 0 0 3.243-.947l-.792 2.188h-6.766a1.671 1.671 0 0 0 .714-1.552v-7.763a1.671 1.671 0 0 0-.714-1.552z"/>
            <path data-name="Path 2440" d="M134.045 21.249v1.784a1.868 1.868 0 0 0-1.63-.559l-2.095.047v3.1h2.235a3.138 3.138 0 0 0 .559-.047v1.692a1.5 1.5 0 0 0-1.179-.4h-1.614v3.9c.947.093 1.707.109 2.017.109a4.414 4.414 0 0 0 3.243-.947l-.792 2.188h-6.766a1.67 1.67 0 0 0 .714-1.552v-7.763a1.67 1.67 0 0 0-.714-1.552z"/>
        </g>
    </g>
</svg>
