<svg xmlns="http://www.w3.org/2000/svg" width="89.585" height="40" viewBox="0 0 89.585 40">
    <defs>
        <clipPath id="odpek3cpla">
            <path data-name="사각형 1448" style="fill:none" d="M0 0h89.585v40H0z"/>
        </clipPath>
    </defs>
    <g data-name="그룹 9063" style="clip-path:url(#odpek3cpla)">
        <g data-name="그룹 9068" style="clip-path:url(#odpek3cpla)">
            <path data-name="패스 2404" d="M145.905 8.237s-.016-.111-.347-.142c0 0-.741.173-.756-.882s-.064-2.552 0-4.08a1.355 1.355 0 0 1 .9-1.213s.315-.032.173-.41l-.094-.189s0-.158-.22-.127a14.989 14.989 0 0 1-2.757.032.324.324 0 0 0-.315.315s-.079.284.142.379a1.589 1.589 0 0 1 1.04 1.591c.047 1.213.063 2.9.063 2.9s-1.8-2.646-2.946-4.679a.822.822 0 0 0-.866-.5 25.04 25.04 0 0 1-3.481.016.337.337 0 0 0-.379.33.409.409 0 0 0 .189.472s.945.6.945.8l-.016 4.4s.079 1.717-.379 1.5c0 0-.268.173-.913-1.009a61.261 61.261 0 0 1-2.836-6.144s-.283-.914-.866-.914a1.781 1.781 0 0 0-.71.22 13.434 13.434 0 0 1-2.709 1.2.323.323 0 0 0-.221.41s-.047.237.3.363a1.454 1.454 0 0 1 .74.44 14.249 14.249 0 0 1-1.024 2.363c-.662 1.2-1.512 3.182-3.954 3.182h-.961s-.252.031-.252-.316V6h.63s1.024-.22 1.512 1.1c0 0 .095.409.442.252a.407.407 0 0 0 .362-.442 17.506 17.506 0 0 1 .016-2.41.323.323 0 0 0-.284-.346.383.383 0 0 0-.441.079 1.818 1.818 0 0 1-1.48.692h-.741v-2.36s-.015-.156.1-.173a3.046 3.046 0 0 1 2.283.3 3.543 3.543 0 0 1 1.025 1.15s.157.394.566.126c0 0 .316-.047.158-.536a15.718 15.718 0 0 1-.473-1.891.519.519 0 0 0-.583-.472 41.335 41.335 0 0 1-7.041.189.316.316 0 0 0-.394.268.354.354 0 0 0 .126.457s.929.426.929 2.063v2.741s.158 2.175-.614 2.175c0 0-.331.141-.9-.976s-.6-1.151-.6-1.151a2.479 2.479 0 0 0-2.427-1.528s2.726-.457 2.474-2.505c0 0-.047-1.559-2.095-1.623h-.221a55.974 55.974 0 0 1-6.837.111.291.291 0 0 0-.362.252.31.31 0 0 0 .095.426 2.224 2.224 0 0 1 .976 2.173v3.04s.142 1.671-1.008 2.3c0 0-.237.079-.111.41a.276.276 0 0 0 .347.252 28.927 28.927 0 0 1 4.742-.016s.22.016.283-.125a.819.819 0 0 1 .079-.157s.221-.221-.11-.441-.882-.551-.929-1.954a6.616 6.616 0 0 1 0-1.433h.2s.709-.064 1.181 1.008c0 0 .915 2.2 1.056 2.473a1.233 1.233 0 0 0 1.4.741 64.563 64.563 0 0 1 10.539.016.7.7 0 0 0 .74-.441s.851-2.286 1.056-2.648c0 0 1.8-.047 2.773-.031a2.968 2.968 0 0 1 .362 1.354.926.926 0 0 1-.646.915.317.317 0 0 0-.142.441.329.329 0 0 0 .362.283 48.659 48.659 0 0 1 7.389-.031s.284.11.378-.268a.3.3 0 0 0-.126-.442s-1.111-.252-1.111-2.032.016-3.04.016-3.04.851 1.212 1.859 3.024 1.544 2.584 1.544 2.584a1.075 1.075 0 0 0 1.5.456 29.431 29.431 0 0 0 2.679-1.544.292.292 0 0 0 .11-.409zm-31.3-4.631c.008.142-.049 1.433-1.735 1.433V3.495s.016-1.15.929-1.15.8 1.118.806 1.261m14.932 2.472s.583-1.37.835-1.763a7.75 7.75 0 0 1 .962 1.78 6.7 6.7 0 0 1-1.8-.017" transform="translate(-87.395 -.544)" style="fill:#fff"/>
            <path data-name="패스 2405" d="M328.741 9.575a1.887 1.887 0 0 1-.9-1.717c-.064-1.339-.047-3.876-.047-3.876s-.063-1.417.834-1.858c0 0 .237-.11.111-.426a.329.329 0 0 0-.347-.267 33.712 33.712 0 0 1-4.663.015s-.315-.015-.378.252a.34.34 0 0 0 .11.457 2.327 2.327 0 0 1 .96 2.142v2.726s.064 2.064-.708 1.922c0 0-.268.173-.914-1.008a61.4 61.4 0 0 1-2.836-6.144s-.284-.914-.866-.914a1.768 1.768 0 0 0-.709.221 13.494 13.494 0 0 1-2.71 1.2.323.323 0 0 0-.221.41s-.047.236.3.362a1.445 1.445 0 0 1 .74.442 14.263 14.263 0 0 1-1.024 2.362c-.662 1.2-1.245 2.946-2.8 3.734 0 0-.3.063-.2.425.11.409.315.3.315.3a10 10 0 0 1 2.773 0c.41.031.346-.3.346-.3a.264.264 0 0 0-.031-.33l-.173-.221s-.678-.173.283-2.11c0 0 1.8-.048 2.773-.033a2.975 2.975 0 0 1 .363 1.356.925.925 0 0 1-.646.914.318.318 0 0 0-.142.441.331.331 0 0 0 .362.284c.315-.031 5.545-.252 9.8.016a.379.379 0 0 0 .378-.252.4.4 0 0 0-.126-.52m-12.294-3.344a14.069 14.069 0 0 1 .835-1.764 5.621 5.621 0 0 1 .96 1.78 8.521 8.521 0 0 1-1.8-.015" transform="translate(-251.815 -.708)" style="fill:#fff"/>
            <path data-name="패스 2406" d="M413.07 11.016c-.377-.078-.662-.441-.929-.977s-.677-1.323-.677-1.323a2.488 2.488 0 0 0-2.348-1.386s2.474-.426 2.474-2.284-2.206-1.89-2.206-1.89h-.378a36.039 36.039 0 0 1-6.679.095.349.349 0 0 0-.458.315s-.031.284.142.394a2.173 2.173 0 0 1 .929 2.016c.048 1.481.079 1.055.048 3.072 0 0 .125 1.938-.977 2.411 0 0-.283.063-.126.472 0 0 .095.315.363.2a37.6 37.6 0 0 1 4.82.016s.252.095.33-.236c0 0 .205-.221-.11-.457a2.037 2.037 0 0 1-.945-1.638c-.062-.993-.047-1.78-.047-1.78h.22s.741-.1 1.244 1.071.851 2.016.851 2.016a2.687 2.687 0 0 0 .866 1.229s.221.2 1.04.111a8.254 8.254 0 0 0 2.663-.694.3.3 0 0 0 .2-.409s.063-.268-.315-.347m-5.039-5.34c-.045.318-.127 1.4-1.734 1.4V5.535s.031-1.15.9-1.15.882.975.837 1.291" transform="translate(-323.857 -2.544)" style="fill:#fff"/>
            <path data-name="패스 2407" d="M21.345 8.283a2.3 2.3 0 0 0-4.4.954l.006.993a1.2 1.2 0 0 1-.628 1.055 2.05 2.05 0 0 1-1.609.157 3.731 3.731 0 0 1-.494-.193 3.184 3.184 0 0 1-.21-.107c-.041-.022-.082-.043-.122-.066a3.34 3.34 0 0 1-.424-.292c-.04-.031-.08-.062-.119-.1-.055-.045-.107-.094-.159-.142-.03-.028-.058-.057-.086-.085a3.878 3.878 0 0 1-1.14-2.736 3.948 3.948 0 0 1 .071-.747l.006-.035a4.441 4.441 0 0 1 .787-1.839 5.206 5.206 0 0 0-.548 5.526h-.009v.012l-.042.032s-.2.158-.615-.315-2.82-3.387-2.82-3.387a11.523 11.523 0 0 1 3.025-2.3s.393-.125.3-.472l-.063-.2s-.016-.22-.362-.173a19.362 19.362 0 0 1-3.623.016.4.4 0 0 0-.347.2s-.157.268 0 .425.725.552.725 1.087c0 0 .125.394-.741 1.024A19.625 19.625 0 0 1 5.942 7.8l.016-1.481a2.243 2.243 0 0 1 .851-1.827.24.24 0 0 0 .141-.3l-.062-.157a.278.278 0 0 0-.315-.221 33.522 33.522 0 0 1-4.663.032.306.306 0 0 0-.284.141l-.063.126s-.11.283.063.409a2.074 2.074 0 0 1 .929 1.859s.079 2.474-.032 3.434a2.783 2.783 0 0 1-.961 2.19.348.348 0 0 0-.11.394l.11.2s.079.157.347.126a26.986 26.986 0 0 1 4.663-.025.2.2 0 0 0 .252-.11l.111-.221a.3.3 0 0 0-.111-.394 2.043 2.043 0 0 1-.882-1.654c-.016-.977-.016-1.592-.016-1.592s.425.174 2.694 3.529a1.761 1.761 0 0 0 2.5.552 14.536 14.536 0 0 0 1.764-1.119l.054-.032v.005h.006a5.218 5.218 0 0 0 7.43.576l.012-.009a3.637 3.637 0 0 0 .967-3.931z" transform="translate(-1.151 -3.069)" style="fill:#fff"/>
            <path data-name="패스 2408" d="m60.166 10.334-.01.015.017-.023z" transform="translate(-48.482 -8.323)" style="fill:#fff"/>
            <path data-name="패스 2409" d="M71.219 0a5.2 5.2 0 0 0-2.452.611h4.9A5.2 5.2 0 0 0 71.219 0" transform="translate(-55.422)" style="fill:#fff"/>
            <path data-name="패스 2410" d="M57.625 17.738a3.694 3.694 0 0 0-.04.532v.07h4.627v-.6z" transform="translate(-46.41 -14.296)" style="fill:#fff"/>
            <path data-name="패스 2411" d="M62.275 22.162H57.66a3.613 3.613 0 0 0 .106.6h4.425a2.269 2.269 0 0 0 .084-.6" transform="translate(-46.47 -17.861)" style="fill:#fff"/>
            <path data-name="패스 2412" d="M106.847 26.583a3.858 3.858 0 0 1 .052.6h.206a5.261 5.261 0 0 0 .028-.536v-.067z" transform="translate(-86.112 -21.424)" style="fill:#fff"/>
            <path data-name="패스 2413" d="M69.251 4.465h-5.762a5.128 5.128 0 0 0-.552.421l-.012.01c-.06.055-.118.113-.174.172H70a5.3 5.3 0 0 0-.749-.6" transform="translate(-50.573 -3.599)" style="fill:#fff"/>
            <path data-name="패스 2414" d="M62.866 26.583H58.6c.007.021.014.044.023.065l.008.017a2.269 2.269 0 0 0 .328.521H62.5a2.336 2.336 0 0 0 .362-.6" transform="translate(-47.232 -21.424)" style="fill:#fff"/>
            <path data-name="패스 2415" d="M64.768 31.01h-3.044a2.3 2.3 0 0 0 3.044 0" transform="translate(-49.746 -24.992)" style="fill:#fff"/>
            <path data-name="패스 2416" d="m102.585 43.458.009-.013-.016.021z" transform="translate(-82.672 -35.014)" style="fill:#fff"/>
            <path data-name="패스 2417" d="M102.66 40.551a5.181 5.181 0 0 0 .458-.7h-.042a4.449 4.449 0 0 1-.416.7" transform="translate(-82.738 -32.12)" style="fill:#fff"/>
            <path data-name="패스 2418" d="M105.388 36.038h.059a5.126 5.126 0 0 0 .243-.6h-.105a4.517 4.517 0 0 1-.2.6" transform="translate(-84.936 -28.559)" style="fill:#fff"/>
            <path data-name="패스 2419" d="m106.7 31.542-.006.034c0 .013-.006.026-.008.037h.128a5.178 5.178 0 0 0 .129-.6h-.179a3.915 3.915 0 0 1-.064.532" transform="translate(-85.981 -24.992)" style="fill:#fff"/>
            <path data-name="패스 2420" d="M58.219 13.311a3.574 3.574 0 0 0-.191.6h4.543a1.2 1.2 0 0 1 .229-.6z" transform="translate(-46.767 -10.728)" style="fill:#fff"/>
            <path data-name="패스 2421" d="M105.767 22.763h.327a5.475 5.475 0 0 0-.072-.6h-.451a3.906 3.906 0 0 1 .2.6" transform="translate(-85.084 -17.86)" style="fill:#fff"/>
            <path data-name="패스 2422" d="M64.331 9.489a1.232 1.232 0 0 1 .139-.089 2.048 2.048 0 0 1 1.609-.157 3.858 3.858 0 0 1 .612.248h1.49a5.423 5.423 0 0 0-.469-.6H60a3.667 3.667 0 0 0-.387.6z" transform="translate(-48.044 -7.162)" style="fill:#fff"/>
            <path data-name="패스 2423" d="M103.392 18.34h.516a4.989 4.989 0 0 0-.177-.6h-.717a3.9 3.9 0 0 1 .378.6" transform="translate(-83.023 -14.296)" style="fill:#fff"/>
            <path data-name="패스 2424" d="M99.038 13.915h.83a5.2 5.2 0 0 0-.3-.6h-1.222a3.891 3.891 0 0 1 .692.6" transform="translate(-79.261 -10.729)" style="fill:#fff"/>
            <path data-name="패스 2425" d="m60.154 10.347-.007.009.013-.017z" transform="translate(-48.475 -8.333)" style="fill:#fff"/>
            <path data-name="패스 2426" d="M2.872 128.451c0-1.58 1.567-2.084 2.808-2.084a4.828 4.828 0 0 1 3.42 1.442v-2.587a10.44 10.44 0 0 0-3.242-.5c-2.655 0-5.463 1.1-5.463 3.983 0 4.854 7.486 4.213 7.486 7.785 0 1.6-1.872 2.38-3.111 2.38A7.321 7.321 0 0 1 0 136.967l.631 2.862a10.757 10.757 0 0 0 3.9.687c3.395 0 5.833-2.289 5.833-4.739 0-4.235-7.487-4.19-7.487-7.326" transform="translate(0 -100.516)" style="fill:#fff"/>
            <path data-name="패스 2427" d="M60.941 138.443v-8.632c0-1.03-.13-2.724.979-3.136v-.069h-4.178v.069c1.11.435.979 2.106.979 3.136v8.632c0 1.03.131 2.724-.979 3.159v.069h4.178v-.071c-1.109-.435-.979-2.106-.979-3.159" transform="translate(-46.537 -102.037)" style="fill:#fff"/>
            <path data-name="패스 2428" d="M96.037 126.606h-3.809v.069c1.219.618.718 1.717.349 2.289l-2.7 4.258-3.477-5.975a1.812 1.812 0 0 0-1.632-.641H79.1v.069c1.458.686.153 2.106-.566 3.182l-2.851 3.983 4.832 6.845a3.175 3.175 0 0 0 2.459.985h2.045v-.07a6.934 6.934 0 0 1-2.611-2.152l-4.4-6.067 4.945-6.673a5.652 5.652 0 0 1 1.9 2.254l3.613 6.113v3.388c0 1.076.152 2.565-.915 3.137v.069h4.244v-.069c-1.109-.847-1.109-1.534-1.109-2.908v-3.617z" transform="translate(-60.995 -102.037)" style="fill:#fff"/>
            <path data-name="패스 2429" d="M194.735 128.451c0-1.58 1.568-2.084 2.808-2.084a4.828 4.828 0 0 1 3.416 1.442v-2.587a10.438 10.438 0 0 0-3.243-.5c-2.654 0-5.461 1.1-5.461 3.983 0 4.854 7.485 4.213 7.485 7.785 0 1.6-1.87 2.38-3.112 2.38a7.32 7.32 0 0 1-4.765-1.9l.631 2.862a10.759 10.759 0 0 0 3.9.687c3.395 0 5.832-2.289 5.832-4.739 0-4.235-7.486-4.19-7.486-7.326" transform="translate(-154.63 -100.516)" style="fill:#fff"/>
            <path data-name="패스 2430" d="M258.52 126.676c1.11.435.959 2.106.959 3.159v2.839h-7.857v-2.839c0-1.053-.131-2.724.958-3.159v-.069h-4.136v.069c1.112.435.959 2.106.959 3.136v8.654c0 1.031.129 2.7-.959 3.137v.069h4.136v-.072c-1.089-.435-.958-2.106-.958-3.137v-4.144h7.857v4.144c0 1.031.152 2.7-.959 3.137v.069h4.157v-.069c-1.11-.435-.979-2.106-.979-3.137v-8.654c0-1.03-.131-2.7.979-3.136v-.069h-4.157z" transform="translate(-200.231 -102.038)" style="fill:#fff"/>
            <path data-name="패스 2431" d="M331.868 124.59a7.879 7.879 0 0 0-8.1 7.876 7.772 7.772 0 0 0 7.886 7.944 7.924 7.924 0 0 0 7.951-8.059 7.668 7.668 0 0 0-7.735-7.761m-.107 14.171c-3.394 0-5.532-3.3-5.532-6.5 0-3.457 2.139-6.021 5.488-6.021 3.414 0 5.424 3.229 5.424 6.571 0 3.412-2.1 5.952-5.38 5.952" transform="translate(-260.936 -100.41)" style="fill:#fff"/>
            <path data-name="패스 2432" d="M413.9 126.606h-5.289v.069c1.089.458.959 2.129.959 3.159v8.631c0 1.031.13 2.725-.981 3.137v.069h4.331v-.071c-1.153-.687-1.132-1.6-1.132-2.885v-10.323a8.379 8.379 0 0 1 1.524-.138c1.742 0 3.091.8 3.091 2.816a3.681 3.681 0 0 1-3.363 3.464h3.051a4.2 4.2 0 0 0 2.792-3.923c0-2.564-2.155-4.007-4.982-4.007" transform="translate(-329.3 -102.037)" style="fill:#fff"/>
            <path data-name="패스 2433" d="M.517 70.688A1.053 1.053 0 0 0 .06 69.7c.626-.04 1.9-.089 2.582-.089 2.86 0 3.892 1.738 3.892 3.535 0 2.045-1.489 3.505-3.9 3.505H.06a1.053 1.053 0 0 0 .457-.993zm1.013 5.055a3.933 3.933 0 0 0 .9.089c1.847 0 2.959-.983 2.959-2.731a2.588 2.588 0 0 0-2.747-2.681c-.357 0-.953.06-1.112.08z" transform="translate(-.048 -56.098)" style="fill:#fff"/>
            <path data-name="패스 2434" d="M64.82 70.066a1.053 1.053 0 0 0-.457.993V74.6a1.511 1.511 0 0 0 1.658 1.748c1.093 0 1.827-.576 1.827-1.619v-3.67a1.054 1.054 0 0 0-.457-.993h1.926a1.053 1.053 0 0 0-.457.993v4.965a1.053 1.053 0 0 0 .457.993h-1.44v-.665a2.629 2.629 0 0 1-2.016.814 2.208 2.208 0 0 1-2.512-2.433v-3.674a1.054 1.054 0 0 0-.457-.993z" transform="translate(-50.689 -56.469)" style="fill:#fff"/>
            <path data-name="패스 2435" d="M125.475 75.859a1.054 1.054 0 0 0 .457.993h-1.926a1.054 1.054 0 0 0 .457-.993V70.7l-1.182-.01a1.389 1.389 0 0 0-1.033.417l.4-1.241a3.307 3.307 0 0 0 .636.04h3.843a5.653 5.653 0 0 0 .606-.04l-.348 1.162a.8.8 0 0 0-.794-.338l-1.112.01z" transform="translate(-98.524 -56.304)" style="fill:#fff"/>
            <path data-name="패스 2436" d="M172.967 69.963a.705.705 0 0 1 .288.05l1.9 3 1.37-2.125a.8.8 0 0 0 .139-.4.608.608 0 0 0-.337-.507h1.718l-2.562 3.843v2.115a1.053 1.053 0 0 0 .457.993h-1.93a1.053 1.053 0 0 0 .457-.993v-2.123l-2.046-3.158a1.735 1.735 0 0 0-.745-.675z" transform="translate(-138.36 -56.386)" style="fill:#fff"/>
            <path data-name="패스 2437" d="M271.725 69.942a1.989 1.989 0 0 0 .357-.03v1.172a1.2 1.2 0 0 0-1.043-.357l-1.34.03v1.986h1.43a2.008 2.008 0 0 0 .357-.03v1.082a.975.975 0 0 0-.755-.258H269.7V75.9a1.026 1.026 0 0 0 .506.993h-1.976a1.069 1.069 0 0 0 .457-.993v-4.965a1.069 1.069 0 0 0-.457-.993z" transform="translate(-216.177 -56.345)" style="fill:#fff"/>
            <path data-name="패스 2438" d="M317.179 69.881c.288-.01.576-.02.864-.02 2.264 0 2.492 1.261 2.492 1.807a1.879 1.879 0 0 1-1.718 1.758c.775 1.221 2.214 3.019 3.2 3.426-.7.05-.963.06-1.072.06-1.142 0-2.691-2.512-3.317-3.684.715-.069 1.768-.477 1.768-1.47 0-.447-.169-1.162-1.39-1.162a2.443 2.443 0 0 0-.665.069v5.193a1.053 1.053 0 0 0 .457.993h-1.926a1.053 1.053 0 0 0 .457-.993v-4.964a1.054 1.054 0 0 0-.457-.993c.437 0 .874-.01 1.311-.02" transform="translate(-254.57 -56.304)" style="fill:#fff"/>
            <path data-name="패스 2439" d="M374.06 70.066v1.142a1.2 1.2 0 0 0-1.043-.357l-1.341.03v1.986h1.43a2.007 2.007 0 0 0 .357-.03v1.082a.959.959 0 0 0-.755-.258h-1.033v2.493c.606.06 1.092.069 1.291.069a2.825 2.825 0 0 0 2.076-.606l-.506 1.4h-4.33a1.069 1.069 0 0 0 .457-.993v-4.965a1.069 1.069 0 0 0-.457-.993z" transform="translate(-298.364 -56.469)" style="fill:#fff"/>
            <path data-name="패스 2440" d="M426 70.066v1.142a1.2 1.2 0 0 0-1.043-.357l-1.341.03v1.986h1.43a2.007 2.007 0 0 0 .357-.03v1.082a.959.959 0 0 0-.755-.258h-1.033v2.493c.606.06 1.092.069 1.291.069a2.825 2.825 0 0 0 2.076-.606l-.507 1.4h-4.329a1.069 1.069 0 0 0 .457-.993v-4.965a1.069 1.069 0 0 0-.457-.993z" transform="translate(-340.222 -56.469)" style="fill:#fff"/>
        </g>
    </g>
</svg>
