<svg width="40" height="40" viewBox="0 0 40 40" fill="none" xmlns="http://www.w3.org/2000/svg">
<path fill-rule="evenodd" clip-rule="evenodd" d="M5.91666 6.81818C5.91666 8.35273 6.42393 9.76909 7.28029 10.9091H4.09847C3.2546 10.9091 2.4453 11.2443 1.84859 11.841C1.25188 12.4377 0.916656 13.247 0.916656 14.0909V18.6364C0.916656 19.9055 1.66029 21 2.73484 21.5127V36.8182C2.73484 38.5745 4.16029 40 5.91666 40H35.9167C36.7605 40 37.5698 39.6648 38.1665 39.0681C38.7632 38.4714 39.0985 37.6621 39.0985 36.8182V21.5127C40.173 21.0018 40.9167 19.9055 40.9167 18.6364V14.0909C40.9167 13.247 40.5814 12.4377 39.9847 11.841C39.388 11.2443 38.5787 10.9091 37.7348 10.9091H34.553C35.3128 9.89612 35.7754 8.69159 35.8891 7.43049C36.0028 6.16939 35.7631 4.90154 35.1968 3.769C34.6306 2.63646 33.7601 1.68398 32.683 1.01829C31.6059 0.3526 30.3647 0 29.0985 0C26.4512 0 22.8512 1.63818 20.9167 5.65455C18.9821 1.63818 15.3803 0 12.7348 0C10.9265 0 9.19231 0.718342 7.91366 1.997C6.635 3.27566 5.91666 5.00989 5.91666 6.81818V6.81818ZM19.4985 10.9091C18.9767 4.55818 14.8257 2.72727 12.7348 2.72727C11.6499 2.72727 10.6093 3.15828 9.84213 3.92547C9.07494 4.69267 8.64393 5.73321 8.64393 6.81818C8.64393 7.90316 9.07494 8.9437 9.84213 9.71089C10.6093 10.4781 11.6499 10.9091 12.7348 10.9091H19.4985ZM36.3712 21.8182V36.8182C36.3712 36.9387 36.3233 37.0544 36.2381 37.1396C36.1528 37.2248 36.0372 37.2727 35.9167 37.2727H22.2803V21.8182H36.3712ZM19.553 37.2727V21.8182H5.46211V36.8182C5.46211 37.0691 5.66575 37.2727 5.91666 37.2727H19.553ZM37.7348 19.0909C37.8554 19.0909 37.971 19.043 38.0563 18.9578C38.1415 18.8725 38.1894 18.7569 38.1894 18.6364V14.0909C38.1894 13.9704 38.1415 13.8547 38.0563 13.7695C37.971 13.6843 37.8554 13.6364 37.7348 13.6364H22.2803V19.0909H37.7348ZM4.09847 19.0909H19.553V13.6364H4.09847C3.97792 13.6364 3.86231 13.6843 3.77706 13.7695C3.69182 13.8547 3.64393 13.9704 3.64393 14.0909V18.6364C3.64393 18.8873 3.84757 19.0909 4.09847 19.0909ZM33.1894 6.81818C33.1894 7.90316 32.7584 8.9437 31.9912 9.71089C31.224 10.4781 30.1835 10.9091 29.0985 10.9091H22.3348C22.8567 4.55818 27.0076 2.72727 29.0985 2.72727C30.1835 2.72727 31.224 3.15828 31.9912 3.92547C32.7584 4.69267 33.1894 5.73321 33.1894 6.81818V6.81818Z" fill="white"/>
</svg>
