<svg xmlns="http://www.w3.org/2000/svg" width="40" height="40" viewBox="0 0 40 40">
    <path style="fill:none" d="M0 0h40v40H0z"/>
    <g style="stroke-linecap:round;stroke-linejoin:round;fill:none">
        <path d="m12.028 39.779 4.656-4.014a2.088 2.088 0 0 1 2.577 0l4.628 4.014a1.989 1.989 0 0 0 2.8-1.187l.887-2.714a2.283 2.283 0 0 0-.471-2.092l-4.545-4.664a2.363 2.363 0 0 1-.582-1.442v-5.229a1.294 1.294 0 0 1 1.94-1.3l9.282 4.071a1.866 1.866 0 0 0 2.8-1.866v-2.629a4.105 4.105 0 0 0-2.245-3.477l-10.919-4.805a1.513 1.513 0 0 1-.831-1.3V5.293a6.291 6.291 0 0 0-3.049-5.06 2.077 2.077 0 0 0-1.912 0A6.184 6.184 0 0 0 14 5.293v5.851a1.569 1.569 0 0 1-.831 1.3L2.245 17.25A4.162 4.162 0 0 0 0 20.727v2.629a1.862 1.862 0 0 0 2.8 1.866l9.284-4.071a1.292 1.292 0 0 1 1.94 1.3v5.229a2.391 2.391 0 0 1-.582 1.442l-4.629 4.636a2.283 2.283 0 0 0-.471 2.092l.887 2.714a1.976 1.976 0 0 0 2.799 1.215z" style="stroke:none" transform="rotate(90 19 21)"/>
        <path d="m24.802 37.924.86-2.628a.571.571 0 0 0-.036-.16L21.13 30.52c-.69-.704-1.152-1.844-1.152-2.84v-5.229c0-.929.288-1.752.832-2.38.602-.693 1.453-1.075 2.397-1.075a3.832 3.832 0 0 1 1.514.323L34 23.388v-2.661c0-.569-.542-1.427-1.036-1.64a1.83 1.83 0 0 1-.014-.006L22.04 14.28c-1.181-.507-2.036-1.822-2.036-3.136v-5.85c0-1.15-.953-2.738-1.965-3.283A.105.105 0 0 0 18 2a.119.119 0 0 0-.047.015 2.204 2.204 0 0 1-.012.006c-1 .501-1.946 2.092-1.946 3.272v5.851c0 1.29-.848 2.606-2.016 3.127a1.563 1.563 0 0 1-.01.004L3.052 19.081C2.55 19.3 2 20.163 2 20.727v2.661l9.268-4.063c.5-.226 1.013-.341 1.524-.341.942 0 1.793.386 2.398 1.088.545.632.833 1.455.833 2.38v5.229c0 .98-.474 2.149-1.154 2.842a1.933 1.933 0 0 1-.013.013L10.29 35.11a.573.573 0 0 0-.035.157l.867 2.652 4.256-3.668.004-.004c.698-.598 1.614-.927 2.58-.927a4.043 4.043 0 0 1 2.61.934l4.23 3.67M24.782 40c-.3 0-.605-.07-.893-.22l-4.628-4.015c-.72-.593-1.885-.593-2.577 0l-4.656 4.014c-1.109.566-2.411 0-2.8-1.215l-.886-2.714c-.222-.65 0-1.611.47-2.092l4.63-4.636c.304-.31.581-.96.581-1.441v-5.23c0-1.187-.887-1.78-1.94-1.3L2.8 25.221C1.247 25.9 0 25.053 0 23.357v-2.629c0-1.357 1.025-2.94 2.245-3.477l10.919-4.805c.443-.198.831-.792.831-1.3V5.292c0-1.922 1.358-4.212 3.049-5.06.61-.31 1.302-.31 1.912 0 1.663.876 3.049 3.138 3.049 5.06v5.851c0 .51.36 1.103.831 1.3l10.92 4.806c1.246.537 2.244 2.12 2.244 3.477v2.629c0 1.696-1.275 2.544-2.8 1.866l-9.283-4.07c-1.081-.453-1.94.112-1.94 1.3v5.229c0 .452.25 1.102.582 1.441l4.545 4.665c.471.48.693 1.441.471 2.091l-.887 2.714A2.019 2.019 0 0 1 24.782 40z" style="fill:#fff;stroke:none" transform="rotate(90 19 21)"/>
    </g>
</svg>
