<svg xmlns="http://www.w3.org/2000/svg" xmlns:xlink="http://www.w3.org/1999/xlink" width="122" height="122" viewBox="0 0 122 122">
  <defs>
    <style>
      .cls-1, .cls-4 {
        fill: #f7f7f7;
      }

      .cls-1 {
        stroke: #dfdfdf;
      }

      .cls-2 {
        clip-path: url(#clip-path);
      }

      .cls-3, .cls-5, .cls-6 {
        fill: #fff;
      }

      .cls-3, .cls-4 {
        stroke: #000;
      }

      .cls-6 {
        stroke: #fff;
        stroke-width: 0.5px;
      }

      .cls-7, .cls-9 {
        stroke: none;
      }

      .cls-8 {
        fill: none;
      }

      .cls-9 {
        fill: #000;
      }
    </style>
    <clipPath id="clip-path">
      <circle id="bg" class="cls-1" cx="60" cy="60" r="60" transform="translate(105 25)"/>
    </clipPath>
  </defs>
  <g id="img" transform="translate(-104 -24)">
    <g id="bg-2" data-name="bg" class="cls-1" transform="translate(105 25)">
      <circle class="cls-7" cx="60" cy="60" r="60"/>
      <circle class="cls-8" cx="60" cy="60" r="60.5"/>
    </g>
    <g id="mask" class="cls-2">
      <g id="arm_with_paper" data-name="arm with paper" transform="translate(69 29.04)">
        <g id="사각형_6509" data-name="사각형 6509" class="cls-3" transform="translate(74 33)">
          <rect class="cls-7" width="44" height="53" rx="2"/>
          <rect class="cls-8" x="0.5" y="0.5" width="43" height="52" rx="1.5"/>
        </g>
        <path id="교차_1" data-name="교차 1" d="M-12206.5-9627.454V-9653a6,6,0,0,1,6-6h18a6,6,0,0,1,6,6v27.5a6.014,6.014,0,0,1-.093,1.06,59.92,59.92,0,0,1-9.163.7A59.365,59.365,0,0,1-12206.5-9627.454Z" transform="translate(12287 9751)"/>
        <g id="사각형_6511" data-name="사각형 6511" class="cls-4" transform="translate(83 33)">
          <rect class="cls-7" width="26" height="9" rx="2"/>
          <rect class="cls-8" x="0.5" y="0.5" width="25" height="8" rx="1.5"/>
        </g>
        <g id="사각형_6512" data-name="사각형 6512" class="cls-3" transform="translate(79 48)">
          <rect class="cls-7" width="34" height="1" rx="0.5"/>
          <rect class="cls-8" x="0.5" y="0.5" width="33"/>
        </g>
        <g id="사각형_6524" data-name="사각형 6524" class="cls-3" transform="translate(83 45)">
          <rect class="cls-7" width="26" height="1" rx="0.5"/>
          <rect class="cls-8" x="0.5" y="0.5" width="25"/>
        </g>
        <g id="사각형_6513" data-name="사각형 6513" class="cls-3" transform="translate(79 51)">
          <rect class="cls-7" width="34" height="1" rx="0.5"/>
          <rect class="cls-8" x="0.5" y="0.5" width="33"/>
        </g>
        <g id="사각형_6521" data-name="사각형 6521" class="cls-3" transform="translate(79 72)">
          <rect class="cls-7" width="34" height="1" rx="0.5"/>
          <rect class="cls-8" x="0.5" y="0.5" width="33"/>
        </g>
        <g id="사각형_6522" data-name="사각형 6522" class="cls-3" transform="translate(79 75)">
          <rect class="cls-7" width="34" height="1" rx="0.5"/>
          <rect class="cls-8" x="0.5" y="0.5" width="33"/>
        </g>
        <g id="사각형_6523" data-name="사각형 6523" class="cls-3" transform="translate(79 78)">
          <rect class="cls-7" width="34" height="1" rx="0.5"/>
          <rect class="cls-8" x="0.5" y="0.5" width="33"/>
        </g>
        <g id="사각형_6514" data-name="사각형 6514" class="cls-3" transform="translate(79 54)">
          <rect class="cls-7" width="34" height="1" rx="0.5"/>
          <rect class="cls-8" x="0.5" y="0.5" width="33"/>
        </g>
        <g id="사각형_6515" data-name="사각형 6515" class="cls-3" transform="translate(94 57)">
          <rect class="cls-7" width="19" height="1" rx="0.5"/>
          <rect class="cls-8" x="0.5" y="0.5" width="18"/>
        </g>
        <g id="사각형_6516" data-name="사각형 6516" class="cls-3" transform="translate(94 60)">
          <rect class="cls-7" width="19" height="1" rx="0.5"/>
          <rect class="cls-8" x="0.5" y="0.5" width="18"/>
        </g>
        <g id="사각형_6520" data-name="사각형 6520" class="cls-3" transform="translate(94 66)">
          <rect class="cls-7" width="19" height="1" rx="0.5"/>
          <rect class="cls-8" x="0.5" y="0.5" width="18"/>
        </g>
        <g id="사각형_6517" data-name="사각형 6517" class="cls-3" transform="translate(94 63)">
          <rect class="cls-7" width="19" height="1" rx="0.5"/>
          <rect class="cls-8" x="0.5" y="0.5" width="18"/>
        </g>
        <g id="사각형_6519" data-name="사각형 6519" class="cls-3" transform="translate(94 69)">
          <rect class="cls-7" width="19" height="1" rx="0.5"/>
          <rect class="cls-8" x="0.5" y="0.5" width="18"/>
        </g>
        <g id="사각형_6518" data-name="사각형 6518" class="cls-4" transform="translate(79 57)">
          <rect class="cls-7" width="13" height="13" rx="2"/>
          <rect class="cls-8" x="0.5" y="0.5" width="12" height="12" rx="1.5"/>
        </g>
        <g id="패스_91652" data-name="패스 91652" class="cls-5" transform="translate(-2.828 -0.144)">
          <path class="cls-7" d="M 99.250732421875 97.64352416992188 C 94.85163879394531 97.64352416992188 89.38458251953125 97.17675018310547 87.77660369873047 96.15190124511719 C 85.92726898193359 94.97322082519531 85.8359375 94.15896606445312 85.84010314941406 92.92804718017578 C 85.84206390380859 92.34923553466797 85.84427642822266 91.69321441650391 85.56694793701172 90.77349090576172 C 85.36199188232422 90.09381866455078 84.99300384521484 89.11904907226562 84.56575775146484 87.99036407470703 C 83.29778289794922 84.6407470703125 81.38162231445312 79.57876586914062 81.33100891113281 75.67639923095703 C 81.29200744628906 72.66886901855469 81.63179779052734 70.96582794189453 82.43276214599609 70.15441131591797 C 82.76737213134766 69.8154296875 83.17353820800781 69.64354705810547 83.63996887207031 69.64354705810547 L 83.6649169921875 69.64353942871094 L 83.69328308105469 69.64351654052734 C 84.19812774658203 69.64351654052734 85.73439788818359 69.64351654052734 86.96690368652344 71.18965911865234 C 88.05643463134766 72.55643463134766 88.05120086669922 75.33348846435547 88.03562164306641 75.95291137695312 L 90.20016479492188 80.88256072998047 C 90.85028839111328 80.88692474365234 92.48026275634766 81.01161193847656 94.34925842285156 82.01031494140625 C 96.43231201171875 83.1234130859375 98.79019165039062 85.29529571533203 99.40250396728516 85.87474060058594 L 111.8280181884766 85.87474060058594 L 112.3643493652344 85.87474060058594 L 112.3267822265625 86.40974426269531 C 112.3214645385742 86.48558044433594 112.1915130615234 88.29087829589844 111.7647476196289 90.38066101074219 C 111.1780242919922 93.25365447998047 110.3376159667969 95.18067932128906 109.2668685913086 96.10818481445312 C 108.6479949951172 96.64424896240234 107.3745346069336 97.03418731689453 105.3737030029297 97.30028533935547 C 103.6852569580078 97.52484130859375 101.5679626464844 97.64352416992188 99.250732421875 97.64352416992188 Z"/>
          <path class="cls-9" d="M 99.250732421875 97.14352416992188 C 103.6166915893555 97.14352416992188 107.8073348999023 96.71094512939453 108.9394989013672 95.73025512695312 C 111.3157653808594 93.67189025878906 111.8280181884766 86.37474060058594 111.8280181884766 86.37474060058594 L 99.20197296142578 86.37474060058594 C 99.20197296142578 86.37474060058594 96.44461822509766 83.6968994140625 94.11360931396484 82.45130920410156 C 91.7825927734375 81.20571136474609 89.8779296875 81.39236450195312 89.87793731689453 81.39236450195312 L 87.53213500976562 76.04991149902344 C 87.53213500976562 76.04991149902344 87.67726898193359 72.88292694091797 86.575927734375 71.50132751464844 C 85.47457885742188 70.11972808837891 84.14621734619141 70.14340209960938 83.63996887207031 70.14354705810547 C 82.08637237548828 70.14354705810547 81.79411315917969 72.82833099365234 81.83096313476562 75.66991424560547 C 81.89713287353516 80.77151489257812 85.21372222900391 87.87018585205078 86.045654296875 90.62913513183594 C 86.87758636474609 93.38807678222656 85.37498474121094 94.02830505371094 88.04533386230469 95.73025512695312 C 89.44342041015625 96.62132263183594 94.45298767089844 97.14352416992188 99.250732421875 97.14352416992188 M 99.250732421875 98.14352416992188 C 95.80413818359375 98.14352416992188 89.45235443115234 97.8128662109375 87.50786590576172 96.57353973388672 C 86.53916931152344 95.95613861083984 85.96703338623047 95.396484375 85.65278625488281 94.75892639160156 C 85.33608245849609 94.11638641357422 85.33812713623047 93.51140594482422 85.34010314941406 92.92636108398438 C 85.34203338623047 92.35594940185547 85.34402465820312 91.76612854003906 85.08823394775391 90.91783905029297 C 84.88826751708984 90.25468444824219 84.52211761474609 89.28739929199219 84.09813690185547 88.16738128662109 C 82.8177490234375 84.78495025634766 80.88280487060547 79.67337036132812 80.83104705810547 75.68288421630859 C 80.79017639160156 72.53081512451172 81.17441558837891 70.71744537353516 82.07692718505859 69.80316162109375 C 82.50288391113281 69.37163543701172 83.04337310791016 69.14354705810547 83.63996887207031 69.14354705810547 L 83.69328308105469 69.14351654052734 C 84.25768280029297 69.14351654052734 85.97523498535156 69.14351654052734 87.35787200927734 70.87799072265625 C 88.50239562988281 72.31375122070312 88.55363464355469 74.99212646484375 88.53835296630859 75.85419464111328 L 90.53128814697266 80.39302062988281 C 91.35604858398438 80.43845367431641 92.88021850585938 80.65840911865234 94.58490753173828 81.56932830810547 C 96.57968139648438 82.63525390625 98.80558013916016 84.63344573974609 99.60041046142578 85.37474060058594 L 112.9006729125977 85.37474060058594 L 112.825569152832 86.44477081298828 C 112.8201446533203 86.52192687988281 112.6879043579102 88.35905456542969 112.254638671875 90.48069763183594 C 111.6453475952148 93.46422576904297 110.7502593994141 95.48474884033203 109.59423828125 96.48611450195312 C 108.6684875488281 97.28800964355469 106.7797546386719 97.61769866943359 105.4396133422852 97.79592895507812 C 103.7297058105469 98.02333068847656 101.5896224975586 98.14352416992188 99.250732421875 98.14352416992188 Z"/>
        </g>
      </g>
      <g id="check-fill" transform="translate(155 33.468)">
        <rect id="사각형_6508" data-name="사각형 6508" width="24" height="24" rx="12" transform="translate(-2 -1.468)"/>
        <path id="패스_91651" data-name="패스 91651" class="cls-6" d="M44.174,72a.532.532,0,0,1-.369-.146l-3.652-3.5a.485.485,0,0,1,0-.707.538.538,0,0,1,.738,0L44.174,70.8l6.935-6.646a.538.538,0,0,1,.738,0,.485.485,0,0,1,0,.707l-7.3,7A.532.532,0,0,1,44.174,72Z" transform="translate(-36 -56.47)"/>
      </g>
    </g>
  </g>
</svg>
