<svg xmlns="http://www.w3.org/2000/svg" xmlns:xlink="http://www.w3.org/1999/xlink" width="122" height="122" viewBox="0 0 122 122">
  <defs>
    <style>
      .cls-1 {
        fill: #f7f7f7;
        stroke: #dfdfdf;
      }

      .cls-2 {
        clip-path: url(#clip-path);
      }

      .cls-3, .cls-4, .cls-7, .cls-8 {
        fill: #fff;
      }

      .cls-4, .cls-5 {
        stroke: #000;
      }

      .cls-6, .cls-8 {
        stroke: #fff;
      }

      .cls-7 {
        stroke-linejoin: round;
      }

      .cls-8 {
        stroke-width: 0.5px;
      }

      .cls-11, .cls-9 {
        stroke: none;
      }

      .cls-10 {
        fill: none;
      }

      .cls-11 {
        fill: #000;
      }
    </style>
    <clipPath id="clip-path">
      <circle id="bg" class="cls-1" cx="60" cy="60" r="60" transform="translate(105 25)"/>
    </clipPath>
  </defs>
  <g id="img" transform="translate(-104 -24)">
    <g id="bg-2" data-name="bg" class="cls-1" transform="translate(105 25)">
      <circle class="cls-9" cx="60" cy="60" r="60"/>
      <circle class="cls-10" cx="60" cy="60" r="60.5"/>
    </g>
    <g id="mask" class="cls-2">
      <g id="arm_with_paper" data-name="arm with paper" transform="translate(44.902 22.927)">
        <path id="교차_1" data-name="교차 1" d="M-12206.5-9627.454V-9653a6,6,0,0,1,6-6h18a6,6,0,0,1,6,6v27.5a6.014,6.014,0,0,1-.093,1.06,59.92,59.92,0,0,1-9.163.7A59.365,59.365,0,0,1-12206.5-9627.454Z" transform="translate(12287 9751)"/>
        <g id="패스_91652" data-name="패스 91652" class="cls-3" transform="translate(-2.828 -0.144)">
          <path class="cls-9" d="M 99.250732421875 97.64353179931641 C 94.85163879394531 97.64353179931641 89.38458251953125 97.17675018310547 87.77660369873047 96.15190124511719 C 85.92726898193359 94.97322082519531 85.8359375 94.15896606445312 85.84010314941406 92.92804718017578 C 85.84206390380859 92.3492431640625 85.84427642822266 91.69322204589844 85.56694793701172 90.77349090576172 C 85.36199188232422 90.09381866455078 84.99300384521484 89.11904907226562 84.56575775146484 87.99037170410156 C 83.29778289794922 84.6407470703125 81.38162231445312 79.57877349853516 81.33100891113281 75.67639923095703 C 81.29200744628906 72.66886901855469 81.63179779052734 70.96582794189453 82.43276214599609 70.15441131591797 C 82.76737213134766 69.8154296875 83.17353820800781 69.64354705810547 83.63996887207031 69.64354705810547 L 83.6649169921875 69.64353942871094 L 83.69328308105469 69.64351654052734 C 84.19812774658203 69.64351654052734 85.73439788818359 69.64351654052734 86.96690368652344 71.18965911865234 C 86.99219512939453 71.22138977050781 87.01689910888672 71.25387573242188 87.04103088378906 71.28707885742188 C 87.04789733886719 71.27635955810547 87.05486297607422 71.26591491699219 87.06190490722656 71.25576782226562 C 87.21922302246094 71.02900695800781 87.45579528808594 70.90412139892578 87.72803497314453 70.90412139892578 C 87.90339660644531 70.90412139892578 88.08426666259766 70.95522308349609 88.28098297119141 71.06034088134766 C 88.38234710693359 71.11450958251953 88.74445343017578 71.24050140380859 89.91459655761719 71.24050140380859 C 95.62649536132812 71.24050140380859 111.5753784179688 68.26036071777344 111.7358093261719 68.23026275634766 L 112.3280181884766 68.119140625 L 112.3280181884766 68.7216796875 L 112.3280181884766 87.4208984375 L 112.3280181884766 90.62914276123047 L 112.3280181884766 90.67398834228516 L 112.3200378417969 90.71813201904297 C 112.2959976196289 90.85105133056641 111.703239440918 93.99774932861328 109.2668685913086 96.10819244384766 C 108.6479949951172 96.64424896240234 107.3745346069336 97.03418731689453 105.3737030029297 97.30029296875 C 103.6852569580078 97.52484130859375 101.5679626464844 97.64353179931641 99.250732421875 97.64353179931641 Z"/>
          <path class="cls-11" d="M 99.250732421875 97.14352416992188 C 103.6166915893555 97.14352416992188 107.8073348999023 96.71094512939453 108.9394989013672 95.73026275634766 C 111.2706146240234 93.71099853515625 111.8280181884766 90.62914276123047 111.8280181884766 90.62914276123047 L 111.8280181884766 68.7216796875 C 111.8280181884766 68.7216796875 90.3763427734375 72.74693298339844 88.04533386230469 71.50132751464844 C 85.71425628662109 70.25580596923828 89.87793731689453 81.39235687255859 89.87793731689453 81.39235687255859 L 87.53213500976562 76.04991149902344 C 87.53213500976562 76.04991149902344 87.67726898193359 72.88292694091797 86.575927734375 71.50132751464844 C 85.47457885742188 70.11972808837891 84.14621734619141 70.14340209960938 83.63996887207031 70.14354705810547 C 82.08637237548828 70.14354705810547 81.79411315917969 72.82833099365234 81.83096313476562 75.669921875 C 81.89713287353516 80.77152252197266 85.21372222900391 87.87019348144531 86.045654296875 90.62914276123047 C 86.87758636474609 93.38807678222656 85.37498474121094 94.02831268310547 88.04533386230469 95.73026275634766 C 89.44342041015625 96.62133026123047 94.45298767089844 97.14352416992188 99.250732421875 97.14352416992188 M 99.250732421875 98.14353179931641 C 95.80413818359375 98.14353179931641 89.45235443115234 97.8128662109375 87.50786590576172 96.57353973388672 C 86.53916931152344 95.95613861083984 85.96703338623047 95.39649200439453 85.65278625488281 94.75892639160156 C 85.33608245849609 94.11638641357422 85.33812713623047 93.51141357421875 85.34010314941406 92.92636108398438 C 85.34203338623047 92.35594940185547 85.34402465820312 91.76612854003906 85.08823394775391 90.91783905029297 C 84.88826751708984 90.25469207763672 84.52211761474609 89.28739929199219 84.09813690185547 88.16738128662109 C 82.8177490234375 84.78495025634766 80.88280487060547 79.67337036132812 80.83104705810547 75.68289184570312 C 80.79017639160156 72.53082275390625 81.17441558837891 70.71745300292969 82.07692718505859 69.80316162109375 C 82.50288391113281 69.37164306640625 83.04337310791016 69.14354705810547 83.63996887207031 69.14354705810547 L 83.69328308105469 69.14351654052734 C 84.22186279296875 69.14351654052734 85.76190948486328 69.14360046386719 87.09098815917969 70.56829833984375 C 87.28185272216797 70.46143341064453 87.49912261962891 70.40412139892578 87.72803497314453 70.40412139892578 C 87.98213958740234 70.40412139892578 88.24541473388672 70.4754638671875 88.51066589355469 70.61618041992188 C 88.54087066650391 70.62862396240234 88.84271240234375 70.74050140380859 89.91459655761719 70.74050140380859 C 95.58004760742188 70.74050140380859 111.4836120605469 67.76885223388672 111.6436080932617 67.73883056640625 L 112.8280029296875 67.5166015625 L 112.8280181884766 90.71884155273438 L 112.8120422363281 90.80712127685547 C 112.7867279052734 90.94712066650391 112.1623687744141 94.26155090332031 109.59423828125 96.48612213134766 C 108.6684875488281 97.28800964355469 106.7797546386719 97.61769866943359 105.4396133422852 97.79592895507812 C 103.7297058105469 98.02333068847656 101.5896224975586 98.14353179931641 99.250732421875 98.14353179931641 Z"/>
        </g>
        <g id="card" transform="translate(0 -7)">
          <g id="사각형_6509" data-name="사각형 6509" class="cls-4" transform="translate(74 56)">
            <rect class="cls-9" width="44" height="30" rx="2"/>
            <rect class="cls-10" x="0.5" y="0.5" width="43" height="29" rx="1.5"/>
          </g>
          <g id="사각형_6511" data-name="사각형 6511" class="cls-5" transform="translate(73.896 59.426)">
            <rect class="cls-9" width="44" height="5"/>
            <rect class="cls-10" x="0.5" y="0.5" width="43" height="4"/>
          </g>
          <g id="사각형_6512" data-name="사각형 6512" class="cls-4" transform="translate(95.293 66.018)">
            <rect class="cls-9" width="20.325" height="1" rx="0.5"/>
            <rect class="cls-10" x="0.5" y="0.5" width="19.325"/>
          </g>
          <g id="사각형_6527" data-name="사각형 6527" class="cls-4" transform="translate(104.313 68.443)">
            <rect class="cls-9" width="11.325" height="1" rx="0.5"/>
            <rect class="cls-10" x="0.5" y="0.5" width="10.325"/>
          </g>
          <g id="타원_255" data-name="타원 255" class="cls-6" transform="matrix(0.559, -0.829, 0.829, 0.559, 105.615, 79.877)">
            <circle class="cls-9" cx="4" cy="4" r="4"/>
            <circle class="cls-10" cx="4" cy="4" r="3.5"/>
          </g>
          <g id="타원_256" data-name="타원 256" class="cls-6" transform="matrix(0.559, -0.829, 0.829, 0.559, 100.621, 80.127)">
            <circle class="cls-9" cx="4" cy="4" r="4"/>
            <circle class="cls-10" cx="4" cy="4" r="3.5"/>
          </g>
        </g>
        <g id="패스_91656" data-name="패스 91656" class="cls-3" transform="translate(-2.488 1.527)">
          <path class="cls-9" d="M 95.43137359619141 96.38619995117188 C 91.6370849609375 96.38619995117188 89.0616455078125 95.97093200683594 87.77660369873047 95.15190124511719 C 86.84466552734375 94.55792999267578 86.40275573730469 94.20616912841797 86.14608764648438 93.85401916503906 C 85.83636474609375 93.42909240722656 85.83817291259766 93.04305267333984 85.84009552001953 92.63435363769531 C 85.84206390380859 92.21539306640625 85.84451293945312 91.69399261474609 85.56694793701172 90.77348327636719 C 85.36199951171875 90.09381103515625 84.99301910400391 89.11905670166016 84.56576538085938 87.99037933349609 C 83.29779815673828 84.64076232910156 81.38162994384766 79.57878112792969 81.33100891113281 75.67639923095703 C 81.29200744628906 72.66886901855469 81.63179779052734 70.96582794189453 82.43276977539062 70.15441131591797 C 82.76737976074219 69.8154296875 83.17353820800781 69.64354705810547 83.63996887207031 69.64354705810547 L 83.6649169921875 69.64353942871094 L 83.69328308105469 69.64352416992188 C 84.19812774658203 69.64352416992188 85.73439788818359 69.64352416992188 86.96690368652344 71.18965911865234 C 88.05643463134766 72.55643463134766 88.05120086669922 75.33349609375 88.03562164306641 75.95291900634766 L 90.23345184326172 80.95835876464844 C 90.84844970703125 81.09786987304688 92.48318481445312 81.49771118164062 94.24139404296875 82.16954803466797 C 97.26233673095703 83.32389831542969 99.08843994140625 84.67861938476562 99.66896820068359 86.19608306884766 C 100.9785842895508 89.61936187744141 99.74446868896484 95.60179901123047 99.6912841796875 95.85479736328125 L 99.61441802978516 96.22049713134766 L 99.24191284179688 96.25035095214844 C 99.22496795654297 96.251708984375 97.52265930175781 96.38619995117188 95.43137359619141 96.38619995117188 Z"/>
          <path class="cls-11" d="M 95.43137359619141 95.88620758056641 C 97.52684783935547 95.88620758056641 99.20197296142578 95.751953125 99.20197296142578 95.751953125 C 99.20197296142578 95.751953125 100.4740600585938 89.69991302490234 99.20197296142578 86.37474060058594 C 97.92988586425781 83.04958343505859 89.87793731689453 81.39235687255859 89.87793731689453 81.39235687255859 L 87.53213500976562 76.04991149902344 C 87.53213500976562 76.04991149902344 87.67726898193359 72.88292694091797 86.575927734375 71.50132751464844 C 85.47457885742188 70.11972808837891 84.14621734619141 70.14340209960938 83.63996887207031 70.14354705810547 C 82.08638000488281 70.14354705810547 81.79411315917969 72.82833099365234 81.83096313476562 75.669921875 C 81.89713287353516 80.77152252197266 85.21372985839844 87.87019348144531 86.045654296875 90.62912750244141 C 86.87758636474609 93.38807678222656 85.37498474121094 93.02829742431641 88.04533386230469 94.73026275634766 C 89.52947235107422 95.67617797851562 92.80959320068359 95.88620758056641 95.43137359619141 95.88620758056641 M 95.43137359619141 96.88619995117188 C 91.54034423828125 96.88619995117188 88.87449645996094 96.44455718994141 87.50787353515625 95.57354736328125 C 86.51786041259766 94.94255065917969 86.03925323486328 94.55632781982422 85.74202728271484 94.14852905273438 C 85.33560943603516 93.59091949462891 85.33799743652344 93.08148193359375 85.34010314941406 92.63200378417969 C 85.3419189453125 92.24642944335938 85.34416961669922 91.76657867431641 85.08823394775391 90.91783142089844 C 84.88827514648438 90.25467681884766 84.52211761474609 89.28740692138672 84.09814453125 88.16740417480469 C 82.81775665283203 84.78495788574219 80.88280487060547 79.67337799072266 80.83104705810547 75.68289184570312 C 80.79017639160156 72.53082275390625 81.17441558837891 70.71745300292969 82.07692718505859 69.80316162109375 C 82.50288391113281 69.37164306640625 83.04337310791016 69.14354705810547 83.63996887207031 69.14354705810547 L 83.69328308105469 69.14352416992188 C 84.25768280029297 69.14352416992188 85.97523498535156 69.14352416992188 87.35787963867188 70.87799072265625 C 88.50239562988281 72.31375885009766 88.55363464355469 74.99212646484375 88.53835296630859 75.85419464111328 L 90.59063720703125 80.52818298339844 C 91.34461975097656 80.70760345458984 92.83399963378906 81.09650421142578 94.41986846923828 81.70249176025391 C 97.57928466796875 82.90975189208984 99.50246429443359 84.36150360107422 100.1359634399414 86.01743316650391 C 101.4975662231445 89.57660675048828 100.2350082397461 95.69876861572266 100.1805953979492 95.95764923095703 L 100.02685546875 96.68904876708984 L 99.28186798095703 96.74874877929688 C 99.21183776855469 96.75437164306641 97.54257965087891 96.88619995117188 95.43137359619141 96.88619995117188 Z"/>
        </g>
      </g>
      <g id="gift" transform="translate(89 33.849)">
        <g id="사각형_6528" data-name="사각형 6528" class="cls-4" transform="translate(93 45.151)">
          <rect class="cls-9" width="47" height="9"/>
          <rect class="cls-10" x="0.5" y="0.5" width="46" height="8"/>
        </g>
        <g id="사각형_6529" data-name="사각형 6529" class="cls-4" transform="translate(96 53.151)">
          <rect class="cls-9" width="41" height="26"/>
          <rect class="cls-10" x="0.5" y="0.5" width="40" height="25"/>
        </g>
        <g id="사각형_6530" data-name="사각형 6530" class="cls-4" transform="translate(93 51.151)">
          <rect class="cls-9" width="47" height="3"/>
          <rect class="cls-10" x="0.5" y="0.5" width="46" height="2"/>
        </g>
        <g id="사각형_6531" data-name="사각형 6531" class="cls-4" transform="translate(112 53.151)">
          <rect class="cls-9" width="9" height="26"/>
          <rect class="cls-10" x="0.5" y="0.5" width="8" height="25"/>
        </g>
        <g id="사각형_6533" data-name="사각형 6533" class="cls-4" transform="translate(112 44.151)">
          <rect class="cls-9" width="9" height="10"/>
          <rect class="cls-10" x="0.5" y="0.5" width="8" height="9"/>
        </g>
        <g id="사각형_6532" data-name="사각형 6532" class="cls-4" transform="translate(137 62.151) rotate(90)">
          <rect class="cls-9" width="8" height="41"/>
          <rect class="cls-10" x="0.5" y="0.5" width="7" height="40"/>
        </g>
        <g id="패스_91654" data-name="패스 91654" class="cls-7" transform="translate(0.797 0.232)">
          <path class="cls-9" d="M 120.3729553222656 45.41894149780273 L 120.1481704711914 45.41894149780273 L 115.2031326293945 45.41894149780273 L 114.3561401367188 45.41894149780273 L 114.7653656005859 44.67737197875977 L 119.179931640625 36.67737197875977 L 119.457389831543 36.174560546875 L 119.917236328125 36.51859283447266 L 124.5026626586914 39.94919967651367 L 124.9379196166992 40.27484130859375 L 124.5771102905273 40.68142318725586 L 120.5221557617188 45.25081253051758 L 120.3729553222656 45.41894149780273 Z"/>
          <path class="cls-11" d="M 120.1481704711914 44.91894149780273 L 124.2031326293945 40.34955215454102 L 119.6177062988281 36.91894149780273 L 115.2031326293945 44.91894149780273 L 120.1481704711914 44.91894149780273 M 120.1481704711914 45.91894149780273 L 115.2031326293945 45.91894149780273 C 114.8493194580078 45.91894149780273 114.5218505859375 45.73198318481445 114.3419799804688 45.42730331420898 C 114.1621246337891 45.12261962890625 114.1566543579102 44.74557113647461 114.3275909423828 44.4358024597168 L 118.7421646118164 36.4358024597168 C 118.8819046020508 36.18257141113281 119.1244354248047 36.00224304199219 119.4071731567383 35.94135284423828 C 119.6899337768555 35.88046264648438 119.9851760864258 35.94496917724609 120.2167510986328 36.11823272705078 L 124.8021850585938 39.54884338378906 C 125.0261535644531 39.71641159057617 125.1697158813477 39.97011184692383 125.1980056762695 40.24839019775391 C 125.2263031005859 40.52667236328125 125.1367492675781 40.80409240722656 124.9510955810547 41.01330184936523 L 120.8961334228516 45.58269119262695 C 120.7063446044922 45.79655075073242 120.4340896606445 45.91894149780273 120.1481704711914 45.91894149780273 Z"/>
        </g>
        <g id="패스_91655" data-name="패스 91655" class="cls-7" transform="translate(-7.203 0.232)">
          <path class="cls-9" d="M 125.0501251220703 45.41894149780273 L 124.2031326293945 45.41894149780273 L 119.2580947875977 45.41894149780273 L 119.0333099365234 45.41894149780273 L 118.8841094970703 45.25081253051758 L 114.8291549682617 40.68142318725586 L 114.4683456420898 40.27484130859375 L 114.9036026000977 39.94919967651367 L 119.4890289306641 36.51859283447266 L 119.9488754272461 36.174560546875 L 120.2263336181641 36.67737197875977 L 124.6408996582031 44.67737197875977 L 125.0501251220703 45.41894149780273 Z"/>
          <path class="cls-11" d="M 124.2031326293945 44.91894149780273 L 119.7885589599609 36.91894149780273 L 115.2031326293945 40.34955215454102 L 119.2580947875977 44.91894149780273 L 124.2031326293945 44.91894149780273 M 124.2031326293945 45.91894149780273 L 119.2580947875977 45.91894149780273 C 118.9721755981445 45.91894149780273 118.6999206542969 45.79655075073242 118.5101318359375 45.58269119262695 L 114.4551696777344 41.01330184936523 C 114.2695159912109 40.80409240722656 114.1799621582031 40.52667236328125 114.2082595825195 40.24839019775391 C 114.2365493774414 39.97011184692383 114.3801116943359 39.71641159057617 114.6040802001953 39.54884338378906 L 119.1895141601562 36.11823272705078 C 119.4210968017578 35.94497299194336 119.7163619995117 35.88045883178711 119.9990921020508 35.94135284423828 C 120.2818298339844 36.00224304199219 120.5243606567383 36.18257141113281 120.6641006469727 36.4358024597168 L 125.0786743164062 44.4358024597168 C 125.2496109008789 44.74557113647461 125.244140625 45.12261962890625 125.0642852783203 45.42730331420898 C 124.8844146728516 45.73198318481445 124.5569458007812 45.91894149780273 124.2031326293945 45.91894149780273 Z"/>
        </g>
      </g>
      <g id="gift-2" data-name="gift" transform="translate(70 66.849)">
        <g id="사각형_6528-2" data-name="사각형 6528" class="cls-4" transform="translate(93 45.151)">
          <rect class="cls-9" width="47" height="9"/>
          <rect class="cls-10" x="0.5" y="0.5" width="46" height="8"/>
        </g>
        <g id="사각형_6529-2" data-name="사각형 6529" class="cls-4" transform="translate(96 53.151)">
          <rect class="cls-9" width="41" height="26"/>
          <rect class="cls-10" x="0.5" y="0.5" width="40" height="25"/>
        </g>
        <g id="사각형_6530-2" data-name="사각형 6530" class="cls-4" transform="translate(93 51.151)">
          <rect class="cls-9" width="47" height="3"/>
          <rect class="cls-10" x="0.5" y="0.5" width="46" height="2"/>
        </g>
        <g id="사각형_6531-2" data-name="사각형 6531" class="cls-4" transform="translate(112 53.151)">
          <rect class="cls-9" width="9" height="26"/>
          <rect class="cls-10" x="0.5" y="0.5" width="8" height="25"/>
        </g>
        <g id="사각형_6533-2" data-name="사각형 6533" class="cls-4" transform="translate(112 44.151)">
          <rect class="cls-9" width="9" height="10"/>
          <rect class="cls-10" x="0.5" y="0.5" width="8" height="9"/>
        </g>
        <g id="사각형_6532-2" data-name="사각형 6532" class="cls-4" transform="translate(137 62.151) rotate(90)">
          <rect class="cls-9" width="8" height="41"/>
          <rect class="cls-10" x="0.5" y="0.5" width="7" height="40"/>
        </g>
        <g id="패스_91654-2" data-name="패스 91654" class="cls-7" transform="translate(0.797 0.232)">
          <path class="cls-9" d="M 120.3729553222656 45.41894149780273 L 120.1481704711914 45.41894149780273 L 115.2031326293945 45.41894149780273 L 114.3561401367188 45.41894149780273 L 114.7653656005859 44.67737197875977 L 119.179931640625 36.67737197875977 L 119.457389831543 36.174560546875 L 119.917236328125 36.51859283447266 L 124.5026626586914 39.94919967651367 L 124.9379196166992 40.27484130859375 L 124.5771102905273 40.68142318725586 L 120.5221557617188 45.25081253051758 L 120.3729553222656 45.41894149780273 Z"/>
          <path class="cls-11" d="M 120.1481704711914 44.91894149780273 L 124.2031326293945 40.34955215454102 L 119.6177062988281 36.91894149780273 L 115.2031326293945 44.91894149780273 L 120.1481704711914 44.91894149780273 M 120.1481704711914 45.91894149780273 L 115.2031326293945 45.91894149780273 C 114.8493194580078 45.91894149780273 114.5218505859375 45.73198318481445 114.3419799804688 45.42730331420898 C 114.1621246337891 45.12261962890625 114.1566543579102 44.74557113647461 114.3275909423828 44.4358024597168 L 118.7421646118164 36.4358024597168 C 118.8819046020508 36.18257141113281 119.1244354248047 36.00224304199219 119.4071731567383 35.94135284423828 C 119.6899337768555 35.88046264648438 119.9851760864258 35.94496917724609 120.2167510986328 36.11823272705078 L 124.8021850585938 39.54884338378906 C 125.0261535644531 39.71641159057617 125.1697158813477 39.97011184692383 125.1980056762695 40.24839019775391 C 125.2263031005859 40.52667236328125 125.1367492675781 40.80409240722656 124.9510955810547 41.01330184936523 L 120.8961334228516 45.58269119262695 C 120.7063446044922 45.79655075073242 120.4340896606445 45.91894149780273 120.1481704711914 45.91894149780273 Z"/>
        </g>
        <g id="패스_91655-2" data-name="패스 91655" class="cls-7" transform="translate(-7.203 0.232)">
          <path class="cls-9" d="M 125.0501251220703 45.41894149780273 L 124.2031326293945 45.41894149780273 L 119.2580947875977 45.41894149780273 L 119.0333099365234 45.41894149780273 L 118.8841094970703 45.25081253051758 L 114.8291549682617 40.68142318725586 L 114.4683456420898 40.27484130859375 L 114.9036026000977 39.94919967651367 L 119.4890289306641 36.51859283447266 L 119.9488754272461 36.174560546875 L 120.2263336181641 36.67737197875977 L 124.6408996582031 44.67737197875977 L 125.0501251220703 45.41894149780273 Z"/>
          <path class="cls-11" d="M 124.2031326293945 44.91894149780273 L 119.7885589599609 36.91894149780273 L 115.2031326293945 40.34955215454102 L 119.2580947875977 44.91894149780273 L 124.2031326293945 44.91894149780273 M 124.2031326293945 45.91894149780273 L 119.2580947875977 45.91894149780273 C 118.9721755981445 45.91894149780273 118.6999206542969 45.79655075073242 118.5101318359375 45.58269119262695 L 114.4551696777344 41.01330184936523 C 114.2695159912109 40.80409240722656 114.1799621582031 40.52667236328125 114.2082595825195 40.24839019775391 C 114.2365493774414 39.97011184692383 114.3801116943359 39.71641159057617 114.6040802001953 39.54884338378906 L 119.1895141601562 36.11823272705078 C 119.4210968017578 35.94497299194336 119.7163619995117 35.88045883178711 119.9990921020508 35.94135284423828 C 120.2818298339844 36.00224304199219 120.5243606567383 36.18257141113281 120.6641006469727 36.4358024597168 L 125.0786743164062 44.4358024597168 C 125.2496109008789 44.74557113647461 125.244140625 45.12261962890625 125.0642852783203 45.42730331420898 C 124.8844146728516 45.73198318481445 124.5569458007812 45.91894149780273 124.2031326293945 45.91894149780273 Z"/>
        </g>
      </g>
      <g id="gift-3" data-name="gift" transform="translate(110 66.849)">
        <g id="사각형_6528-3" data-name="사각형 6528" class="cls-4" transform="translate(93 45.151)">
          <rect class="cls-9" width="47" height="9"/>
          <rect class="cls-10" x="0.5" y="0.5" width="46" height="8"/>
        </g>
        <g id="사각형_6529-3" data-name="사각형 6529" class="cls-4" transform="translate(96 53.151)">
          <rect class="cls-9" width="41" height="26"/>
          <rect class="cls-10" x="0.5" y="0.5" width="40" height="25"/>
        </g>
        <g id="사각형_6530-3" data-name="사각형 6530" class="cls-4" transform="translate(93 51.151)">
          <rect class="cls-9" width="47" height="3"/>
          <rect class="cls-10" x="0.5" y="0.5" width="46" height="2"/>
        </g>
        <g id="사각형_6531-3" data-name="사각형 6531" class="cls-4" transform="translate(112 53.151)">
          <rect class="cls-9" width="9" height="26"/>
          <rect class="cls-10" x="0.5" y="0.5" width="8" height="25"/>
        </g>
        <g id="사각형_6533-3" data-name="사각형 6533" class="cls-4" transform="translate(112 44.151)">
          <rect class="cls-9" width="9" height="10"/>
          <rect class="cls-10" x="0.5" y="0.5" width="8" height="9"/>
        </g>
        <g id="사각형_6532-3" data-name="사각형 6532" class="cls-4" transform="translate(137 62.151) rotate(90)">
          <rect class="cls-9" width="8" height="41"/>
          <rect class="cls-10" x="0.5" y="0.5" width="7" height="40"/>
        </g>
        <g id="패스_91654-3" data-name="패스 91654" class="cls-7" transform="translate(0.797 0.232)">
          <path class="cls-9" d="M 120.3729553222656 45.41894149780273 L 120.1481704711914 45.41894149780273 L 115.2031326293945 45.41894149780273 L 114.3561401367188 45.41894149780273 L 114.7653656005859 44.67737197875977 L 119.179931640625 36.67737197875977 L 119.457389831543 36.174560546875 L 119.917236328125 36.51859283447266 L 124.5026626586914 39.94919967651367 L 124.9379196166992 40.27484130859375 L 124.5771102905273 40.68142318725586 L 120.5221557617188 45.25081253051758 L 120.3729553222656 45.41894149780273 Z"/>
          <path class="cls-11" d="M 120.1481704711914 44.91894149780273 L 124.2031326293945 40.34955215454102 L 119.6177062988281 36.91894149780273 L 115.2031326293945 44.91894149780273 L 120.1481704711914 44.91894149780273 M 120.1481704711914 45.91894149780273 L 115.2031326293945 45.91894149780273 C 114.8493194580078 45.91894149780273 114.5218505859375 45.73198318481445 114.3419799804688 45.42730331420898 C 114.1621246337891 45.12261962890625 114.1566543579102 44.74557113647461 114.3275909423828 44.4358024597168 L 118.7421646118164 36.4358024597168 C 118.8819046020508 36.18257141113281 119.1244354248047 36.00224304199219 119.4071731567383 35.94135284423828 C 119.6899337768555 35.88046264648438 119.9851760864258 35.94496917724609 120.2167510986328 36.11823272705078 L 124.8021850585938 39.54884338378906 C 125.0261535644531 39.71641159057617 125.1697158813477 39.97011184692383 125.1980056762695 40.24839019775391 C 125.2263031005859 40.52667236328125 125.1367492675781 40.80409240722656 124.9510955810547 41.01330184936523 L 120.8961334228516 45.58269119262695 C 120.7063446044922 45.79655075073242 120.4340896606445 45.91894149780273 120.1481704711914 45.91894149780273 Z"/>
        </g>
        <g id="패스_91655-3" data-name="패스 91655" class="cls-7" transform="translate(-7.203 0.232)">
          <path class="cls-9" d="M 125.0501251220703 45.41894149780273 L 124.2031326293945 45.41894149780273 L 119.2580947875977 45.41894149780273 L 119.0333099365234 45.41894149780273 L 118.8841094970703 45.25081253051758 L 114.8291549682617 40.68142318725586 L 114.4683456420898 40.27484130859375 L 114.9036026000977 39.94919967651367 L 119.4890289306641 36.51859283447266 L 119.9488754272461 36.174560546875 L 120.2263336181641 36.67737197875977 L 124.6408996582031 44.67737197875977 L 125.0501251220703 45.41894149780273 Z"/>
          <path class="cls-11" d="M 124.2031326293945 44.91894149780273 L 119.7885589599609 36.91894149780273 L 115.2031326293945 40.34955215454102 L 119.2580947875977 44.91894149780273 L 124.2031326293945 44.91894149780273 M 124.2031326293945 45.91894149780273 L 119.2580947875977 45.91894149780273 C 118.9721755981445 45.91894149780273 118.6999206542969 45.79655075073242 118.5101318359375 45.58269119262695 L 114.4551696777344 41.01330184936523 C 114.2695159912109 40.80409240722656 114.1799621582031 40.52667236328125 114.2082595825195 40.24839019775391 C 114.2365493774414 39.97011184692383 114.3801116943359 39.71641159057617 114.6040802001953 39.54884338378906 L 119.1895141601562 36.11823272705078 C 119.4210968017578 35.94497299194336 119.7163619995117 35.88045883178711 119.9990921020508 35.94135284423828 C 120.2818298339844 36.00224304199219 120.5243606567383 36.18257141113281 120.6641006469727 36.4358024597168 L 125.0786743164062 44.4358024597168 C 125.2496109008789 44.74557113647461 125.244140625 45.12261962890625 125.0642852783203 45.42730331420898 C 124.8844146728516 45.73198318481445 124.5569458007812 45.91894149780273 124.2031326293945 45.91894149780273 Z"/>
        </g>
      </g>
      <g id="check-fill" transform="translate(153 33.468)">
        <rect id="사각형_6508" data-name="사각형 6508" width="24" height="24" rx="12" transform="translate(-2 -1.468)"/>
        <path id="패스_91651" data-name="패스 91651" class="cls-8" d="M44.174,72a.532.532,0,0,1-.369-.146l-3.652-3.5a.485.485,0,0,1,0-.707.538.538,0,0,1,.738,0L44.174,70.8l6.935-6.646a.538.538,0,0,1,.738,0,.485.485,0,0,1,0,.707l-7.3,7A.532.532,0,0,1,44.174,72Z" transform="translate(-36 -56.47)"/>
      </g>
    </g>
  </g>
</svg>
