<svg xmlns="http://www.w3.org/2000/svg" width="60" height="60" viewBox="0 0 60 60">
    <path data-name="Path 2478" d="M0 30a30 30 0 1 1 30 30A30 30 0 0 1 0 30z" style="fill-rule:evenodd"/>
    <path data-name="Path 2479" d="M34.884 15.7a7.734 7.734 0 0 0 1.7-5.7 8.249 8.249 0 0 0-5.337 2.889 7.153 7.153 0 0 0-1.747 5.562 6.956 6.956 0 0 0 5.384-2.751zM45 35.769a25.382 25.382 0 0 1-2.268 4.258c-1.472 2.257-3.547 5.068-6.121 5.089-2.285.025-2.874-1.5-5.976-1.479s-3.748 1.507-6.037 1.485c-2.572-.023-4.539-2.559-6.01-4.816C14.469 34 14.036 26.6 16.575 22.657a9.11 9.11 0 0 1 7.333-4.432c2.724 0 4.438 1.5 6.694 1.5 2.188 0 3.52-1.507 6.671-1.507a8.89 8.89 0 0 1 6.71 3.562A7.741 7.741 0 0 0 45 35.769z" style="fill:#fff;fill-rule:evenodd"/>
</svg>
