<svg xmlns="http://www.w3.org/2000/svg" width="26.131" height="32.813" viewBox="0 0 26.131 32.813">
    <path data-name="Path 91571" d="M24.969 19.335h-.017a1.848 1.848 0 0 0-.353-.047 1.757 1.757 0 0 0-.232-.03h-8.081a1.8 1.8 0 0 0-.226.022 1.932 1.932 0 0 0-.25.006l-6.753.591-1.182-3.249h10.469a1.539 1.539 0 0 0 1.572-1.572v-.018a1.539 1.539 0 0 0-1.572-1.572H6.729l-2-5.5-.007-.018v-5.59a2.357 2.357 0 1 0-4.715 0v5.885a3 3 0 0 0 .164.862 2.956 2.956 0 0 0 .128.47l5.473 15.037a3 3 0 0 0 .45.755 2.142 2.142 0 0 0 1.9.911h5.007v4.039H6.675a1.155 1.155 0 0 0-1.179 1.179v.14a1.154 1.154 0 0 0 1.179 1.179h16.02a1.154 1.154 0 0 0 1.179-1.179v-.14a1.154 1.154 0 0 0-1.179-1.179h-6.454v-4.039h7.225a1.449 1.449 0 0 0 1.578-1.157l1.034-3.859a1.539 1.539 0 0 0-1.112-1.924"/>
</svg>
