<svg id="ic_check_check" xmlns="http://www.w3.org/2000/svg" width="20" height="20" viewBox="0 0 20 20">
  <g id="패스_2477" data-name="패스 2477" fill="#34041f">
    <path d="M 16 19.5 L 4 19.5 C 2.070090055465698 19.5 0.5 17.92991065979004 0.5 16 L 0.5 4 C 0.5 2.070090055465698 2.070090055465698 0.5 4 0.5 L 16 0.5 C 17.92991065979004 0.5 19.5 2.070090055465698 19.5 4 L 19.5 16 C 19.5 17.92991065979004 17.92991065979004 19.5 16 19.5 Z" stroke="none"/>
    <path d="M 4 1 C 2.345790863037109 1 1 2.345790863037109 1 4 L 1 16 C 1 17.65420913696289 2.345790863037109 19 4 19 L 16 19 C 17.65420913696289 19 19 17.65420913696289 19 16 L 19 4 C 19 2.345790863037109 17.65420913696289 1 16 1 L 4 1 M 4 0 L 16 0 C 18.20914077758789 0 20 1.790859222412109 20 4 L 20 16 C 20 18.20914077758789 18.20914077758789 20 16 20 L 4 20 C 1.790859222412109 20 0 18.20914077758789 0 16 L 0 4 C 0 1.790859222412109 1.790859222412109 0 4 0 Z" stroke="none" fill="#34041f"/>
  </g>
  <g id="ic_check">
    <rect id="사각형_6355" data-name="사각형 6355" width="20" height="20" fill="none"/>
    <path id="check" d="M14.965,6,7.427,13.538,4,10.112" transform="translate(0.684 0.231)" fill="none" stroke="#fff" stroke-linecap="round" stroke-linejoin="round" stroke-width="1.5"/>
  </g>
</svg>
