<svg xmlns="http://www.w3.org/2000/svg" width="30" height="30" viewBox="0 0 30 30">
    <g data-name="그룹 9686">
        <path data-name="패스 2467" d="M6.75 10.938H3V17.5a1.874 1.874 0 0 0 1.875 1.875H6.75A1.874 1.874 0 0 0 8.625 17.5v-4.687a1.874 1.874 0 0 0-1.875-1.875z" style="stroke:#fff;stroke-linecap:round;stroke-linejoin:round;stroke-width:1.5px;fill:none"/>
        <path data-name="패스 2468" d="M23.25 10.938a1.874 1.874 0 0 0-1.875 1.875V17.5a1.874 1.874 0 0 0 1.875 1.875h1.875A1.874 1.874 0 0 0 27 17.5v-6.562z" style="stroke:#fff;stroke-linecap:round;stroke-linejoin:round;stroke-width:1.5px;fill:none"/>
        <path data-name="패스 2469" d="M3 10.938S3 3 15 3s12 7.937 12 7.937" style="stroke:#fff;stroke-linecap:round;stroke-linejoin:round;stroke-width:1.5px;fill:none"/>
        <path data-name="패스 2470" d="M27 18v3.943a3.329 3.329 0 0 1-1.84 2.977l-3.66 1.832a2.341 2.341 0 0 1-1.053.248H16v-3h4v2" style="stroke:#fff;stroke-linecap:round;stroke-linejoin:round;stroke-width:1.5px;fill:none"/>
    </g>
    <path data-name="사각형 6344" style="fill:none" d="M0 0h30v30H0z"/>
</svg>
