<svg xmlns="http://www.w3.org/2000/svg" width="30" height="30" viewBox="0 0 30 30">
    <path style="fill:none" d="M0 0h30v30H0z"/>
    <g data-name="그룹 10317">
        <g data-name="빼기 6" style="fill:none">
            <path d="M9652.906 22199h-20a2 2 0 0 1-2-2v-4a3 3 0 0 0 0-6v-4a2 2 0 0 1 2-2h20a2 2 0 0 1 2 2v4a3 3 0 0 0 0 6v4a2 2 0 0 1-2 2z" style="stroke:none" transform="translate(-9627.91 -22175)"/>
            <path d="M9652.906 22197.6a.6.6 0 0 0 .6-.6v-2.828a4.407 4.407 0 0 1-2.998-4.17 4.412 4.412 0 0 1 2.998-4.172v-2.83a.6.6 0 0 0-.6-.6h-19.995c-.33 0-.6.27-.6.6v2.828a4.412 4.412 0 0 1 2.998 4.174 4.407 4.407 0 0 1-2.998 4.168v2.83c0 .33.27.6.6.6h19.995m0 1.4h-19.995a2.003 2.003 0 0 1-2-2v-4a3.002 3.002 0 0 0 2.997-2.998 3.003 3.003 0 0 0-2.998-3.002v-4c0-1.102.898-2 2.001-2h19.995c1.103 0 2 .898 2 2v4a3 3 0 0 0 0 6v4c0 1.102-.897 2-2 2z" style="fill:#fff;stroke:none" transform="translate(-9627.91 -22175)"/>
        </g>
        <path data-name="합치기 18" d="M11495 23017.3v-1.6a.7.7 0 1 1 1.4 0v1.6a.7.7 0 1 1-1.4 0zm0-5v-2.6a.7.7 0 1 1 1.4 0v2.6a.7.7 0 1 1-1.4 0zm0-6v-1.6a.7.7 0 1 1 1.4 0v1.6a.7.7 0 0 1-1.4 0z" transform="translate(-11484.002 -22996)" style="fill:#fff"/>
    </g>
</svg>
