<svg xmlns="http://www.w3.org/2000/svg" width="20" height="20" viewBox="0 0 20 20">
    <path data-name="Rectangle 6339" style="fill:none" d="M0 0h20v20H0z"/>
    <path data-name="Icon ionic-ios-star" d="M16.643 7.018h-5.254l-1.6-4.764a.579.579 0 0 0-1.086 0l-1.6 4.764H1.821a.573.573 0 0 0-.571.571.42.42 0 0 0 .011.1.549.549 0 0 0 .239.4l4.318 3.043-1.657 4.818a.573.573 0 0 0 .2.643.553.553 0 0 0 .321.139.7.7 0 0 0 .357-.129l4.214-3 4.214 3a.669.669 0 0 0 .357.129.513.513 0 0 0 .318-.139.566.566 0 0 0 .2-.643l-1.657-4.818 4.282-3.071.1-.089a.6.6 0 0 0 .186-.382.6.6 0 0 0-.61-.572z" transform="translate(.75 .125)" style="fill:#5ba6d2"/>
</svg>
