<svg xmlns="http://www.w3.org/2000/svg" width="100" height="44.511" viewBox="0 0 100 44.511">
    <defs>
        <clipPath id="m1rvm06dsa">
            <path data-name="사각형 1448" style="fill:#fff" d="M0 0h100v44.511H0z"/>
        </clipPath>
        <clipPath id="perdu0gg4b">
            <path data-name="사각형 1451" style="fill:#fff" d="M0 0h99.687v44.511H0z"/>
        </clipPath>
    </defs>
    <g data-name="그룹 9063" style="clip-path:url(#m1rvm06dsa)">
        <g data-name="그룹 9068" style="clip-path:url(#perdu0gg4b)">
            <path data-name="패스 2404" d="M150.13 9.089s-.017-.123-.386-.158c0 0-.824.193-.841-.981s-.071-2.84 0-4.54a1.508 1.508 0 0 1 1-1.35s.351-.036.192-.456l-.1-.21s0-.176-.245-.141a16.679 16.679 0 0 1-3.068.035.361.361 0 0 0-.35.35s-.088.316.158.422a1.768 1.768 0 0 1 1.157 1.77c.052 1.35.07 3.225.07 3.225s-2-2.945-3.279-5.206a.914.914 0 0 0-.964-.561 27.864 27.864 0 0 1-3.873.018.374.374 0 0 0-.421.368.455.455 0 0 0 .211.526s1.051.666 1.051.894l-.017 4.891s.082 1.915-.425 1.666c0 0-.3.192-1.016-1.122a68.172 68.172 0 0 1-3.156-6.837s-.315-1.017-.963-1.017a1.982 1.982 0 0 0-.79.245 14.949 14.949 0 0 1-3.015 1.333.359.359 0 0 0-.246.456s-.052.263.333.4a1.618 1.618 0 0 1 .824.49 15.858 15.858 0 0 1-1.14 2.63c-.736 1.332-1.682 3.541-4.4 3.541h-1.069s-.28.034-.28-.351V6.6h.7s1.139-.245 1.682 1.228c0 0 .105.455.491.281a.453.453 0 0 0 .4-.491 19.479 19.479 0 0 1 .018-2.682.36.36 0 0 0-.316-.385.426.426 0 0 0-.491.088 2.022 2.022 0 0 1-1.647.77h-.819V2.778s-.017-.174.106-.192a3.39 3.39 0 0 1 2.541.333 3.942 3.942 0 0 1 1.14 1.28s.174.439.63.14c0 0 .352-.052.176-.6a17.492 17.492 0 0 1-.526-2.1.577.577 0 0 0-.649-.526 46 46 0 0 1-7.835.211.352.352 0 0 0-.439.3.394.394 0 0 0 .14.509s1.034.474 1.034 2.3v3.05s.176 2.42-.683 2.42c0 0-.369.157-1-1.086s-.666-1.281-.666-1.281a2.758 2.758 0 0 0-2.7-1.7s3.033-.508 2.753-2.788c0 0-.052-1.735-2.331-1.806h-.246a62.286 62.286 0 0 1-7.608.123.324.324 0 0 0-.4.28.345.345 0 0 0 .106.474 2.475 2.475 0 0 1 1.086 2.419v3.377s.158 1.859-1.121 2.56c0 0-.263.088-.123.456a.307.307 0 0 0 .386.281 32.189 32.189 0 0 1 5.277-.018s.245.018.315-.139a.911.911 0 0 1 .087-.175s.246-.246-.123-.491-.982-.613-1.034-2.174a7.363 7.363 0 0 1 0-1.594h.228s.788-.071 1.314 1.121c0 0 1.018 2.453 1.175 2.752a1.372 1.372 0 0 0 1.56.824 71.844 71.844 0 0 1 11.727.018.781.781 0 0 0 .824-.491s.947-2.543 1.175-2.946c0 0 2-.052 3.085-.034a3.3 3.3 0 0 1 .4 1.507 1.031 1.031 0 0 1-.718 1.018.353.353 0 0 0-.158.491.366.366 0 0 0 .4.315 54.146 54.146 0 0 1 8.222-.034s.315.123.42-.3a.338.338 0 0 0-.141-.491s-1.244-.279-1.244-2.26.018-3.383.018-3.383.947 1.349 2.068 3.365 1.718 2.876 1.718 2.876a1.2 1.2 0 0 0 1.665.508 32.751 32.751 0 0 0 2.981-1.718.325.325 0 0 0 .122-.455zM115.3 3.936c.009.158-.054 1.594-1.931 1.594V3.813s.018-1.28 1.034-1.28.888 1.244.9 1.4m16.616 2.751s.648-1.524.929-1.962a8.624 8.624 0 0 1 1.071 1.98 7.46 7.46 0 0 1-2-.019" transform="translate(-85.022 -.529)" style="fill:#fff"/>
            <path data-name="패스 2405" d="M330.579 10.555a2.1 2.1 0 0 1-1-1.91c-.071-1.49-.052-4.313-.052-4.313s-.071-1.576.928-2.067c0 0 .263-.122.123-.474a.366.366 0 0 0-.386-.3A37.514 37.514 0 0 1 325 1.51s-.351-.016-.42.281a.378.378 0 0 0 .122.508 2.589 2.589 0 0 1 1.068 2.384v3.033s.071 2.3-.788 2.139c0 0-.3.193-1.017-1.122a68.316 68.316 0 0 1-3.151-6.833S320.5.879 319.85.879a1.968 1.968 0 0 0-.789.246 15.015 15.015 0 0 1-3.015 1.332.359.359 0 0 0-.245.456s-.053.263.333.4a1.608 1.608 0 0 1 .824.491 15.869 15.869 0 0 1-1.139 2.629c-.737 1.332-1.385 3.278-3.12 4.155 0 0-.336.07-.228.473.122.455.35.333.35.333a11.125 11.125 0 0 1 3.085 0c.456.035.385-.333.385-.333a.293.293 0 0 0-.035-.368l-.193-.246s-.755-.193.315-2.348c0 0 2-.053 3.085-.036a3.31 3.31 0 0 1 .4 1.509 1.029 1.029 0 0 1-.719 1.017.354.354 0 0 0-.158.49.368.368 0 0 0 .4.316c.35-.035 6.171-.281 10.9.017a.421.421 0 0 0 .421-.281.442.442 0 0 0-.14-.579M316.905 6.84a15.657 15.657 0 0 1 .929-1.963 6.254 6.254 0 0 1 1.069 1.98 9.482 9.482 0 0 1-2-.017" transform="translate(-244.978 -.689)" style="fill:#fff"/>
            <path data-name="패스 2406" d="M414.337 11.9c-.42-.087-.736-.49-1.034-1.087s-.754-1.472-.754-1.472a2.769 2.769 0 0 0-2.612-1.541s2.753-.474 2.753-2.542-2.455-2.1-2.455-2.1h-.42a40.1 40.1 0 0 1-7.432.105.388.388 0 0 0-.509.35s-.035.316.158.439a2.418 2.418 0 0 1 1.034 2.244c.053 1.648.088 1.174.053 3.418 0 0 .139 2.156-1.087 2.683 0 0-.315.07-.14.526 0 0 .105.351.4.228a41.842 41.842 0 0 1 5.364.017s.28.106.368-.263c0 0 .228-.246-.123-.508a2.266 2.266 0 0 1-1.052-1.823c-.07-1.1-.052-1.981-.052-1.981h.245s.825-.106 1.385 1.192.946 2.244.946 2.244a2.989 2.989 0 0 0 .964 1.367s.246.227 1.157.123a9.185 9.185 0 0 0 2.963-.772.331.331 0 0 0 .228-.455s.07-.3-.351-.386M408.73 5.96c-.05.354-.141 1.56-1.93 1.56V5.8s.035-1.28 1-1.28.981 1.085.931 1.437" transform="translate(-315.064 -2.474)" style="fill:#fff"/>
            <path data-name="패스 2407" d="M23.591 8.788a2.564 2.564 0 0 0-4.9 1.061l.006 1.1a1.336 1.336 0 0 1-.7 1.175 2.282 2.282 0 0 1-1.79.174 4.152 4.152 0 0 1-.55-.215 3.639 3.639 0 0 1-.233-.119c-.045-.024-.092-.048-.136-.073a3.867 3.867 0 0 1-.286-.184c-.064-.044-.125-.093-.186-.141-.044-.035-.089-.069-.132-.106-.061-.05-.119-.1-.177-.158a2.355 2.355 0 0 1-.1-.1 4.315 4.315 0 0 1-1.26-3.052 4.393 4.393 0 0 1 .079-.831l.007-.039a4.942 4.942 0 0 1 .877-2.04 5.793 5.793 0 0 0-.61 6.149h-.01s0 .009.005.013l-.047.035s-.227.175-.684-.35-3.14-3.766-3.14-3.766a12.822 12.822 0 0 1 3.366-2.56s.438-.139.332-.526l-.07-.228s-.018-.245-.4-.193a21.546 21.546 0 0 1-4.032.018.447.447 0 0 0-.386.228s-.175.3 0 .473.807.614.807 1.21c0 0 .139.438-.825 1.139A21.838 21.838 0 0 1 6.451 8.25l.018-1.65a2.5 2.5 0 0 1 .947-2.033.267.267 0 0 0 .157-.333L7.5 4.06a.309.309 0 0 0-.351-.246 37.3 37.3 0 0 1-5.188.036.34.34 0 0 0-.315.157l-.071.14s-.123.315.071.455a2.308 2.308 0 0 1 1.037 2.069s.087 2.753-.035 3.822a3.1 3.1 0 0 1-1.07 2.437.388.388 0 0 0-.123.439l.123.228s.088.175.386.14a30.029 30.029 0 0 1 5.188-.037.222.222 0 0 0 .28-.122l.123-.246a.335.335 0 0 0-.123-.439 2.273 2.273 0 0 1-.981-1.84c-.017-1.087-.017-1.771-.017-1.771s.473.194 3 3.927a1.959 1.959 0 0 0 2.787.614 16.175 16.175 0 0 0 1.963-1.245l.06-.036a.031.031 0 0 1 0 .006l.007-.005a5.807 5.807 0 0 0 8.268.641l.013-.01A4.048 4.048 0 0 0 23.6 8.806z" transform="translate(-1.119 -2.985)" style="fill:#fff"/>
            <path data-name="패스 2408" d="m60.167 10.335-.011.017.019-.025z" transform="translate(-47.166 -8.097)" style="fill:#fff"/>
            <path data-name="패스 2409" d="M71.5 0a5.791 5.791 0 0 0-2.728.68h5.456A5.789 5.789 0 0 0 71.5 0" transform="translate(-53.917)" style="fill:#fff"/>
            <path data-name="패스 2410" d="M57.629 17.738a4.11 4.11 0 0 0-.044.592v.078h5.148v-.67z" transform="translate(-45.15 -13.908)" style="fill:#fff"/>
            <path data-name="패스 2411" d="M62.8 22.162h-5.14a4.02 4.02 0 0 0 .117.67H62.7a2.526 2.526 0 0 0 .094-.67" transform="translate(-45.209 -17.376)" style="fill:#fff"/>
            <path data-name="패스 2412" d="M106.847 26.583a4.293 4.293 0 0 1 .058.671h.229a5.856 5.856 0 0 0 .031-.6v-.075z" transform="translate(-83.774 -20.843)" style="fill:#fff"/>
            <path data-name="패스 2413" d="M69.984 4.465h-6.412a5.7 5.7 0 0 0-.614.469l-.013.011a3.51 3.51 0 0 0-.194.192h8.067a5.9 5.9 0 0 0-.833-.671" transform="translate(-49.2 -3.501)" style="fill:#fff"/>
            <path data-name="패스 2414" d="M63.346 26.583H58.6l.025.072.008.019a2.524 2.524 0 0 0 .365.58h3.94a2.6 2.6 0 0 0 .4-.671" transform="translate(-45.95 -20.843)" style="fill:#fff"/>
            <path data-name="패스 2415" d="M65.111 31.01h-3.387a2.561 2.561 0 0 0 3.387 0" transform="translate(-48.395 -24.314)" style="fill:#fff"/>
            <path data-name="패스 2416" d="m102.586 43.46.01-.015-.018.024z" transform="translate(-80.427 -34.063)" style="fill:#fff"/>
            <path data-name="패스 2417" d="M102.66 40.629a5.765 5.765 0 0 0 .51-.775h-.046a4.951 4.951 0 0 1-.463.775" transform="translate(-80.491 -31.248)" style="fill:#fff"/>
            <path data-name="패스 2418" d="M105.388 36.106h.065a5.7 5.7 0 0 0 .271-.67h-.117a5.025 5.025 0 0 1-.219.67" transform="translate(-82.63 -27.784)" style="fill:#fff"/>
            <path data-name="패스 2419" d="m106.7 31.6-.007.038c0 .014-.006.029-.009.041h.143a5.763 5.763 0 0 0 .143-.671h-.2a4.355 4.355 0 0 1-.071.592" transform="translate(-83.646 -24.314)" style="fill:#fff"/>
            <path data-name="패스 2420" d="M58.241 13.311a3.977 3.977 0 0 0-.213.671h5.055a1.332 1.332 0 0 1 .255-.671z" transform="translate(-45.497 -10.437)" style="fill:#fff"/>
            <path data-name="패스 2421" d="M105.789 22.831h.364a6.09 6.09 0 0 0-.08-.67h-.5a4.347 4.347 0 0 1 .218.67" transform="translate(-82.774 -17.375)" style="fill:#fff"/>
            <path data-name="패스 2422" d="M64.864 9.557a1.372 1.372 0 0 1 .154-.1 2.279 2.279 0 0 1 1.79-.174 4.293 4.293 0 0 1 .681.276h1.658a6.035 6.035 0 0 0-.521-.671h-8.59a4.081 4.081 0 0 0-.431.671z" transform="translate(-46.739 -6.967)" style="fill:#fff"/>
            <path data-name="패스 2423" d="M103.435 18.408h.574a5.553 5.553 0 0 0-.2-.67h-.8a4.337 4.337 0 0 1 .421.67" transform="translate(-80.769 -13.908)" style="fill:#fff"/>
            <path data-name="패스 2424" d="M99.116 13.983h.924a5.788 5.788 0 0 0-.339-.671h-1.355a4.329 4.329 0 0 1 .77.671" transform="translate(-77.109 -10.437)" style="fill:#fff"/>
            <path data-name="패스 2425" d="m60.154 10.348-.007.01.014-.019z" transform="translate(-47.159 -8.106)" style="fill:#fff"/>
            <path data-name="패스 2426" d="M3.2 128.872c0-1.758 1.744-2.319 3.124-2.319a5.372 5.372 0 0 1 3.8 1.605v-2.879a11.617 11.617 0 0 0-3.608-.56c-2.954 0-6.079 1.223-6.079 4.432 0 5.4 8.33 4.688 8.33 8.663 0 1.783-2.083 2.649-3.462 2.649A8.146 8.146 0 0 1 0 138.348l.7 3.185a11.969 11.969 0 0 0 4.334.764c3.778 0 6.49-2.548 6.49-5.274 0-4.713-8.331-4.662-8.331-8.152" transform="translate(0 -97.787)" style="fill:#fff"/>
            <path data-name="패스 2427" d="M61.3 139.777v-9.6c0-1.146-.145-3.032 1.089-3.49v-.077h-4.647v.077c1.235.484 1.09 2.343 1.09 3.49v9.6c0 1.146.145 3.031-1.09 3.515v.077h4.649v-.077c-1.234-.484-1.089-2.344-1.089-3.515" transform="translate(-45.273 -99.266)" style="fill:#fff"/>
            <path data-name="패스 2428" d="M98.333 126.606h-4.239v.077c1.356.688.8 1.911.388 2.547l-3 4.739-3.882-6.65a2.016 2.016 0 0 0-1.816-.713h-6.3v.077c1.622.764.17 2.343-.63 3.541l-3.172 4.432 5.376 7.617a3.533 3.533 0 0 0 2.736 1.1h2.276v-.077a7.716 7.716 0 0 1-2.906-2.395l-4.891-6.751 5.5-7.426a6.29 6.29 0 0 1 2.109 2.509l4.02 6.8v3.77c0 1.2.169 2.854-1.018 3.491v.077h4.726v-.077c-1.235-.942-1.235-1.707-1.235-3.235v-4.025z" transform="translate(-59.339 -99.266)" style="fill:#fff"/>
            <path data-name="패스 2429" d="M195.059 128.872c0-1.758 1.744-2.319 3.124-2.319a5.372 5.372 0 0 1 3.8 1.605v-2.879a11.615 11.615 0 0 0-3.609-.56c-2.954 0-6.077 1.223-6.077 4.432 0 5.4 8.329 4.688 8.329 8.663 0 1.783-2.081 2.649-3.463 2.649a8.146 8.146 0 0 1-5.3-2.114l.7 3.185a11.972 11.972 0 0 0 4.335.764c3.777 0 6.49-2.548 6.49-5.274 0-4.713-8.331-4.662-8.331-8.152" transform="translate(-150.431 -97.787)" style="fill:#fff"/>
            <path data-name="패스 2430" d="M259.657 126.683c1.236.484 1.067 2.343 1.067 3.515v3.159h-8.744V130.2c0-1.172-.146-3.031 1.067-3.515v-.076h-4.6v.076c1.237.484 1.068 2.343 1.068 3.49v9.625c0 1.147.144 3.006-1.068 3.491v.077h4.6v-.077c-1.212-.484-1.067-2.344-1.067-3.491v-4.611h8.743v4.611c0 1.147.169 3.006-1.067 3.491v.077h4.625v-.077c-1.236-.484-1.09-2.344-1.09-3.491v-9.629c0-1.147-.146-3.006 1.09-3.49v-.076h-4.625z" transform="translate(-194.794 -99.267)" style="fill:#fff"/>
            <path data-name="패스 2431" d="M332.781 124.59a8.768 8.768 0 0 0-9.015 8.764 8.648 8.648 0 0 0 8.775 8.84 8.818 8.818 0 0 0 8.848-8.968 8.533 8.533 0 0 0-8.607-8.636m-.119 15.769c-3.776 0-6.156-3.668-6.156-7.235 0-3.847 2.38-6.7 6.107-6.7 3.8 0 6.036 3.593 6.036 7.312 0 3.8-2.334 6.623-5.987 6.623" transform="translate(-253.851 -97.684)" style="fill:#fff"/>
            <path data-name="패스 2432" d="M414.5 126.606h-5.885v.076c1.212.509 1.067 2.369 1.067 3.515v9.6c0 1.147.145 3.032-1.091 3.49v.077h4.819v-.077c-1.283-.764-1.26-1.783-1.26-3.21v-11.484a9.324 9.324 0 0 1 1.7-.153c1.938 0 3.44.892 3.44 3.134 0 2.215-1.848 3.531-3.743 3.855h3.4a4.671 4.671 0 0 0 3.107-4.366c0-2.854-2.4-4.458-5.544-4.458" transform="translate(-320.358 -99.266)" style="fill:#fff"/>
            <path data-name="패스 2433" d="M.568 70.81a1.172 1.172 0 0 0-.508-1.1c.7-.044 2.11-.1 2.873-.1 3.182 0 4.331 1.934 4.331 3.934 0 2.276-1.657 3.9-4.342 3.9H.06a1.172 1.172 0 0 0 .508-1.1zM1.7 76.435a4.376 4.376 0 0 0 1.005.1c2.055 0 3.293-1.094 3.293-3.039a2.879 2.879 0 0 0-3.061-2.983c-.4 0-1.061.066-1.238.089z" transform="translate(-.047 -54.575)" style="fill:#fff"/>
            <path data-name="패스 2434" d="M65.038 70.066a1.172 1.172 0 0 0-.509 1.1v3.945a1.682 1.682 0 0 0 1.845 1.945c1.216 0 2.033-.641 2.033-1.8v-4.085a1.172 1.172 0 0 0-.508-1.1h2.143a1.172 1.172 0 0 0-.508 1.1V76.7a1.172 1.172 0 0 0 .508 1.1h-1.6v-.74a2.926 2.926 0 0 1-2.243.906c-2.552 0-2.8-1.779-2.8-2.707v-4.088a1.172 1.172 0 0 0-.508-1.1z" transform="translate(-49.312 -54.936)" style="fill:#fff"/>
            <path data-name="패스 2435" d="M125.839 76.535a1.172 1.172 0 0 0 .508 1.1H124.2a1.172 1.172 0 0 0 .508-1.1v-5.746l-1.315-.011a1.546 1.546 0 0 0-1.149.464l.442-1.381a3.679 3.679 0 0 0 .707.044h4.276a6.293 6.293 0 0 0 .674-.044l-.387 1.293a.894.894 0 0 0-.884-.376l-1.238.011z" transform="translate(-95.849 -54.775)" style="fill:#fff"/>
            <path data-name="패스 2436" d="M173.113 69.963a.785.785 0 0 1 .32.055l2.11 3.337 1.525-2.365a.887.887 0 0 0 .155-.442.677.677 0 0 0-.376-.564h1.911l-2.85 4.276v2.354a1.172 1.172 0 0 0 .508 1.1h-2.144a1.172 1.172 0 0 0 .508-1.1V74.25l-2.28-3.513a1.931 1.931 0 0 0-.829-.751z" transform="translate(-134.604 -54.855)" style="fill:#fff"/>
            <path data-name="패스 2437" d="M272.119 69.945a2.214 2.214 0 0 0 .4-.033v1.3a1.33 1.33 0 0 0-1.16-.4l-1.492.033v2.21h1.591a2.235 2.235 0 0 0 .4-.033v1.2a1.085 1.085 0 0 0-.84-.287h-1.149v2.63a1.142 1.142 0 0 0 .563 1.1h-2.2a1.19 1.19 0 0 0 .508-1.1V71.05a1.19 1.19 0 0 0-.508-1.1z" transform="translate(-210.307 -54.815)" style="fill:#fff"/>
            <path data-name="패스 2438" d="M317.326 69.883c.32-.011.641-.022.961-.022 2.519 0 2.773 1.4 2.773 2.011a2.091 2.091 0 0 1-1.912 1.956c.862 1.359 2.464 3.359 3.558 3.812-.773.055-1.072.066-1.193.066-1.271 0-2.995-2.8-3.69-4.1.8-.077 1.967-.53 1.967-1.635 0-.5-.188-1.293-1.547-1.293a2.719 2.719 0 0 0-.74.077v5.779a1.172 1.172 0 0 0 .508 1.1h-2.143a1.172 1.172 0 0 0 .508-1.1V71.01a1.173 1.173 0 0 0-.508-1.1c.486 0 .972-.011 1.458-.022" transform="translate(-247.658 -54.775)" style="fill:#fff"/>
            <path data-name="패스 2439" d="M374.494 70.066v1.271a1.33 1.33 0 0 0-1.16-.4l-1.492.033v2.21h1.591a2.235 2.235 0 0 0 .4-.033v1.2a1.067 1.067 0 0 0-.84-.287h-1.149v2.78a15.64 15.64 0 0 0 1.436.077 3.143 3.143 0 0 0 2.31-.674l-.564 1.558h-4.818a1.19 1.19 0 0 0 .508-1.1v-5.53a1.19 1.19 0 0 0-.508-1.1z" transform="translate(-290.263 -54.936)" style="fill:#fff"/>
            <path data-name="패스 2440" d="M426.43 70.066v1.271a1.33 1.33 0 0 0-1.16-.4l-1.492.033v2.21h1.591a2.234 2.234 0 0 0 .4-.033v1.2a1.067 1.067 0 0 0-.84-.287h-1.149v2.78a15.64 15.64 0 0 0 1.436.077 3.143 3.143 0 0 0 2.31-.674l-.564 1.558h-4.818a1.189 1.189 0 0 0 .508-1.1v-5.53a1.189 1.189 0 0 0-.508-1.1z" transform="translate(-330.984 -54.936)" style="fill:#fff"/>
        </g>
    </g>
</svg>
