<svg id="icon-mileage_point-30" data-name="icon-mileage point-30" xmlns="http://www.w3.org/2000/svg" width="30" height="30" viewBox="0 0 30 30">
  <defs>
    <style>
      .cls-1, .cls-2 {
        fill: none;
      }

      .cls-2 {
        stroke: #000;
        stroke-linecap: round;
        stroke-linejoin: round;
        stroke-width: 1.5px;
      }

      .cls-3 {
        fill: #5ba6d2;
      }

      .cls-4 {
        fill: #fff;
      }
    </style>
  </defs>
  <g id="그룹_10635" data-name="그룹 10635" transform="translate(-9716 -11676)">
    <rect id="사각형_6465" data-name="사각형 6465" class="cls-1" width="30" height="30" transform="translate(9716 11676)"/>
    <g id="database" transform="translate(9716 11676)">
      <rect id="사각형_6549" data-name="사각형 6549" class="cls-1" width="30" height="30"/>
      <ellipse id="타원_257" data-name="타원 257" class="cls-2" cx="10.313" cy="5.625" rx="10.313" ry="5.625" transform="translate(4.688 3.75)"/>
      <path id="패스_91667" data-name="패스 91667" class="cls-2" d="M40,80v5.625c0,3.107,4.617,5.625,10.313,5.625s10.313-2.518,10.313-5.625V80" transform="translate(-35.313 -70.625)"/>
      <path id="패스_91668" data-name="패스 91668" class="cls-2" d="M40,128v5.625c0,3.107,4.617,5.625,10.313,5.625s10.313-2.518,10.313-5.625V128" transform="translate(-35.313 -113)"/>
    </g>
    <g id="point" transform="translate(8056 10373)">
      <circle id="타원_224" data-name="타원 224" class="cls-3" cx="6.5" cy="6.5" r="6.5" transform="translate(1676 1319)"/>
      <path id="패스_91604" data-name="패스 91604" class="cls-4" d="M.84-1.859H2.5V-4.475H3.957A2.627,2.627,0,0,0,6.869-7.182,2.631,2.631,0,0,0,3.98-9.912H.84ZM2.5-5.817V-8.524H3.684A1.258,1.258,0,0,1,5.14-7.182,1.288,1.288,0,0,1,3.684-5.817Z" transform="translate(1679.093 1331.421)"/>
    </g>
  </g>
</svg>
