<svg id="icon-Green-65" xmlns="http://www.w3.org/2000/svg" xmlns:xlink="http://www.w3.org/1999/xlink" width="65" height="65" viewBox="0 0 65 65">
  <defs>
    <style>
      .cls-1 {
        fill: url(#radial-gradient);
      }

      .cls-2 {
        fill: #fff;
      }
    </style>
    <radialGradient id="radial-gradient" cx="0.519" cy="0.472" r="0.5" gradientUnits="objectBoundingBox">
      <stop offset="0" stop-color="#7acb9c"/>
      <stop offset="1" stop-color="#6cac89"/>
    </radialGradient>
  </defs>
  <g id="icon" transform="translate(-8 -9)">
    <circle id="icon-2" data-name="icon" class="cls-1" cx="32.5" cy="32.5" r="32.5" transform="translate(8 9)"/>
  </g>
  <g id="그룹_10594" data-name="그룹 10594" transform="translate(2387.05 -5429.008)">
    <path id="패스_91596" data-name="패스 91596" class="cls-2" d="M25.9-23.8h8.5c-.9-7.05-7.2-12.05-15.3-12C9.65-35.85,2.25-29.2,2.2-17.6,2.25-6.45,9.1.5,19.2.5c9.05,0,15.5-5.65,15.5-15.1v-4.7H19.6v6.2h7.1c-.1,3.85-2.75,6.25-7.5,6.3-5.3-.05-8.45-4-8.5-10.9.05-6.9,3.35-10.85,8.5-10.8C22.75-28.55,25.1-26.8,25.9-23.8Z" transform="translate(-2373 5479)"/>
  </g>
</svg>
