<svg id="icon-linkto-24" xmlns="http://www.w3.org/2000/svg" width="24" height="24" viewBox="0 0 24 24">
  <defs>
    <style>
      .cls-1, .cls-2 {
        fill: #fff;
      }

      .cls-1 {
        stroke: #707070;
        opacity: 0;
      }

      .cls-3, .cls-4, .cls-6 {
        fill: none;
      }

      .cls-3, .cls-4 {
        stroke: #000;
        stroke-linecap: round;
        stroke-width: 1.5px;
      }

      .cls-4 {
        stroke-linejoin: round;
      }

      .cls-5 {
        stroke: none;
      }
    </style>
  </defs>
  <g id="bg" class="cls-1">
    <rect class="cls-5" width="24" height="24"/>
    <rect class="cls-6" x="0.5" y="0.5" width="23" height="23"/>
  </g>
  <rect id="bg-2" data-name="bg" class="cls-2" width="16" height="16" rx="2" transform="translate(4 4)"/>
  <path id="빼기_16" data-name="빼기 16" d="M-12456-8170h-12a2,2,0,0,1-2-2v-12a2,2,0,0,1,2-2h5v1.5h-5a.5.5,0,0,0-.5.5v12a.5.5,0,0,0,.5.5h12a.5.5,0,0,0,.5-.5v-4.5h1.5v4.5A2,2,0,0,1-12456-8170Z" transform="translate(12474 8190)"/>
  <line id="선_191" data-name="선 191" class="cls-3" y1="8" x2="7" transform="translate(12.5 4.5)"/>
  <path id="패스_91676" data-name="패스 91676" class="cls-4" d="M85,12h6v6" transform="translate(-71 -8)"/>
</svg>
