<svg xmlns="http://www.w3.org/2000/svg" width="30" height="30" viewBox="0 0 30 30">
  <defs>
    <style>
      .cls-1 {
        fill: none;
      }
    </style>
  </defs>
  <g id="heart" transform="translate(1578.299 -75.779)">
    <path id="패스_91728" data-name="패스 91728" d="M-1557.405,79.189h-.136a7.366,7.366,0,0,0-5.567,2.618l-.191.226-.191-.226a7.37,7.37,0,0,0-5.569-2.618h-.025a6.77,6.77,0,0,0-6.76,6.737v.134c0,4.776,4.292,8.725,10.79,14.7l1.753,1.606,1.686-1.554c6.545-6.008,10.859-9.968,10.859-14.75a6.725,6.725,0,0,0-1.9-4.818A6.715,6.715,0,0,0-1557.405,79.189Zm4.59,6.881c0,3.853-4.05,7.567-10.183,13.188l-.3.307-.307-.311c-6.125-5.615-10.178-9.331-10.178-13.192a4.655,4.655,0,0,1,4.505-4.783c.076,0,.151,0,.226,0a5.244,5.244,0,0,1,4.723,3.057h2.073a5.211,5.211,0,0,1,4.713-3.057,4.636,4.636,0,0,1,3.31,1.3,4.621,4.621,0,0,1,1.421,3.262C-1552.812,85.918-1552.812,85.993-1552.815,86.07Z"/>
    <path id="패스_91721" data-name="패스 91721" class="cls-1" d="M-1578.3,75.779h30v30h-30Z"/>
  </g>
</svg>
