<svg xmlns="http://www.w3.org/2000/svg" width="30" height="30" viewBox="0 0 30 30">
  <defs>
    <style>
      .cls-1 {
        fill: none;
      }
    </style>
  </defs>
  <g id="martini" transform="translate(1693.799 -81.462)">
    <path id="패스_91729" data-name="패스 91729" d="M-1685.168,92.655c0,3.609,2.235,6.661,5.314,7.255l.2.039V105.6h-3.31v2.04h8.326V105.6h-3.309V99.953l.2-.039c3.079-.6,5.314-3.65,5.314-7.255V85.286h-12.739Zm10.874,1.314a4.8,4.8,0,0,1-4.49,4.017h-.029a4.8,4.8,0,0,1-4.49-4.017l-.049-.292h9.107Zm-9.168-6.643h9.326v4.311h-9.327Z"/>
    <path id="패스_91721" data-name="패스 91721" class="cls-1" d="M-1693.8,81.462h30v30h-30Z"/>
  </g>
</svg>
