<svg xmlns="http://www.w3.org/2000/svg" width="30" height="30" viewBox="0 0 30 30">
  <defs>
    <style>
      .cls-1 {
        fill: none;
      }
    </style>
  </defs>
  <g id="user" transform="translate(1611.281 -60.64)">
    <g id="그룹_11521" data-name="그룹 11521">
      <path id="패스_91726" data-name="패스 91726" d="M-1596.281,75.518a5.05,5.05,0,0,0,5.044-5.044,5.013,5.013,0,0,0-1.475-3.566,5.007,5.007,0,0,0-3.565-1.478l0-.25v.25a5.049,5.049,0,0,0-5.044,5.044A5.05,5.05,0,0,0-1596.281,75.518Zm0-8.073a3.033,3.033,0,0,1,3.029,3.029,3.033,3.033,0,0,1-3.029,3.029,3.033,3.033,0,0,1-3.029-3.029A3.033,3.033,0,0,1-1596.281,67.445Z"/>
      <path id="패스_91727" data-name="패스 91727" d="M-1596.281,77.341c-3.508,0-10.337,1.779-10.337,5.039V86.1h20.675V82.38C-1585.943,79.12-1592.772,77.341-1596.281,77.341Zm8.323,6.749H-1604.6V82.38c0-1.169,4.545-3.029,8.323-3.029v.005c3.778,0,8.322,1.86,8.322,3.029Z"/>
    </g>
    <path id="패스_91721" data-name="패스 91721" class="cls-1" d="M-1611.281,60.64h30v30h-30Z"/>
  </g>
</svg>
