<svg width="27" height="30" viewBox="0 0 27 30" fill="none" xmlns="http://www.w3.org/2000/svg">
<g clip-path="url(#clip0_7_16)">
<path d="M8.4375 28.0664H2.8125C1.25977 28.0664 0 26.8066 0 25.2539V4.62891C0 3.07617 1.25977 1.81641 2.8125 1.81641H8.4375C9.99023 1.81641 11.25 3.07617 11.25 4.62891V25.2539C11.25 26.8066 9.99023 28.0664 8.4375 28.0664ZM26.25 25.2539V4.62891C26.25 3.07617 24.9902 1.81641 23.4375 1.81641H17.8125C16.2598 1.81641 15 3.07617 15 4.62891V25.2539C15 26.8066 16.2598 28.0664 17.8125 28.0664H23.4375C24.9902 28.0664 26.25 26.8066 26.25 25.2539Z" fill="white" fill-opacity="0.8"/>
</g>
<defs>
<clipPath id="clip0_7_16">
<rect width="26.25" height="30" fill="white"/>
</clipPath>
</defs>
</svg>
