<?xml version="1.0" encoding="UTF-8"?><svg id="Layer_2" xmlns="http://www.w3.org/2000/svg" viewBox="0 0 34.8 34.8"><defs><style>.cls-1{fill:#d5d5d5;}</style></defs><g id="Layer_1-2"><path class="cls-1" d="m21.45,18.35c.27-.27.4-.58.4-.95s-.13-.68-.4-.95l-5.7-5.7c-.1-.1-.23-.15-.38-.14-.16,0-.28.05-.37.14-.1.1-.15.23-.15.39s.05.3.15.41l5.85,5.85-5.9,5.9c-.1.1-.15.23-.14.38,0,.16.05.28.14.37.1.1.23.15.39.15s.3-.05.41-.15l5.7-5.7Zm13.35-.96c0,2.41-.45,4.67-1.34,6.79-.9,2.12-2.14,3.97-3.72,5.55-1.58,1.58-3.43,2.82-5.55,3.72-2.12.9-4.38,1.35-6.78,1.35s-4.67-.45-6.79-1.34c-2.12-.9-3.97-2.14-5.55-3.72-1.58-1.58-2.82-3.43-3.72-5.55s-1.35-4.38-1.35-6.78.45-4.67,1.34-6.79c.9-2.12,2.14-3.97,3.72-5.55,1.58-1.58,3.43-2.82,5.55-3.72s4.38-1.35,6.78-1.35,4.67.45,6.79,1.34c2.12.9,3.97,2.14,5.55,3.72,1.58,1.58,2.82,3.43,3.72,5.55.9,2.12,1.35,4.38,1.35,6.78Zm-1.1,0c0-4.53-1.58-8.38-4.75-11.55S21.93,1.1,17.4,1.1s-8.38,1.58-11.55,4.75S1.1,12.87,1.1,17.4s1.58,8.38,4.75,11.55c3.17,3.17,7.02,4.75,11.55,4.75s8.38-1.58,11.55-4.75c3.17-3.17,4.75-7.02,4.75-11.55Z"/></g></svg>