<svg xmlns="http://www.w3.org/2000/svg" width="48" height="48" viewBox="0 0 48 48">
    <path data-name="사각형 6627" style="fill:none" d="M0 0h48v48H0z"/>
    <path data-name="패스 91688" d="M71.852 73.369H41.517A1.517 1.517 0 0 1 40 71.852V46.067L43.034 40h27.3l3.034 6.067v25.785a1.517 1.517 0 0 1-1.516 1.517z" transform="translate(-32.684 -32.684)" style="stroke-linecap:round;stroke-linejoin:round;stroke-width:1.5px;stroke:#000;fill:none"/>
    <path data-name="선 211" transform="translate(7.5 13.5)" style="stroke-linecap:round;stroke-linejoin:round;stroke-width:1.5px;stroke:#000;fill:none" d="M0 0h33"/>
    <path data-name="사각형 6628" style="fill:none" d="M0 0h24v24H0z" transform="translate(12 15)"/>
    <path data-name="패스 91689" d="M37.387 56.5s-9.375-5.25-9.375-11.625a4.876 4.876 0 0 1 9.375-1.878h0a4.876 4.876 0 0 1 9.375 1.878c0 6.37-9.375 11.625-9.375 11.625z" transform="translate(-13.386 -21.245)" style="stroke:#bed600;stroke-linecap:round;stroke-linejoin:round;stroke-width:1.5px;fill:none"/>
</svg>
