<svg xmlns="http://www.w3.org/2000/svg" width="56" height="56" viewBox="0 0 56 56">
    <path data-name="사각형 19" style="fill:none" d="M0 0h56v56H0z"/>
    <path data-name="Icon ionic-ios-star" d="M46.334 16.938H30.947L26.271 2.984a1.694 1.694 0 0 0-3.18 0l-4.676 13.954H2.924a1.679 1.679 0 0 0-1.674 1.674 1.23 1.23 0 0 0 .031.282 1.608 1.608 0 0 0 .7 1.182l12.647 8.912L9.775 43.1a1.678 1.678 0 0 0 .575 1.883 1.619 1.619 0 0 0 .941.408 2.051 2.051 0 0 0 1.046-.377l12.343-8.8 12.343 8.8a1.96 1.96 0 0 0 1.046.377 1.5 1.5 0 0 0 .931-.409 1.658 1.658 0 0 0 .575-1.883l-4.852-14.111 12.542-9 .3-.262a1.755 1.755 0 0 0 .544-1.119 1.771 1.771 0 0 0-1.775-1.669z" transform="translate(3.436 3.983)" style="fill:#bed600"/>
</svg>
