<?xml version="1.0" encoding="UTF-8"?><svg id="Layer_1" xmlns="http://www.w3.org/2000/svg" viewBox="0 0 24 24"><defs><style>.cls-1,.cls-2,.cls-3{fill:none;}.cls-2{stroke:#bed600;}.cls-2,.cls-3{stroke-linecap:round;stroke-linejoin:round;stroke-width:1.5px;}.cls-3{stroke:#000;}</style></defs><path class="cls-1" d="m0,0h24v24H0V0Z"/><path class="cls-2" d="m8,5v14"/><path class="cls-3" d="m1.1,16.15c0-.4.28-.75.67-.83,1.84-.4,3-2.21,2.61-4.04-.28-1.31-1.3-2.32-2.61-2.61-.39-.08-.67-.43-.67-.83v-2.63c0-.47.37-.85.84-.85,0,0,0,0,0,0h20.12c.47,0,.84.38.84.85,0,0,0,0,0,0v2.63c0,.4-.28.75-.67.83-1.84.4-3,2.21-2.61,4.04.28,1.31,1.3,2.32,2.61,2.61.39.08.67.43.67.83v2.63c0,.47-.37.85-.84.85,0,0,0,0,0,0H1.94c-.47,0-.84-.38-.84-.85h0v-2.63Z"/></svg>