<svg xmlns="http://www.w3.org/2000/svg" width="30" height="30" viewBox="0 0 30 30">
    <g data-name="그룹 12130">
        <path data-name="사각형 6468" style="fill:none" d="M0 0h30v30H0z"/>
        <g data-name="빼기 11" style="fill:none">
            <path d="M-8711.851-11819.75a.783.783 0 0 1-.5-.18.8.8 0 0 1-.291-.615v-2.383a.785.785 0 0 1 .231-.562l1.358-1.358v-2.675l-7 1.4a.818.818 0 0 1-.16.017.783.783 0 0 1-.5-.18.789.789 0 0 1-.291-.615v-2.384a.8.8 0 0 1 .44-.71l7.507-3.754.012-5.073a3.179 3.179 0 0 1 3.174-3.177h.006a3.181 3.181 0 0 1 3.178 3.177l.009 5.073 7.51 3.754a.8.8 0 0 1 .439.71v.159a6.915 6.915 0 0 0-3.149-.747 7.008 7.008 0 0 0-7 7 6.947 6.947 0 0 0 .518 2.647l-1.514-.3-3.818.764a.775.775 0 0 1-.159.012z" style="stroke:none" transform="translate(8722.875 11844.875)"/>
            <path d="m-8711.142-11821.405 2.814-.563a8.455 8.455 0 0 1-.048-.906c0-3.783 2.485-6.996 5.91-8.095l-3.706-1.852-.01-6.001a1.68 1.68 0 0 0-1.678-1.677h-.006c-.923 0-1.674.752-1.674 1.68l-.014 5.998-.827.414-7.118 3.56v1.084l7.947-1.59v5.126l-1.59 1.59v1.232m-.709 1.655a.795.795 0 0 1-.791-.795v-2.383c0-.214.082-.413.232-.561l1.358-1.359v-2.674l-6.996 1.399a.79.79 0 0 1-.951-.778v-2.384c0-.299.173-.578.44-.71l7.507-3.754.012-5.073a3.179 3.179 0 0 1 3.174-3.177h.006a3.18 3.18 0 0 1 3.177 3.177l.01 5.073 7.509 3.754c.268.132.44.41.44.71v.159a6.915 6.915 0 0 0-3.15-.747c-3.861 0-7.002 3.14-7.002 6.999 0 .918.174 1.809.518 2.647l-1.514-.302-3.818.763a.775.775 0 0 1-.16.016z" style="fill:#000;stroke:none" transform="translate(8722.875 11844.875)"/>
        </g>
        <g transform="translate(-1659 -1303)">
            <circle data-name="타원 224" cx="6.5" cy="6.5" r="6.5" transform="translate(1676 1319)" style="fill:#bed600"/>
            <text transform="translate(1679.111 1328.303)" style="fill:#fff;font-size:8px;font-family:Pretendard-Bold,Pretendard;font-weight:700"><tspan x="0" y="0">M</tspan></text>
        </g>
    </g>
</svg>
