<svg xmlns="http://www.w3.org/2000/svg" width="56" height="56" viewBox="0 0 56 56">
    <path data-name="사각형 19" style="fill:none" d="M0 0h56v56H0z"/>
    <path data-name="Icon ionic-ios-star-half" d="M46.332 16.937H30.945L26.27 2.984a1.694 1.694 0 0 0-3.18 0l-4.675 13.953H2.924a1.678 1.678 0 0 0-1.674 1.674 1.23 1.23 0 0 0 .031.282 1.608 1.608 0 0 0 .7 1.182l12.646 8.912L9.775 43.1a1.678 1.678 0 0 0 .575 1.883 1.619 1.619 0 0 0 .941.408 2.051 2.051 0 0 0 1.046-.377l12.343-8.8 12.343 8.8a1.96 1.96 0 0 0 1.046.377A1.5 1.5 0 0 0 39 44.98a1.658 1.658 0 0 0 .575-1.883l-4.853-14.11 12.541-9 .3-.261a1.755 1.755 0 0 0 .544-1.119 1.771 1.771 0 0 0-1.775-1.67zm-4.958 3.682-8.347 5.993a2.938 2.938 0 0 0-1.067 3.326l3.148 9.173a.42.42 0 0 1-.638.481l-8.1-5.774-.01-.01a3.9 3.9 0 0 1-1.684-3.19V8.705a.2.2 0 0 1 .4-.063l3.1 9.226a2.925 2.925 0 0 0 2.772 2h10.175a.418.418 0 0 1 .251.751z" transform="translate(3.75 4.126)" style="fill:#bed600"/>
</svg>
