<svg xmlns="http://www.w3.org/2000/svg" width="40" height="40" viewBox="0 0 40 40">
    <path data-name="사각형 6569" style="fill:none" d="M0 0h40v40H0z"/>
    <path data-name="패스 91666" d="M159.417 40a12.523 12.523 0 0 1 8.841 8.841" transform="translate(-134.508 -33.75)" style="stroke:#bed600;stroke-linecap:round;stroke-linejoin:round;stroke-width:2px;fill:none"/>
    <path data-name="패스 91667" d="M151.133 70.917a7.514 7.514 0 0 1 5.3 5.3" transform="translate(-127.519 -59.836)" style="stroke:#bed600;stroke-linecap:round;stroke-linejoin:round;stroke-width:2px;fill:none"/>
    <path data-name="패스 91668" d="M48.2 46.775a13.179 13.179 0 0 0 6.1 6.074 1.239 1.239 0 0 0 1.223-.093l3.912-2.608a1.25 1.25 0 0 1 1.186-.109l7.318 3.136a1.246 1.246 0 0 1 .75 1.3 7.5 7.5 0 0 1-7.44 6.55A21.25 21.25 0 0 1 40 39.772a7.5 7.5 0 0 1 6.55-7.44 1.246 1.246 0 0 1 1.3.75l3.139 7.325a1.25 1.25 0 0 1-.1 1.177l-2.6 3.972a1.239 1.239 0 0 0-.089 1.219z" transform="translate(-33.75 -27.272)" style="stroke:#bed600;stroke-linecap:round;stroke-linejoin:round;stroke-width:2px;fill:none"/>
</svg>
