<svg xmlns="http://www.w3.org/2000/svg" width="48" height="48" viewBox="0 0 48 48">
    <path data-name="사각형 6630" style="fill:none" d="M0 0h48v48H0z"/>
    <circle data-name="타원 262" cx="7.5" cy="7.5" r="7.5" transform="translate(16.5 15)" style="stroke-linecap:round;stroke-linejoin:round;stroke-width:1.5px;stroke:#000;fill:none"/>
    <path data-name="패스 91691" d="M63.8 167.383a13.505 13.505 0 0 1 24.075 0" transform="translate(-51.837 -130)" style="stroke-linecap:round;stroke-linejoin:round;stroke-width:1.5px;stroke:#000;fill:none"/>
    <path data-name="패스 91692" d="M67.91 47a17.981 17.981 0 1 1-14.751-14.755" transform="translate(-26.159 -25.996)" style="stroke-linecap:round;stroke-linejoin:round;stroke-width:1.5px;stroke:#000;fill:none"/>
    <circle data-name="타원 263" cx="3" cy="3" r="3" transform="translate(34.5 7.5)" style="stroke:#bed600;stroke-linecap:round;stroke-linejoin:round;stroke-width:1.5px;fill:none"/>
    <path data-name="선 212" transform="translate(37.5 5.25)" style="stroke:#bed600;stroke-linecap:round;stroke-linejoin:round;stroke-width:1.5px;fill:none" d="M0 2.25V0"/>
    <path data-name="선 213" transform="translate(32.953 7.875)" style="stroke:#bed600;stroke-linecap:round;stroke-linejoin:round;stroke-width:1.5px;fill:none" d="M1.949 1.125 0 0"/>
    <path data-name="선 214" transform="translate(32.953 12)" style="stroke:#bed600;stroke-linecap:round;stroke-linejoin:round;stroke-width:1.5px;fill:none" d="M1.949 0 0 1.125"/>
    <path data-name="선 215" transform="translate(37.5 13.5)" style="stroke:#bed600;stroke-linecap:round;stroke-linejoin:round;stroke-width:1.5px;fill:none" d="M0 0v2.25"/>
    <path data-name="선 216" transform="translate(40.098 12)" style="stroke:#bed600;stroke-linecap:round;stroke-linejoin:round;stroke-width:1.5px;fill:none" d="m0 0 1.949 1.125"/>
    <path data-name="선 217" transform="translate(40.098 7.875)" style="stroke:#bed600;stroke-linecap:round;stroke-linejoin:round;stroke-width:1.5px;fill:none" d="M0 1.125 1.949 0"/>
</svg>
