<svg xmlns="http://www.w3.org/2000/svg" width="31.959" height="24" viewBox="0 0 31.959 24">
    <defs>
        <clipPath id="taph6xjy2a">
            <path data-name="사각형 6731" style="fill:none" d="M0 0h31.959v24H0z"/>
        </clipPath>
    </defs>
    <g data-name="그룹 12162">
        <g data-name="그룹 12161" style="clip-path:url(#taph6xjy2a)">
            <path data-name="패스 91773" d="m43.714 11.948-.681-.479-1.973-1.383c0-.054 0-.111.01-.163V9.9c0-.188.006-.377.006-.565a16.717 16.717 0 0 0-.281-3.069c-.016-.1-.034-.2-.055-.3s-.046-.209-.067-.314c.137-.1.272-.206.411-.308A34.542 34.542 0 0 1 49.58.751l.286-.106C49.911.63 49.954.613 50 .6a10.5 10.5 0 0 1 3.1-.6h.13a2.411 2.411 0 0 1 2.373 2c.009.055.018.111.022.169a20 20 0 0 1 .175 2.622 20.538 20.538 0 0 1-.6 4.909c0 .015-.01.034-.014.052a.06.06 0 0 1-.012.031 7.4 7.4 0 0 1-6.592 5.577z" transform="translate(-23.836)" style="fill:#641f45"/>
            <path data-name="패스 91774" d="m41.484 37.737-1.619-1.082-.06-.037.048-.334.257-1.858.023-.173.352-2.532.863.358 1.808.751.748.31 3.811 1.583a6.072 6.072 0 0 1 1.529 2.217c.016.032.026.067.04.1a.632.632 0 0 1 .022.065 3.249 3.249 0 0 1 .167.577 3.918 3.918 0 0 1 .051 1.375 3.985 3.985 0 0 1-.354 1.2 4.073 4.073 0 0 1-5.022 2.11l-.052-.019-.112-.044c-.019-.005-.038-.015-.056-.021a7.12 7.12 0 0 1-.586-.269 6.543 6.543 0 0 1-3.142-3.668l1.209.206.45.075v-.638z" transform="translate(-23.328 -18.59)" style="fill:#641f45"/>
            <path data-name="패스 91775" d="m12.083 11.948.682-.479 1.972-1.384c0-.054-.007-.111-.009-.163V9.9c0-.188-.01-.377-.01-.565A16.937 16.937 0 0 1 15 6.267l.057-.3c.02-.1.044-.209.067-.314l-.408-.308A34.6 34.6 0 0 0 6.218.751L5.929.645C5.885.63 5.844.613 5.8.6A10.511 10.511 0 0 0 2.7 0h-.134A2.409 2.409 0 0 0 .191 2a1.379 1.379 0 0 0-.023.169A20.22 20.22 0 0 0 0 4.791 20.75 20.75 0 0 0 .592 9.7a.208.208 0 0 1 .014.052.16.16 0 0 1 .008.031 7.4 7.4 0 0 0 6.6 5.577z" transform="translate(-.001)" style="fill:#009fda"/>
            <path data-name="패스 91776" d="m21.914 37.737 1.618-1.082.06-.037-.048-.334-.255-1.858-.022-.173-.353-2.532-.864.358-1.805.751-.748.31-3.809 1.583a6.042 6.042 0 0 0-1.532 2.217c-.013.032-.026.067-.037.1s-.017.041-.026.065a2.76 2.76 0 0 0-.075.228c-.037.115-.065.23-.092.349a4.077 4.077 0 0 0 5.328 4.683l.051-.019.113-.044c.019-.005.038-.015.058-.021.2-.081.4-.173.583-.269a6.537 6.537 0 0 0 3.14-3.665l-1.209.206-.445.075v-.638z" transform="translate(-8.111 -18.59)" style="fill:#009fda"/>
        </g>
    </g>
</svg>
