<svg xmlns="http://www.w3.org/2000/svg" width="38.923" height="37" viewBox="0 0 38.923 37">
    <g data-name="그룹 11041">
        <path data-name="사각형 6540" style="fill:none" d="M0 0h37v37H0z" transform="translate(.508)"/>
        <path data-name="Path 91664" d="M75.5 90.956c-.919-1.249-3-1.717-6.942.674l-23.367 14.653-3.567-2.42-2.74 1.607 5.83 5.576a1.954 1.954 0 0 0 2.406.325l.206-.121 2.78-1.631 22.98-13.825c1.933-1.164 3.328-3.589 2.414-4.838z" transform="translate(-37.884 -85.244)" style="stroke:#221f20;stroke-linecap:round;stroke-linejoin:round;stroke-width:2px;fill:#fff"/>
        <path data-name="Path 91665" d="m60.78 93.131-4.016 2.356 10.2 9.752 6.256-3.671z" transform="translate(-50.02 -87.419)" style="stroke:#221f20;stroke-linecap:round;stroke-linejoin:round;stroke-width:2px;fill:#fff"/>
        <path data-name="선 189" transform="translate(1 34.486)" style="stroke:#221f20;stroke-linecap:round;stroke-linejoin:round;stroke-width:2px;fill:none" d="M36.424 0H0"/>
    </g>
</svg>
