<svg xmlns="http://www.w3.org/2000/svg" width="31" height="30" viewBox="0 0 31 30">
  <defs>
    <style>
      .cls-1 {
        fill: none;
      }
    </style>
  </defs>
  <g id="calendar-fill" transform="translate(-0.104)">
    <rect id="Rectangle_6476" data-name="Rectangle 6476" class="cls-1" width="31" height="30" transform="translate(0.104)"/>
    <path id="Path_91611" data-name="Path 91611" d="M52.766,17.877H49.934v-.94a.944.944,0,0,0-1.888,0v.94H38.6v-.94a.944.944,0,0,0-1.888,0v.94H33.883a1.886,1.886,0,0,0-1.888,1.88v18.8a1.886,1.886,0,0,0,1.888,1.88H52.766a1.886,1.886,0,0,0,1.888-1.88v-18.8A1.886,1.886,0,0,0,52.766,17.877ZM40.493,36.209a2.82,2.82,0,0,1-2-.825.937.937,0,0,1,0-1.329.947.947,0,0,1,1.335,0,.942.942,0,1,0,.667-1.605h0c-.029,0-.059,0-.088,0l-.028,0-.059-.009-.032-.007-.053-.014L40.2,32.4l-.053-.019-.028-.011c-.02-.009-.04-.019-.06-.029l-.018-.009q-.037-.02-.073-.044l-.023-.017-.041-.03,0,0c-.014-.012-.028-.024-.041-.036l-.03-.027-.026-.028a.943.943,0,0,1-.23-.437l0-.009c0-.016-.005-.032-.008-.048s-.005-.029-.007-.044,0-.024,0-.037,0-.038,0-.058c0,0,0,0,0-.006s0-.019,0-.029,0-.039,0-.058,0-.026.005-.039,0-.035.008-.052.006-.028.01-.041.008-.032.012-.048.009-.028.014-.042.01-.03.016-.045.013-.028.019-.042.013-.027.02-.041.016-.029.025-.043l.022-.036c.01-.015.021-.029.032-.044l.019-.026.661-.823h-1.34a.94.94,0,1,1,0-1.88h3.3a.94.94,0,0,1,.737,1.527l-1.047,1.3a2.818,2.818,0,0,1-1.579,5.16Zm7.554-.94a.944.944,0,0,1-1.888,0v-4.23l-.378.282a.947.947,0,0,1-1.322-.188.937.937,0,0,1,.189-1.316l1.888-1.41a.945.945,0,0,1,1.511.752Zm4.72-11.751H33.883v-3.76h2.833v.94a.944.944,0,0,0,1.888,0v-.94h9.442v.94a.944.944,0,0,0,1.888,0v-.94h2.833Z" transform="translate(-27.767 -14.117)"/>
  </g>
</svg>
