<?xml version="1.0" encoding="UTF-8"?><svg id="Layer_2" xmlns="http://www.w3.org/2000/svg" viewBox="0 0 99.74 44.89"><defs><style>.cls-1{fill:#fff;}.cls-2{fill:#4da4d0;}</style></defs><g id="Layer_1-2"><path class="cls-2" d="m94.41,30.56c0-2.94,2.39-5.33,5.33-5.33v-4.37c-2.94,0-5.33-2.38-5.33-5.33s2.39-5.33,5.33-5.33v-4.98c0-2.89-2.35-5.24-5.24-5.24H5.24C2.35,0,0,2.35,0,5.24v4.37c2.94,0,5.33,2.38,5.33,5.33s-2.39,5.33-5.33,5.33v4.37c2.94,0,5.33,2.38,5.33,5.33s-2.39,5.33-5.33,5.33v4.37c0,2.89,2.35,5.24,5.24,5.24h89.26c2.89,0,5.24-2.35,5.24-5.24v-3.76c-2.94,0-5.33-2.38-5.33-5.33Z"/><path class="cls-1" d="m28.87,19.42c-1.25,0-2.02.95-2.02,2.61s.79,2.61,2.01,2.61c.92,0,1.55-.49,1.7-1.33h2.02c-.16,1.53-1.46,3.09-3.76,3.09s-4.02-1.57-4.02-4.37,1.75-4.37,4.02-4.37c2.04,0,3.55,1.16,3.76,3.18h-2.02c-.11-.88-.74-1.43-1.69-1.42Z"/><path class="cls-1" d="m37.6,26.4c-2.29,0-4.04-1.58-4.04-4.37s1.75-4.37,4.04-4.37,4.05,1.56,4.04,4.37c0,2.8-1.76,4.37-4.04,4.37Zm0-1.76c1.25,0,2-.92,2-2.61,0-1.69-.75-2.61-2-2.61-1.24,0-2,.92-2,2.61s.76,2.61,2,2.61Z"/><path class="cls-1" d="m49.91,17.77v5.49c0,1.9-1.45,3.13-3.58,3.14-2.16,0-3.58-1.23-3.58-3.14v-5.49h2v5.32c0,.9.64,1.55,1.59,1.55s1.58-.65,1.57-1.55v-5.32h2.01Z"/><path class="cls-1" d="m51.12,17.77h3.48c1.92,0,3.1,1.19,3.09,2.93,0,1.76-1.2,2.91-3.15,2.91h-1.42v2.67h-2v-8.51Zm3.05,4.25c.95,0,1.45-.52,1.45-1.33s-.5-1.3-1.45-1.3h-1.06v2.63h1.06Z"/><path class="cls-1" d="m62.55,26.4c-2.29,0-4.04-1.58-4.04-4.37s1.75-4.37,4.04-4.37,4.05,1.56,4.04,4.37c0,2.8-1.76,4.37-4.04,4.37Zm0-1.76c1.25,0,2-.92,2-2.61,0-1.69-.75-2.61-2-2.61-1.24,0-2,.92-2,2.61s.76,2.61,2,2.61Z"/><path class="cls-1" d="m74.91,26.28h-1.7l-3.45-4.99h-.06v4.99h-2v-8.51h1.73l3.42,4.99h.07v-4.99h2v8.51Z"/></g></svg>