<?xml version="1.0" encoding="UTF-8"?><svg id="Layer_2" xmlns="http://www.w3.org/2000/svg" viewBox="0 0 60 27"><defs><style>.cls-1{fill:#fff;}.cls-2{fill:#4da4d0;}</style></defs><g id="Layer_1-2"><path class="cls-2" d="m56.8,18.39c0-1.77,1.43-3.2,3.2-3.2v-2.63c-1.77,0-3.2-1.43-3.2-3.2s1.43-3.2,3.2-3.2v-2.99c0-1.74-1.41-3.15-3.15-3.15H3.15C1.41,0,0,1.41,0,3.15v2.63c1.77,0,3.2,1.43,3.2,3.2s-1.43,3.2-3.2,3.2v2.63c1.77,0,3.2,1.43,3.2,3.2s-1.43,3.2-3.2,3.2v2.63c0,1.74,1.41,3.15,3.15,3.15h53.7c1.74,0,3.15-1.41,3.15-3.15v-2.26c-1.77,0-3.2-1.43-3.2-3.2Z"/><path class="cls-1" d="m12.56,11.33c-1.04,0-1.68.79-1.68,2.17s.65,2.17,1.67,2.17c.76,0,1.29-.41,1.42-1.1h1.68c-.13,1.27-1.21,2.57-3.12,2.57s-3.34-1.31-3.34-3.63,1.46-3.63,3.34-3.63c1.69,0,2.95.96,3.12,2.65h-1.68c-.09-.73-.62-1.19-1.41-1.18Z"/><path class="cls-1" d="m19.81,17.13c-1.9,0-3.36-1.31-3.36-3.63s1.46-3.63,3.36-3.63,3.36,1.3,3.36,3.63c0,2.33-1.46,3.63-3.36,3.63Zm0-1.46c1.04,0,1.67-.76,1.66-2.17,0-1.41-.62-2.17-1.66-2.17-1.03,0-1.66.76-1.66,2.17s.63,2.17,1.66,2.17Z"/><path class="cls-1" d="m30.04,9.96v4.56c0,1.58-1.2,2.6-2.98,2.61-1.79,0-2.98-1.03-2.98-2.61v-4.56h1.66v4.42c0,.75.53,1.29,1.32,1.29s1.31-.54,1.31-1.29v-4.42h1.67Z"/><path class="cls-1" d="m31.05,9.96h2.89c1.59,0,2.57.99,2.57,2.43,0,1.46-1,2.42-2.62,2.42h-1.18v2.22h-1.66v-7.07Zm2.54,3.54c.79,0,1.2-.43,1.2-1.1s-.42-1.08-1.2-1.08h-.88v2.19h.88Z"/><path class="cls-1" d="m40.55,17.13c-1.9,0-3.36-1.31-3.36-3.63s1.46-3.63,3.36-3.63,3.36,1.3,3.36,3.63c0,2.33-1.46,3.63-3.36,3.63Zm0-1.46c1.03,0,1.67-.76,1.66-2.17,0-1.41-.62-2.17-1.66-2.17-1.03,0-1.66.76-1.66,2.17s.63,2.17,1.66,2.17Z"/><path class="cls-1" d="m50.82,17.04h-1.42l-2.87-4.15h-.05v4.15h-1.66v-7.07h1.44l2.84,4.15h.06v-4.15h1.66v7.07Z"/></g></svg>