<svg width="100" height="45" viewBox="0 0 100 45" fill="none" xmlns="http://www.w3.org/2000/svg">
<g clip-path="url(#clip0_601_3281)">
<path d="M94.41 30.56C94.41 27.62 96.8 25.23 99.74 25.23V20.86C96.8 20.86 94.41 18.48 94.41 15.53C94.41 12.58 96.8 10.2 99.74 10.2V5.21998C99.74 2.32998 97.39 -0.0200195 94.5 -0.0200195H5.24C2.35 -1.95317e-05 0 2.34998 0 5.23998V9.60998C2.94 9.60998 5.33 11.99 5.33 14.94C5.33 17.89 2.94 20.27 0 20.27V24.64C2.94 24.64 5.33 27.02 5.33 29.97C5.33 32.92 2.94 35.3 0 35.3V39.67C0 42.56 2.35 44.91 5.24 44.91H94.5C97.39 44.91 99.74 42.56 99.74 39.67V35.91C96.8 35.91 94.41 33.53 94.41 30.58V30.56Z" fill="#BED600"/>
<path d="M28.87 19.4199C27.62 19.4199 26.85 20.3699 26.85 22.0299C26.85 23.6899 27.64 24.6399 28.86 24.6399C29.78 24.6399 30.41 24.1499 30.56 23.3099H32.58C32.42 24.8399 31.12 26.3999 28.82 26.3999C26.52 26.3999 24.8 24.8299 24.8 22.0299C24.8 19.2299 26.55 17.6599 28.82 17.6599C30.86 17.6599 32.37 18.8199 32.58 20.8399H30.56C30.45 19.9599 29.82 19.4099 28.87 19.4199Z" fill="white"/>
<path d="M37.6 26.3999C35.31 26.3999 33.56 24.8199 33.56 22.0299C33.56 19.2399 35.31 17.6599 37.6 17.6599C39.89 17.6599 41.65 19.2199 41.64 22.0299C41.64 24.8299 39.88 26.3999 37.6 26.3999ZM37.6 24.6399C38.85 24.6399 39.6 23.7199 39.6 22.0299C39.6 20.3399 38.85 19.4199 37.6 19.4199C36.36 19.4199 35.6 20.3399 35.6 22.0299C35.6 23.7199 36.36 24.6399 37.6 24.6399Z" fill="white"/>
<path d="M49.91 17.77V23.26C49.91 25.16 48.46 26.39 46.33 26.4C44.17 26.4 42.75 25.17 42.75 23.26V17.77H44.75V23.09C44.75 23.99 45.39 24.64 46.34 24.64C47.29 24.64 47.92 23.99 47.91 23.09V17.77H49.92H49.91Z" fill="white"/>
<path d="M51.12 17.77H54.6C56.52 17.77 57.7 18.96 57.69 20.7C57.69 22.46 56.49 23.61 54.54 23.61H53.12V26.28H51.12V17.77ZM54.17 22.02C55.12 22.02 55.62 21.5 55.62 20.69C55.62 19.88 55.12 19.39 54.17 19.39H53.11V22.02H54.17Z" fill="white"/>
<path d="M62.55 26.3999C60.26 26.3999 58.51 24.8199 58.51 22.0299C58.51 19.2399 60.26 17.6599 62.55 17.6599C64.84 17.6599 66.6 19.2199 66.59 22.0299C66.59 24.8299 64.83 26.3999 62.55 26.3999ZM62.55 24.6399C63.8 24.6399 64.55 23.7199 64.55 22.0299C64.55 20.3399 63.8 19.4199 62.55 19.4199C61.31 19.4199 60.55 20.3399 60.55 22.0299C60.55 23.7199 61.31 24.6399 62.55 24.6399Z" fill="white"/>
<path d="M74.91 26.28H73.21L69.76 21.29H69.7V26.28H67.7V17.77H69.43L72.85 22.76H72.92V17.77H74.92V26.28H74.91Z" fill="white"/>
</g>
<defs>
<clipPath id="clip0_601_3281">
<rect width="99.74" height="44.89" fill="white"/>
</clipPath>
</defs>
</svg>
