<svg xmlns="http://www.w3.org/2000/svg" width="130" height="130" viewBox="0 0 130 130">
  <defs>
    <style>
      .cls-1 {
        opacity: 0.16;
      }

      .cls-2, .cls-4 {
        fill: none;
      }

      .cls-3 {
        opacity: 0.2;
      }

      .cls-4 {
        stroke: #000;
        stroke-linecap: round;
        stroke-linejoin: round;
        stroke-width: 6px;
      }
    </style>
  </defs>
  <g id="chats-circle-duotone" class="cls-1" transform="translate(-0.016 -0.016)">
    <rect id="사각형_6448" data-name="사각형 6448" class="cls-2" width="130" height="130" transform="translate(0.016 0.016)"/>
    <path id="패스_91583" data-name="패스 91583" class="cls-3" d="M92.059,128.758a36.593,36.593,0,0,0,53.174,19.32h0l12.631,3.609a3.048,3.048,0,0,0,3.768-3.768l-3.609-12.631h0a36.58,36.58,0,0,0-29.455-55.182h0a36.6,36.6,0,0,1-34.508,48.707q-1.007,0-2-.054Z" transform="translate(-45.298 -39.416)"/>
    <path id="패스_91584" data-name="패스 91584" class="cls-4" d="M29.113,87.265a36.555,36.555,0,1,1,12.79,12.79h0l-12.631,3.609A3.048,3.048,0,0,1,25.5,99.9l3.609-12.631Z" transform="translate(-11.806 -15.774)"/>
    <path id="패스_91585" data-name="패스 91585" class="cls-4" d="M92.059,128.758a36.593,36.593,0,0,0,53.174,19.32h0l12.631,3.609a3.048,3.048,0,0,0,3.768-3.768l-3.609-12.631h0a36.58,36.58,0,0,0-29.455-55.182" transform="translate(-45.298 -39.416)"/>
  </g>
</svg>
