<svg xmlns="http://www.w3.org/2000/svg" width="20" height="20" viewBox="0 0 20 20">
  <defs>
    <style>
      .cls-1 {
        fill: none;
      }
    </style>
  </defs>
  <g id="redeem" transform="translate(-184 -1555)">
    <rect id="사각형_6510" data-name="사각형 6510" class="cls-1" width="20" height="20" transform="translate(184 1555)"/>
    <path id="redeem_FILL0_wght300_GRAD0_opsz20" d="M3.417,13.979V15.5a.249.249,0,0,0,.25.25H16.333a.249.249,0,0,0,.25-.25V13.979Zm.25,3.1a1.525,1.525,0,0,1-1.115-.468A1.523,1.523,0,0,1,2.083,15.5V7.021a1.523,1.523,0,0,1,.469-1.115,1.525,1.525,0,0,1,1.115-.468H5.75a3,3,0,0,1-.135-.365,1.417,1.417,0,0,1-.053-.406A2.044,2.044,0,0,1,6.2,3.135a2.123,2.123,0,0,1,1.531-.614,1.775,1.775,0,0,1,.99.292,3.975,3.975,0,0,1,.8.687l.458.583.479-.583a3.975,3.975,0,0,1,.8-.687,1.775,1.775,0,0,1,.99-.292,2.089,2.089,0,0,1,1.521.614A2.062,2.062,0,0,1,14.4,4.667a2.373,2.373,0,0,1-.031.406,1.2,1.2,0,0,1-.136.365h2.1a1.6,1.6,0,0,1,1.584,1.583V15.5a1.6,1.6,0,0,1-1.584,1.583Zm-.25-5.291H16.583V7.021a.249.249,0,0,0-.25-.25H12.021L13.271,8.5a.511.511,0,0,1,.094.469,1.187,1.187,0,0,1-.261.448.656.656,0,0,1-.5.125.644.644,0,0,1-.437-.271L9.979,6.312,7.771,9.292a.644.644,0,0,1-.438.27.5.5,0,0,1-.458-.145A.724.724,0,0,1,6.6,8.958a.59.59,0,0,1,.125-.479L7.958,6.771H3.667a.249.249,0,0,0-.25.25ZM7.708,5.479a.776.776,0,0,0,.584-.239.8.8,0,0,0,.229-.573.784.784,0,0,0-.813-.813.8.8,0,0,0-.573.229.774.774,0,0,0-.239.584.816.816,0,0,0,.812.812Zm4.521,0a.772.772,0,0,0,.583-.239.8.8,0,0,0,.23-.573.785.785,0,0,0-.813-.813.8.8,0,0,0-.573.229.774.774,0,0,0-.239.584.816.816,0,0,0,.812.812Z" transform="translate(183.918 1555.479)"/>
  </g>
</svg>
