<svg xmlns="http://www.w3.org/2000/svg" width="20" height="20" viewBox="0 0 20 20">
  <defs>
    <style>
      .cls-1 {
        fill: none;
      }
    </style>
  </defs>
  <g id="shopping_cart_checkout" transform="translate(-201 -1311)">
    <rect id="사각형_6507" data-name="사각형 6507" class="cls-1" width="20" height="20" transform="translate(201 1311)"/>
    <path id="shopping_cart_checkout_FILL0_wght300_GRAD0_opsz20" d="M5.958,17.958A1.5,1.5,0,1,1,7.021,15.4a1.5,1.5,0,0,1-1.063,2.562Zm8.084,0a1.494,1.494,0,1,1,1.062-.437A1.449,1.449,0,0,1,14.042,17.958ZM9.542,7.625a.678.678,0,0,1,0-.937l1.041-1.021H7.5a.663.663,0,0,1-.469-1.136.641.641,0,0,1,.469-.2h3.083L9.521,3.292a.6.6,0,0,1-.177-.469.672.672,0,0,1,.2-.469.68.68,0,0,1,.937,0l2.042,2.084a.742.742,0,0,1,.2.26.661.661,0,0,1,0,.6.742.742,0,0,1-.2.26L10.458,7.646a.643.643,0,0,1-.468.177.652.652,0,0,1-.448-.2Zm-3.6,6.208a1.4,1.4,0,0,1-1.282-.718,1.42,1.42,0,0,1-.01-1.49l1.146-2.1-3-6.313H1.875a.641.641,0,0,1-.469-.2.653.653,0,0,1,0-.937.641.641,0,0,1,.469-.2h1.25A.785.785,0,0,1,3.552,2a.689.689,0,0,1,.281.333L7.125,9.188h5.792l2.895-5.313a.529.529,0,0,1,.261-.271.808.808,0,0,1,.344-.083.609.609,0,0,1,.562.323A.689.689,0,0,1,17,4.521L14.125,9.75a1.4,1.4,0,0,1-.542.562,1.489,1.489,0,0,1-.771.209H6.771l-.917,1.667a.2.2,0,0,0-.01.208.182.182,0,0,0,.177.1h8.833a.626.626,0,0,1,.469.208.655.655,0,0,1,.2.459.676.676,0,0,1-.667.666Z" transform="translate(201.793 1311.125)"/>
  </g>
</svg>
