<svg xmlns="http://www.w3.org/2000/svg" width="24.121" height="24.121" viewBox="0 0 24.121 24.121">
    <path data-name="Rectangle 6353" style="fill:none" d="M0 0h24v24H0z" transform="translate(.061 .061)"/>
    <path data-name="Path 2474" d="M17.94 17.94A10.07 10.07 0 0 1 12 20c-7 0-11-8-11-8a18.45 18.45 0 0 1 5.06-5.94M9.9 4.24A9.12 9.12 0 0 1 12 4c7 0 11 8 11 8a18.5 18.5 0 0 1-2.16 3.19m-6.72-1.07a3 3 0 1 1-4.24-4.24" style="stroke:#000;stroke-linecap:round;stroke-linejoin:round;stroke-width:1.5px;fill:none" transform="translate(.061 .061)"/>
    <path data-name="Line 155" transform="translate(1.061 1.061)" style="stroke:#000;stroke-linecap:round;stroke-linejoin:round;stroke-width:1.5px;fill:none" d="m0 0 22 22"/>
</svg>
