<svg xmlns="http://www.w3.org/2000/svg" width="241" height="241" viewBox="0 0 241 241">
    <defs>
        <clipPath id="clip-path">
            <path id="사각형_6717" data-name="사각형 6717" style="stroke-linecap:round;stroke-linejoin:round;stroke:#000;stroke-width:4px;fill:none" d="M0 0h47.418v56.422H0z"/>
        </clipPath>
        <clipPath id="clip-path-6">
            <path id="사각형_6714" data-name="사각형 6714" style="fill:#fff;stroke:#000;stroke-width:4px" d="M0 0h118.605v79.026H0z"/>
        </clipPath>
        <clipPath id="clip-path-7">
            <path id="사각형_6713" data-name="사각형 6713" style="fill:#fff;stroke:#000;stroke-width:4px" d="M0 0h118.604v79.026H0z"/>
        </clipPath>
        <clipPath id="clip-path-8">
            <path id="사각형_6712" data-name="사각형 6712" style="fill:#fff;stroke:#000;stroke-width:4px" d="M0 0h113.458v73.892H0z"/>
        </clipPath>
        <style>
            
        </style>
    </defs>
    <g id="그룹_12717" data-name="그룹 12717" transform="translate(-706 -669)">
        <g id="bg" style="fill:#f7f7f7">
            <path d="M119.5 239.5c-8.142 0-16.278-.82-24.184-2.438a119.397 119.397 0 0 1-22.526-6.992 120.013 120.013 0 0 1-20.383-11.064 120.86 120.86 0 0 1-17.76-14.653 120.861 120.861 0 0 1-14.653-17.76A120.013 120.013 0 0 1 8.93 166.21a119.397 119.397 0 0 1-6.992-22.526A120.884 120.884 0 0 1-.5 119.5c0-8.142.82-16.278 2.438-24.184A119.397 119.397 0 0 1 8.93 72.79a120.012 120.012 0 0 1 11.064-20.383 120.86 120.86 0 0 1 14.653-17.76 120.86 120.86 0 0 1 17.76-14.653A120.012 120.012 0 0 1 72.79 8.93a119.397 119.397 0 0 1 22.526-6.992A120.884 120.884 0 0 1 119.5-.5c8.142 0 16.278.82 24.184 2.438A119.397 119.397 0 0 1 166.21 8.93a120.013 120.013 0 0 1 20.384 11.064 120.861 120.861 0 0 1 17.759 14.653 120.86 120.86 0 0 1 14.653 17.76A120.013 120.013 0 0 1 230.07 72.79a119.397 119.397 0 0 1 6.992 22.526A120.884 120.884 0 0 1 239.5 119.5c0 8.142-.82 16.278-2.438 24.184a119.397 119.397 0 0 1-6.992 22.526 120.013 120.013 0 0 1-11.064 20.384 120.86 120.86 0 0 1-14.653 17.759 120.86 120.86 0 0 1-17.76 14.653 120.013 120.013 0 0 1-20.383 11.064 119.397 119.397 0 0 1-22.526 6.992A120.884 120.884 0 0 1 119.5 239.5z" style="stroke:none" transform="translate(707 670)"/>
            <path d="M119.5 0C53.502 0 0 53.502 0 119.5 0 185.498 53.502 239 119.5 239c65.998 0 119.5-53.502 119.5-119.5C239 53.502 185.498 0 119.5 0m0-1c8.175 0 16.345.824 24.284 2.448a119.898 119.898 0 0 1 22.62 7.022 120.513 120.513 0 0 1 20.47 11.11c6.38 4.31 12.38 9.261 17.832 14.714a121.362 121.362 0 0 1 14.714 17.833 120.514 120.514 0 0 1 11.11 20.469 119.897 119.897 0 0 1 7.022 22.62A121.384 121.384 0 0 1 240 119.5c0 8.175-.824 16.345-2.448 24.284a119.898 119.898 0 0 1-7.022 22.62 120.515 120.515 0 0 1-11.11 20.47c-4.31 6.38-9.261 12.38-14.714 17.832a121.362 121.362 0 0 1-17.833 14.714 120.515 120.515 0 0 1-20.469 11.11 119.898 119.898 0 0 1-22.62 7.022A121.383 121.383 0 0 1 119.5 240c-8.175 0-16.345-.824-24.284-2.448a119.897 119.897 0 0 1-22.62-7.022 120.514 120.514 0 0 1-20.47-11.11c-6.38-4.31-12.38-9.261-17.832-14.714a121.362 121.362 0 0 1-14.714-17.833 120.513 120.513 0 0 1-11.11-20.469 119.898 119.898 0 0 1-7.022-22.62A121.383 121.383 0 0 1-1 119.5c0-8.175.824-16.345 2.448-24.284a119.897 119.897 0 0 1 7.022-22.62 120.512 120.512 0 0 1 11.11-20.47c4.31-6.38 9.261-12.38 14.714-17.832A121.362 121.362 0 0 1 52.127 19.58 120.512 120.512 0 0 1 72.596 8.47a119.897 119.897 0 0 1 22.62-7.022A121.384 121.384 0 0 1 119.5-1z" style="fill:#dfdfdf;stroke:none" transform="translate(707 670)"/>
        </g>
        <g id="그룹_12736" data-name="그룹 12736" transform="translate(777.401 761.06)">
            <g id="그룹_12749" data-name="그룹 12749" transform="translate(.983 -4.261)">
                <g id="그룹_12747" data-name="그룹 12747" transform="translate(-42.385 15.807)">
                    <path id="사각형_6715" data-name="사각형 6715" transform="translate(8.672 43.473)" style="fill:#fff;stroke-linecap:round;stroke-linejoin:round;stroke:#000;stroke-width:4px" d="M0 0h33.085v10.172H0z"/>
                    <g id="그룹_12738" data-name="그룹 12738" transform="translate(.001)">
                        <g id="그룹_12737" data-name="그룹 12737" style="clip-path:url(#clip-path)">
                            <path id="사각형_6716" data-name="사각형 6716" transform="translate(8.671 43.473)" style="stroke-linecap:round;stroke-linejoin:round;stroke:#000;stroke-width:4px;fill:none" d="M0 0h33.085v10.172H0z"/>
                        </g>
                    </g>
                    <path id="사각형_6718" data-name="사각형 6718" transform="translate(2.777 33.298)" style="fill:#fff;stroke-linecap:round;stroke-linejoin:round;stroke:#000;stroke-width:4px" d="M0 0h33.085v10.172H0z"/>
                    <g id="그룹_12740" data-name="그룹 12740" transform="translate(.001)">
                        <g id="그룹_12739" data-name="그룹 12739" style="clip-path:url(#clip-path)">
                            <path id="사각형_6719" data-name="사각형 6719" transform="translate(2.776 33.298)" style="stroke-linecap:round;stroke-linejoin:round;stroke:#000;stroke-width:4px;fill:none" d="M0 0h33.085v10.172H0z"/>
                        </g>
                    </g>
                    <path id="사각형_6721" data-name="사각형 6721" transform="translate(10.298 23.123)" style="fill:#fff;stroke-linecap:round;stroke-linejoin:round;stroke:#000;stroke-width:4px" d="M0 0h33.085v10.172H0z"/>
                    <g id="그룹_12742" data-name="그룹 12742" transform="translate(.001)">
                        <g id="그룹_12741" data-name="그룹 12741" style="clip-path:url(#clip-path)">
                            <path id="사각형_6722" data-name="사각형 6722" transform="translate(10.297 23.124)" style="stroke-linecap:round;stroke-linejoin:round;stroke:#000;stroke-width:4px;fill:none" d="M0 0h33.085v10.172H0z"/>
                        </g>
                    </g>
                    <path id="사각형_6724" data-name="사각형 6724" transform="translate(5.789 12.951)" style="fill:#fff;stroke-linecap:round;stroke-linejoin:round;stroke:#000;stroke-width:4px" d="M0 0h33.085v10.172H0z"/>
                    <g id="그룹_12744" data-name="그룹 12744" transform="translate(.001)">
                        <g id="그룹_12743" data-name="그룹 12743" style="clip-path:url(#clip-path)">
                            <path id="사각형_6725" data-name="사각형 6725" transform="translate(5.788 12.951)" style="stroke-linecap:round;stroke-linejoin:round;stroke:#000;stroke-width:4px;fill:none" d="M0 0h33.085v10.172H0z"/>
                        </g>
                    </g>
                    <path id="사각형_6727" data-name="사각형 6727" transform="translate(11.557 2.776)" style="fill:#fff;stroke-linecap:round;stroke-linejoin:round;stroke:#000;stroke-width:4px" d="M0 0h33.085v10.172H0z"/>
                    <g id="그룹_12746" data-name="그룹 12746" transform="translate(.001)">
                        <g id="그룹_12745" data-name="그룹 12745" style="clip-path:url(#clip-path)">
                            <path id="사각형_6728" data-name="사각형 6728" transform="translate(11.556 2.776)" style="stroke-linecap:round;stroke-linejoin:round;stroke:#000;stroke-width:4px;fill:none" d="M0 0h33.085v10.172H0z"/>
                        </g>
                    </g>
                </g>
                <g id="그룹_12735" data-name="그룹 12735" transform="translate(-10.051 -6.799)" style="clip-path:url(#clip-path-6)">
                    <g id="그룹_12734" data-name="그룹 12734">
                        <g id="그룹_12733" data-name="그룹 12733" style="clip-path:url(#clip-path-7)">
                            <path id="패스_91796" data-name="패스 91796" d="M107.611 75.281H8.5a7.248 7.248 0 0 1-7.25-7.249V8.5A7.248 7.248 0 0 1 8.5 1.25h99.112a7.249 7.249 0 0 1 7.249 7.25v59.532a7.25 7.25 0 0 1-7.249 7.249" transform="translate(1.248 1.247)" style="fill:#fff;stroke:#000;stroke-width:4px"/>
                            <rect id="사각형_6709" data-name="사각형 6709" width="113.611" height="74.031" rx="3.628" transform="translate(2.497 2.498)" style="fill:#fff;stroke-linecap:round;stroke-linejoin:round;stroke:#000;stroke-width:4px"/>
                            <path id="사각형_6710" data-name="사각형 6710" transform="translate(2.498 16.211)" style="fill:#fff;stroke:#000;stroke-width:4px" d="M0 0h113.609v13.22H0z"/>
                            <path id="사각형_6711" data-name="사각형 6711" transform="translate(2.498 16.211)" style="fill:#fff;stroke-linecap:round;stroke-linejoin:round;stroke:#000;stroke-width:4px" d="M0 0h113.609v13.22H0z"/>
                            <path id="패스_91797" data-name="패스 91797" d="M49.785 32.635A7.084 7.084 0 0 1 52.6 27a7.119 7.119 0 1 0 0 11.273 7.084 7.084 0 0 1-2.815-5.637" transform="translate(41.103 25.468)" style="fill:#fff;stroke:#000;stroke-width:4px"/>
                            <path id="패스_91798" data-name="패스 91798" d="M49.785 32.635A7.084 7.084 0 0 1 52.6 27a7.119 7.119 0 1 0 0 11.273 7.084 7.084 0 0 1-2.815-5.638z" transform="translate(41.103 25.468)" style="fill:#fff;stroke-linecap:round;stroke-linejoin:round;stroke:#000;stroke-width:4px"/>
                            <path id="패스_91799" data-name="패스 91799" d="M51.2 25.516A7.045 7.045 0 0 0 46.9 27a7.048 7.048 0 0 1 0 11.271 7.045 7.045 0 0 0 4.3 1.483 7.118 7.118 0 1 0 0-14.237" transform="translate(46.809 25.468)" style="fill:#fff;stroke:#000;stroke-width:4px"/>
                            <path id="패스_91800" data-name="패스 91800" d="M51.2 25.516A7.045 7.045 0 0 0 46.9 27a7.048 7.048 0 0 1 0 11.271 7.045 7.045 0 0 0 4.3 1.483 7.118 7.118 0 1 0 0-14.237z" transform="translate(46.809 25.468)" style="fill:#fff;stroke-linecap:round;stroke-linejoin:round;stroke:#000;stroke-width:4px"/>
                            <path id="패스_91801" data-name="패스 91801" d="M51.118 31.895a7.084 7.084 0 0 0-2.818-5.637 7.05 7.05 0 0 0 0 11.273 7.084 7.084 0 0 0 2.815-5.637" transform="translate(45.403 26.209)" style="fill:#fff;stroke:#000;stroke-width:4px"/>
                            <ellipse id="타원_286" data-name="타원 286" cx="2.815" cy="5.637" rx="2.815" ry="5.637" transform="translate(90.889 52.467)" style="fill:#fff;stroke-linecap:round;stroke-linejoin:round;stroke:#000;stroke-width:4px"/>
                            <path id="선_221" data-name="선 221" transform="translate(14.988 41.953)" style="fill:#b9acea;stroke:#000;stroke-width:4px" d="M0 0h20.109"/>
                            <path id="선_222" data-name="선 222" transform="translate(14.988 41.953)" style="stroke-linecap:round;stroke-linejoin:round;stroke:#000;stroke-width:4px;fill:none" d="M0 0h20.109"/>
                            <path id="선_223" data-name="선 223" transform="translate(14.988 50.985)" style="fill:#b9acea;stroke:#000;stroke-width:4px" d="M0 0h7.499"/>
                            <path id="선_224" data-name="선 224" transform="translate(14.988 50.985)" style="stroke-linecap:round;stroke-linejoin:round;stroke:#000;stroke-width:4px;fill:none" d="M0 0h7.499"/>
                            <path id="선_225" data-name="선 225" transform="translate(31.348 50.985)" style="fill:#b9acea;stroke:#000;stroke-width:4px" d="M0 0h7.499"/>
                            <path id="선_226" data-name="선 226" transform="translate(31.348 50.985)" style="stroke-linecap:round;stroke-linejoin:round;stroke:#000;stroke-width:4px;fill:none" d="M0 0h7.499"/>
                            <path id="선_227" data-name="선 227" transform="translate(47.709 50.985)" style="fill:#b9acea;stroke:#000;stroke-width:4px" d="M0 0h7.499"/>
                            <path id="선_228" data-name="선 228" transform="translate(47.709 50.985)" style="stroke-linecap:round;stroke-linejoin:round;stroke:#000;stroke-width:4px;fill:none" d="M0 0h7.499"/>
                            <path id="선_229" data-name="선 229" transform="translate(64.069 50.985)" style="fill:#b9acea;stroke:#000;stroke-width:4px" d="M0 0h7.499"/>
                            <path id="선_230" data-name="선 230" transform="translate(64.069 50.985)" style="stroke-linecap:round;stroke-linejoin:round;stroke:#000;stroke-width:4px;fill:none" d="M0 0h7.499"/>
                        </g>
                    </g>
                </g>
                <g id="그룹_12748" data-name="그룹 12748" transform="translate(91.684 15.807)">
                    <path id="사각형_6715-2" data-name="사각형 6715" transform="translate(8.672 43.473)" style="fill:#fff;stroke-linecap:round;stroke-linejoin:round;stroke:#000;stroke-width:4px" d="M0 0h33.085v10.172H0z"/>
                    <g id="그룹_12738-2" data-name="그룹 12738" transform="translate(.001)">
                        <g id="그룹_12737-2" data-name="그룹 12737" style="clip-path:url(#clip-path)">
                            <path id="사각형_6716-2" data-name="사각형 6716" transform="translate(8.671 43.473)" style="stroke-linecap:round;stroke-linejoin:round;stroke:#000;stroke-width:4px;fill:none" d="M0 0h33.085v10.172H0z"/>
                        </g>
                    </g>
                    <path id="사각형_6718-2" data-name="사각형 6718" transform="translate(2.777 33.298)" style="fill:#fff;stroke-linecap:round;stroke-linejoin:round;stroke:#000;stroke-width:4px" d="M0 0h33.085v10.172H0z"/>
                    <g id="그룹_12740-2" data-name="그룹 12740" transform="translate(.001)">
                        <g id="그룹_12739-2" data-name="그룹 12739" style="clip-path:url(#clip-path)">
                            <path id="사각형_6719-2" data-name="사각형 6719" transform="translate(2.776 33.298)" style="stroke-linecap:round;stroke-linejoin:round;stroke:#000;stroke-width:4px;fill:none" d="M0 0h33.085v10.172H0z"/>
                        </g>
                    </g>
                    <path id="사각형_6721-2" data-name="사각형 6721" transform="translate(10.298 23.123)" style="fill:#fff;stroke-linecap:round;stroke-linejoin:round;stroke:#000;stroke-width:4px" d="M0 0h33.085v10.172H0z"/>
                    <g id="그룹_12742-2" data-name="그룹 12742" transform="translate(.001)">
                        <g id="그룹_12741-2" data-name="그룹 12741" style="clip-path:url(#clip-path)">
                            <path id="사각형_6722-2" data-name="사각형 6722" transform="translate(10.297 23.124)" style="stroke-linecap:round;stroke-linejoin:round;stroke:#000;stroke-width:4px;fill:none" d="M0 0h33.085v10.172H0z"/>
                        </g>
                    </g>
                </g>
            </g>
        </g>
    </g>
</svg>
