<svg xmlns="http://www.w3.org/2000/svg" width="49" height="49" viewBox="0 0 49 49">
    <g data-name="그룹 13258">
        <g data-name="그룹 13259">
            <g data-name="빼기 3" style="fill:none">
                <path d="M40.49 24.9H2a2 2 0 0 1-2-2v-6.3c2.93 0 5.311-1.862 5.311-4.149S2.928 8.3 0 8.3V2a2 2 0 0 1 2-2h38.49a2 2 0 0 1 2 2v6.3c-2.93 0-5.312 1.862-5.312 4.149s2.384 4.151 5.313 4.151v6.3a2 2 0 0 1-2.001 2z" style="stroke:none" transform="translate(3 12)"/>
                <path d="M40.49 23.396a.5.5 0 0 0 .5-.5v-4.937c-3.036-.568-5.311-2.823-5.311-5.511 0-2.687 2.275-4.942 5.312-5.51V2a.5.5 0 0 0-.5-.5H2a.5.5 0 0 0-.5.5v4.937c3.036.568 5.31 2.823 5.31 5.51S4.537 17.39 1.5 17.959v4.938a.5.5 0 0 0 .5.5h38.49m0 1.5H2c-1.103 0-2-.897-2-2v-6.3c2.93 0 5.31-1.86 5.31-4.148 0-2.288-2.382-4.15-5.31-4.15V2C0 .897.897 0 2 0h38.49c1.103 0 2 .897 2 2v6.299c-2.93 0-5.311 1.862-5.311 4.149 0 2.288 2.383 4.149 5.312 4.149v6.299c0 1.103-.898 2-2 2z" style="fill:#000;stroke:none" transform="translate(3 12)"/>
            </g>
            <path data-name="합치기 6" d="M16.205 36.17v-3.456a.726.726 0 0 1 1.451 0v3.456a.726.726 0 0 1-1.451 0zm0-8.177V22.9a.726.726 0 0 1 1.451 0v5.091a.726.726 0 0 1-1.451 0zm0-9.812v-3.456a.726.726 0 0 1 1.451 0v3.456a.726.726 0 0 1-1.451 0z"/>
        </g>
    </g>
</svg>
