<svg xmlns="http://www.w3.org/2000/svg" width="24" height="24" viewBox="0 0 24 24">
    <path data-name="빼기 16" d="M18 20H6a2 2 0 0 1-2-2V6a2 2 0 0 1 2-2h5v1.5H6a.5.5 0 0 0-.5.5v12a.5.5 0 0 0 .5.5h12a.5.5 0 0 0 .5-.5v-4.5H20V18a2 2 0 0 1-2 2z"/>
    <path data-name="선 191" transform="translate(12.5 4.5)" style="stroke:#000;stroke-linecap:round;stroke-width:1.5px;fill:none" d="m0 8 7-8"/>
    <path data-name="패스 91676" d="M85 12h6v6" transform="translate(-71 -8)" style="stroke-linejoin:round;stroke:#000;stroke-linecap:round;stroke-width:1.5px;fill:none"/>
</svg>
