<svg xmlns="http://www.w3.org/2000/svg" width="241" height="241" viewBox="0 0 241 241">
    <defs>
        <clipPath id="iuq3ah9gwa">
            <path data-name="사각형 6708" style="stroke-linejoin:round;stroke:#000;stroke-linecap:round;stroke-width:4px;fill:#fff" d="M0 0h140.911v114.846H0z"/>
        </clipPath>
    </defs>
    <g data-name="그룹 12717">
        <g style="fill:#f7f7f7">
            <path d="M119.5 239.5c-8.142 0-16.278-.82-24.184-2.438a119.397 119.397 0 0 1-22.526-6.992 120.013 120.013 0 0 1-20.383-11.064 120.86 120.86 0 0 1-17.76-14.653 120.861 120.861 0 0 1-14.653-17.76A120.013 120.013 0 0 1 8.93 166.21a119.397 119.397 0 0 1-6.992-22.526A120.884 120.884 0 0 1-.5 119.5c0-8.142.82-16.278 2.438-24.184A119.397 119.397 0 0 1 8.93 72.79a120.012 120.012 0 0 1 11.064-20.383 120.86 120.86 0 0 1 14.653-17.76 120.86 120.86 0 0 1 17.76-14.653A120.012 120.012 0 0 1 72.79 8.93a119.397 119.397 0 0 1 22.526-6.992A120.884 120.884 0 0 1 119.5-.5c8.142 0 16.278.82 24.184 2.438A119.397 119.397 0 0 1 166.21 8.93a120.013 120.013 0 0 1 20.384 11.064 120.861 120.861 0 0 1 17.759 14.653 120.86 120.86 0 0 1 14.653 17.76A120.013 120.013 0 0 1 230.07 72.79a119.397 119.397 0 0 1 6.992 22.526A120.884 120.884 0 0 1 239.5 119.5c0 8.142-.82 16.278-2.438 24.184a119.397 119.397 0 0 1-6.992 22.526 120.013 120.013 0 0 1-11.064 20.384 120.86 120.86 0 0 1-14.653 17.759 120.86 120.86 0 0 1-17.76 14.653 120.013 120.013 0 0 1-20.383 11.064 119.397 119.397 0 0 1-22.526 6.992A120.884 120.884 0 0 1 119.5 239.5z" style="stroke:none" transform="translate(1 1)"/>
            <path d="M119.5 0C53.502 0 0 53.502 0 119.5 0 185.498 53.502 239 119.5 239c65.998 0 119.5-53.502 119.5-119.5C239 53.502 185.498 0 119.5 0m0-1c8.175 0 16.345.824 24.284 2.448a119.898 119.898 0 0 1 22.62 7.022 120.513 120.513 0 0 1 20.47 11.11c6.38 4.31 12.38 9.261 17.832 14.714a121.362 121.362 0 0 1 14.714 17.833 120.514 120.514 0 0 1 11.11 20.469 119.897 119.897 0 0 1 7.022 22.62A121.384 121.384 0 0 1 240 119.5c0 8.175-.824 16.345-2.448 24.284a119.898 119.898 0 0 1-7.022 22.62 120.515 120.515 0 0 1-11.11 20.47c-4.31 6.38-9.261 12.38-14.714 17.832a121.362 121.362 0 0 1-17.833 14.714 120.515 120.515 0 0 1-20.469 11.11 119.898 119.898 0 0 1-22.62 7.022A121.383 121.383 0 0 1 119.5 240c-8.175 0-16.345-.824-24.284-2.448a119.897 119.897 0 0 1-22.62-7.022 120.514 120.514 0 0 1-20.47-11.11c-6.38-4.31-12.38-9.261-17.832-14.714a121.362 121.362 0 0 1-14.714-17.833 120.513 120.513 0 0 1-11.11-20.469 119.898 119.898 0 0 1-7.022-22.62A121.383 121.383 0 0 1-1 119.5c0-8.175.824-16.345 2.448-24.284a119.897 119.897 0 0 1 7.022-22.62 120.512 120.512 0 0 1 11.11-20.47c4.31-6.38 9.261-12.38 14.714-17.832A121.362 121.362 0 0 1 52.127 19.58 120.512 120.512 0 0 1 72.596 8.47a119.897 119.897 0 0 1 22.62-7.022A121.384 121.384 0 0 1 119.5-1z" style="fill:#dfdfdf;stroke:none" transform="translate(1 1)"/>
        </g>
        <g data-name="그룹 12728">
            <g data-name="그룹 12727" transform="translate(50.045 63.077)" style="clip-path:url(#iuq3ah9gwa)">
                <path data-name="패스 91782" d="M87.83 110.342H5.6a10 10 0 0 0 10-10V1.25h82.233v99.089a10 10 0 0 1-10 10" transform="translate(7.284 1.627)" style="stroke-linejoin:round;stroke:#000;stroke-linecap:round;stroke-width:4px;fill:#fff"/>
                <path data-name="패스 91783" d="M87.83 110.342H5.6a10 10 0 0 0 10-10V1.25h82.233v99.089a10 10 0 0 1-10.003 10.003z" transform="translate(7.284 1.627)" style="stroke-linejoin:round;stroke:#000;stroke-linecap:round;stroke-width:4px;fill:#fff"/>
                <path data-name="패스 91784" d="M1.25 33.237V58.7a10 10 0 0 0 20.006 0V33.237z" transform="translate(1.627 43.262)" style="stroke-linejoin:round;stroke:#000;stroke-linecap:round;stroke-width:4px;fill:#fff"/>
                <path data-name="패스 91785" d="M1.25 33.237V58.7a10 10 0 0 0 20.006 0V33.237z" transform="translate(1.627 43.262)" style="stroke-linejoin:round;stroke:#000;stroke-linecap:round;stroke-width:4px;fill:#fff"/>
                <path data-name="패스 91786" d="m28.068 8.065-7.294 7.294-5.423-5.42" transform="translate(19.982 10.498)" style="stroke-linejoin:round;stroke:#000;stroke-linecap:round;stroke-width:4px;fill:#fff"/>
                <path data-name="패스 91787" d="m28.068 8.065-7.294 7.294-5.423-5.42" transform="translate(19.982 10.498)" style="stroke-linejoin:round;stroke:#000;stroke-linecap:round;stroke-width:4px;fill:#fff"/>
                <path data-name="선 213" transform="translate(58.999 22.21)" style="stroke:#000;stroke-linecap:round;stroke-width:4px;fill:#fff" d="M0 0h32.271"/>
                <path data-name="선 214" transform="translate(58.999 22.21)" style="fill:none;stroke-linejoin:round;stroke:#000;stroke-linecap:round;stroke-width:4px" d="M0 0h32.271"/>
                <path data-name="패스 91788" d="m28.068 17.181-7.294 7.294-5.423-5.42" transform="translate(19.982 22.364)" style="stroke-linejoin:round;stroke:#000;stroke-linecap:round;stroke-width:4px;fill:#fff"/>
                <path data-name="패스 91789" d="m28.068 17.181-7.294 7.294-5.423-5.42" transform="translate(19.982 22.364)" style="stroke-linejoin:round;stroke:#000;stroke-linecap:round;stroke-width:4px;fill:#fff"/>
                <path data-name="선 215" transform="translate(58.999 43.192)" style="stroke:#000;stroke-linecap:round;stroke-width:4px;fill:#fff" d="M0 0h32.271"/>
                <path data-name="선 216" transform="translate(58.999 43.192)" style="fill:none;stroke-linejoin:round;stroke:#000;stroke-linecap:round;stroke-width:4px" d="M0 0h32.271"/>
                <path data-name="패스 91790" d="m28.068 26.3-7.294 7.294-5.423-5.42" transform="translate(19.982 34.229)" style="stroke-linejoin:round;stroke:#000;stroke-linecap:round;stroke-width:4px;fill:#fff"/>
                <path data-name="패스 91791" d="m28.068 26.3-7.294 7.294-5.423-5.42" transform="translate(19.982 34.229)" style="stroke-linejoin:round;stroke:#000;stroke-linecap:round;stroke-width:4px;fill:#fff"/>
                <path data-name="선 217" transform="translate(58.999 64.174)" style="stroke:#000;stroke-linecap:round;stroke-width:4px;fill:#fff" d="M0 0h32.271"/>
                <path data-name="선 218" transform="translate(58.999 64.174)" style="fill:none;stroke-linejoin:round;stroke:#000;stroke-linecap:round;stroke-width:4px" d="M0 0h32.271"/>
                <path data-name="패스 91792" d="m28.068 35.414-7.294 7.294-5.423-5.42" transform="translate(19.982 46.095)" style="stroke-linejoin:round;stroke:#000;stroke-linecap:round;stroke-width:4px;fill:#fff"/>
                <path data-name="패스 91793" d="m28.068 35.414-7.294 7.294-5.423-5.42" transform="translate(19.982 46.095)" style="stroke-linejoin:round;stroke:#000;stroke-linecap:round;stroke-width:4px;fill:#fff"/>
                <path data-name="선 219" transform="translate(58.999 85.156)" style="stroke:#000;stroke-linecap:round;stroke-width:4px;fill:#fff" d="M0 0h32.271"/>
                <path data-name="선 220" transform="translate(58.999 85.156)" style="fill:none;stroke-linejoin:round;stroke:#000;stroke-linecap:round;stroke-width:4px" d="M0 0h32.271"/>
                <path data-name="사각형 6706" transform="rotate(-45 140.197 -72.286)" style="stroke-linejoin:round;stroke:#000;stroke-linecap:round;stroke-width:4px;fill:#fff" d="M0 0h52.255v12.597H0z"/>
                <path data-name="사각형 6707" transform="rotate(-45 140.197 -72.286)" style="stroke-linejoin:round;stroke:#000;stroke-linecap:round;stroke-width:4px;fill:#fff" d="M0 0h52.255v12.597H0z"/>
                <path data-name="패스 91794" d="m35.617 52.981 10.2-19.108 8.907 8.907z" transform="translate(46.359 44.089)" style="stroke-linejoin:round;stroke:#000;stroke-linecap:round;stroke-width:4px;fill:#fff"/>
                <path data-name="패스 91795" d="m35.617 52.981 10.2-19.108 8.907 8.907z" transform="translate(46.359 44.089)" style="stroke-linejoin:round;stroke:#000;stroke-linecap:round;stroke-width:4px;fill:#fff"/>
            </g>
        </g>
    </g>
</svg>
