<svg xmlns="http://www.w3.org/2000/svg" width="30" height="30" viewBox="0 0 30 30">
    <path data-name="사각형 6476" style="fill:none" d="M0 0h30v30H0z"/>
    <path data-name="패스 91611" d="M24.374 3.75h-2.812v-.937a.938.938 0 0 0-1.875 0v.938h-9.375v-.937a.938.938 0 0 0-1.875 0v.938H5.624a1.877 1.877 0 0 0-1.875 1.875v18.751a1.877 1.877 0 0 0 1.875 1.875h18.75a1.877 1.877 0 0 0 1.875-1.875V5.625a1.877 1.877 0 0 0-1.875-1.875zM12.187 22.031a2.794 2.794 0 0 1-1.988-.823.939.939 0 1 1 1.326-1.33.937.937 0 1 0 .662-1.6H12.072l-.058-.009-.032-.007-.053-.014-.032-.009-.052-.019-.028-.011-.062-.031-.017-.009q-.037-.02-.073-.044l-.023-.017-.041-.03-.041-.036-.029-.027-.026-.028a.942.942 0 0 1-.229-.436v-.009c0-.016-.005-.032-.008-.048l-.007-.044c-.002-.015 0-.024 0-.037v-.151c0-.019 0-.026.005-.039s0-.035.008-.052.006-.027.009-.041l.012-.048c.004-.016.009-.028.014-.042l.016-.044.019-.042.02-.041a.477.477 0 0 1 .025-.043l.022-.036.032-.044.019-.026.656-.821h-1.337a.937.937 0 0 1 0-1.875h3.281a.938.938 0 0 1 .732 1.523l-1.039 1.294a2.812 2.812 0 0 1-1.568 5.146zm7.5-.937a.938.938 0 0 1-1.875 0v-4.216l-.375.281a.938.938 0 1 1-1.125-1.5l1.875-1.406a.938.938 0 0 1 1.5.75zm4.687-11.716H5.624v-3.75h2.813v.938a.938.938 0 0 0 1.875 0v-.937h9.375v.938a.938.938 0 0 0 1.875 0V5.63h2.813z"/>
</svg>
