<svg xmlns="http://www.w3.org/2000/svg" width="40" height="40" viewBox="0 0 40 40">
    <path data-name="사각형 6492" style="fill:none" d="M0 0h40v40H0z"/>
    <path data-name="패스 91624" d="M92.059 94.885a11.116 11.116 0 0 0 16.153 5.869l3.837 1.1a.926.926 0 0 0 1.144-1.145l-1.1-3.837a11.112 11.112 0 0 0-8.948-16.763A11.117 11.117 0 0 1 92.667 94.9q-.306 0-.608-.016z" transform="translate(-77.855 -67.745)" style="fill:#5ba6d2;opacity:.2"/>
    <path data-name="패스 91625" d="M25.55 48.83a11.1 11.1 0 1 1 3.885 3.885h0l-3.837 1.1a.926.926 0 0 1-1.144-1.144l1.1-3.837z" transform="translate(-20.293 -27.113)" style="stroke:#000;stroke-linecap:round;stroke-linejoin:round;stroke-width:2px;fill:none"/>
    <path data-name="패스 91626" d="M92.059 94.885a11.116 11.116 0 0 0 16.153 5.869h0l3.837 1.1a.926.926 0 0 0 1.144-1.144l-1.1-3.837h0a11.112 11.112 0 0 0-8.948-16.763" transform="translate(-77.855 -67.746)" style="stroke:#000;stroke-linecap:round;stroke-linejoin:round;stroke-width:2px;fill:none"/>
</svg>
