<svg xmlns="http://www.w3.org/2000/svg" width="20" height="20" viewBox="0 0 20 20">
    <g data-name="Icon feather-lock">
        <g data-name="패스 144" style="stroke-linecap:round;stroke-linejoin:round;fill:none">
            <path d="M3.75 8.25h10.5a1.566 1.566 0 0 1 1.5 1.625v5.688a1.566 1.566 0 0 1-1.5 1.625H3.75a1.566 1.566 0 0 1-1.5-1.625V9.875a1.566 1.566 0 0 1 1.5-1.625z" style="stroke:none" transform="translate(.75 .812)"/>
            <path d="M3.786 9.75a.207.207 0 0 0-.036.125v5.688c0 .064.021.105.036.124h10.428a.207.207 0 0 0 .036-.124V9.875a.207.207 0 0 0-.036-.125H3.786m-.036-1.5h10.5c.828 0 1.5.728 1.5 1.625v5.688c0 .897-.672 1.624-1.5 1.624H3.75c-.828 0-1.5-.727-1.5-1.625V9.875c0-.897.672-1.625 1.5-1.625z" style="fill:#a1a1a1;stroke:none" transform="translate(.75 .812)"/>
        </g>
        <path data-name="패스 145" d="M5.25 8.25v-3a3.75 3.75 0 0 1 7.5 0v3" transform="translate(.75 1.5)" style="stroke:#a1a1a1;stroke-width:1.5px;stroke-linecap:round;stroke-linejoin:round;fill:none"/>
    </g>
    <path data-name="사각형 93" style="fill:none" d="M0 0h20v20H0z"/>
</svg>
