<svg id="건강식품" xmlns="http://www.w3.org/2000/svg" width="40" height="40" viewBox="0 0 40 40">
  <defs>
    <style>
      .cls-1, .cls-2 {
        fill: none;
      }

      .cls-2, .cls-3 {
        stroke: #1d1d1b;
        stroke-linejoin: round;
        stroke-width: 1.5px;
      }

      .cls-3 {
        fill: #eba9cd;
      }
    </style>
  </defs>
  <rect id="사각형_6718" data-name="사각형 6718" class="cls-1" width="40" height="40"/>
  <g id="그룹_11685" data-name="그룹 11685" transform="translate(-2372.129 -81.854)">
    <path id="패스_91749" data-name="패스 91749" class="cls-2" d="M2390.722,98.635l2.574,8.608,3.9-10.471,1.882,7.1h3.676a8.541,8.541,0,0,0,1.378-2.249c1.491-4.117-.3-8.8-3.991-10.461-2.846-1.279-5.989,1.695-7.966,4.052-1.978-2.357-5.12-5.331-7.966-4.052-3.695,1.661-5.482,6.344-3.992,10.461a8.543,8.543,0,0,0,1.378,2.249h6.354Z"/>
    <path id="패스_91750" data-name="패스 91750" class="cls-3" d="M2399.082,103.871l-1.882-7.1-3.9,10.471-2.574-8.608-2.769,5.236H2381.6c3.272,4.106,10.58,9.291,10.58,9.291s7.308-5.185,10.579-9.291Z"/>
    <path id="패스_91751" data-name="패스 91751" class="cls-2" d="M2374.128,103.871h13.824l2.77-5.235,2.573,8.607,3.9-10.471,1.882,7.1H2409.5"/>
  </g>
</svg>
