<svg data-name="Component 507 – 1" xmlns="http://www.w3.org/2000/svg" width="60" height="60" viewBox="0 0 60 60">
    <path data-name="Path 2480" d="M0 30a30 30 0 1 1 30 30A30 30 0 0 1 0 30z" style="fill:#fc0;fill-rule:evenodd"/>
    <path data-name="Path 91663" d="M336.294 129.147h-13a1.576 1.576 0 0 0-1.58 1.571v12.89a1.576 1.576 0 0 0 1.58 1.571h5.992a9.71 9.71 0 0 1-1.611 4.682 18.809 18.809 0 0 1-3.287 3.526.862.862 0 0 0-.306.632.9.9 0 0 0 .223.531l4.179 4.685a1.039 1.039 0 0 0 .371.253.662.662 0 0 0 .552-.063 21 21 0 0 0 8.464-16.319v-12.389a1.576 1.576 0 0 0-1.581-1.571" transform="translate(-299.797 -112.332)" style="fill:#fff"/>
</svg>
