<svg data-name="icon-mileage point" xmlns="http://www.w3.org/2000/svg" width="49" height="49" viewBox="0 0 49 49">
    <path style="fill:none" d="M0 0h49v49H0z"/>
    <g data-name="그룹 13257">
        <g data-name="그룹 11117">
            <g data-name="빼기 18" style="stroke-linejoin:round;fill:none">
                <path d="M13.84 15.692C6.517 15.692.448 12.45.024 8.311H0V0h.12C.578 4.125 6.6 7.354 13.84 7.354S27.1 4.123 27.56 0h.12v8.311h-.024c-.424 4.139-6.493 7.381-13.816 7.381z" style="stroke:none" transform="translate(7.819 14.392)"/>
                <path d="M13.84 14.192c3.3 0 6.421-.696 8.789-1.961 2.096-1.12 3.385-2.605 3.535-4.073.004-.039.01-.078.016-.116V5.054a13.062 13.062 0 0 1-2.23 1.491c-2.777 1.49-6.368 2.31-10.11 2.31-3.742 0-7.333-.82-10.11-2.31-.839-.449-1.585-.949-2.23-1.49v2.987c.007.038.013.077.017.116.15 1.469 1.438 2.953 3.535 4.073 2.367 1.265 5.488 1.961 8.788 1.961m0 1.5C6.517 15.692.448 12.45.024 8.312H0V0h.12c.458 4.125 6.484 7.354 13.72 7.354 7.236 0 13.262-3.231 13.72-7.354h.12v8.311h-.024c-.424 4.14-6.493 7.381-13.816 7.381z" style="fill:#000;stroke:none" transform="translate(7.819 14.392)"/>
            </g>
            <g data-name="빼기 19" style="stroke-linejoin:round;fill:none">
                <path d="M13.84 15.692C6.517 15.692.448 12.45.024 8.311H0V0h.12C.578 4.125 6.6 7.354 13.84 7.354S27.1 4.123 27.56 0h.12v8.311h-.024c-.424 4.139-6.493 7.381-13.816 7.381z" style="stroke:none" transform="translate(7.788 20.727)"/>
                <path d="M13.84 14.192c3.3 0 6.421-.696 8.789-1.961 2.096-1.12 3.385-2.605 3.535-4.073.004-.039.01-.078.016-.116V5.054a13.062 13.062 0 0 1-2.23 1.491c-2.777 1.49-6.368 2.31-10.11 2.31-3.742 0-7.333-.82-10.11-2.31-.839-.449-1.585-.949-2.23-1.49v2.987c.007.038.013.077.017.116.15 1.469 1.438 2.953 3.535 4.073 2.367 1.265 5.488 1.961 8.788 1.961m0 1.5C6.517 15.692.448 12.45.024 8.312H0V0h.12c.458 4.125 6.484 7.354 13.72 7.354 7.236 0 13.262-3.231 13.72-7.354h.12v8.311h-.024c-.424 4.14-6.493 7.381-13.816 7.381z" style="fill:#000;stroke:none" transform="translate(7.788 20.727)"/>
            </g>
            <g data-name="타원 268" transform="translate(7.819 7)" style="stroke:#000;stroke-width:1.5px;stroke-linejoin:round;fill:none">
                <ellipse cx="13.809" cy="7.919" rx="13.809" ry="7.919" style="stroke:none"/>
                <ellipse cx="13.809" cy="7.919" rx="13.059" ry="7.169" style="fill:none"/>
            </g>
        </g>
        <g transform="translate(24.874 25.969)">
            <circle data-name="타원 224" cx="8" cy="8" r="8"/>
            <path data-name="패스 91604" d="M.84 0h2.044v-3.22h1.792c2.268 0 3.584-1.372 3.584-3.332a3.238 3.238 0 0 0-3.56-3.36H.84zm2.044-4.872V-8.2H4.34a1.548 1.548 0 0 1 1.792 1.648 1.586 1.586 0 0 1-1.792 1.68z" transform="translate(4 13)" style="fill:#fff"/>
        </g>
    </g>
</svg>
