<svg xmlns="http://www.w3.org/2000/svg" width="24" height="24" viewBox="0 0 24 24">
    <path data-name="사각형 41" style="fill:none" d="M0 0h24v24H0z"/>
    <g data-name="Icon feather-share-2">
        <g data-name="패스 128" style="fill:none">
            <path d="M21 5a3 3 0 1 1-3-3 3 3 0 0 1 3 3z" style="stroke:none"/>
            <path d="M18 3.5c-.827 0-1.5.673-1.5 1.5s.673 1.5 1.5 1.5 1.5-.673 1.5-1.5-.673-1.5-1.5-1.5M18 2a3 3 0 1 1 0 6 3 3 0 0 1 0-6z" style="fill:#000;stroke:none"/>
        </g>
        <g data-name="패스 129" style="fill:none">
            <path d="M9 12a3 3 0 1 1-3-3 3 3 0 0 1 3 3z" style="stroke:none"/>
            <path d="M6 10.5c-.827 0-1.5.673-1.5 1.5s.673 1.5 1.5 1.5 1.5-.673 1.5-1.5-.673-1.5-1.5-1.5M6 9a3 3 0 1 1 0 6 3 3 0 0 1 0-6z" style="fill:#000;stroke:none"/>
        </g>
        <g data-name="패스 130" style="fill:none">
            <path d="M21 19a3 3 0 1 1-3-3 3 3 0 0 1 3 3z" style="stroke:none"/>
            <path d="M18 17.5c-.827 0-1.5.673-1.5 1.5s.673 1.5 1.5 1.5 1.5-.673 1.5-1.5-.673-1.5-1.5-1.5m0-1.5a3 3 0 1 1 0 6 3 3 0 0 1 0-6z" style="fill:#000;stroke:none"/>
        </g>
        <path data-name="패스 131" d="m8.59 13.51 6.83 3.98" style="stroke:#000;stroke-linejoin:round;stroke-width:1.5px;fill:none"/>
        <path data-name="패스 132" d="m15.41 6.51-6.82 3.98" style="stroke:#000;stroke-linejoin:round;stroke-width:1.5px;fill:none"/>
    </g>
</svg>
