<svg xmlns="http://www.w3.org/2000/svg" width="24" height="24" viewBox="0 0 24 24">
    <path data-name="사각형 40" style="fill:none" d="M0 0h24v24H0z"/>
    <g data-name="Icon feather-heart">
        <path d="m12 20.17-7.25-7.25-1.06-1.06a4.757 4.757 0 0 1 0-6.72A4.72 4.72 0 0 1 7.05 3.75a4.72 4.72 0 0 1 3.36 1.391l1.06 1.06.53.53.53-.53 1.06-1.06a4.719 4.719 0 0 1 3.36-1.392c1.27 0 2.462.495 3.36 1.392a4.719 4.719 0 0 1 1.392 3.36c0 1.27-.495 2.462-1.392 3.36l-1.06 1.06L12 20.17z" style="stroke:none" transform="translate(.451 .002)"/>
        <path d="M16.95 4.498a3.974 3.974 0 0 0-2.83 1.173L12 7.79l-2.12-2.12a3.975 3.975 0 0 0-2.83-1.172A3.975 3.975 0 0 0 4.22 5.67a4.006 4.006 0 0 0 0 5.658L12 19.11l7.78-7.78A3.974 3.974 0 0 0 20.952 8.5a3.974 3.974 0 0 0-1.173-2.83 3.974 3.974 0 0 0-2.829-1.172m0-1.5c1.408 0 2.816.537 3.89 1.612a5.5 5.5 0 0 1 0 7.78L12 21.23l-8.84-8.84a5.501 5.501 0 0 1 7.78-7.78L12 5.67l1.06-1.06a5.483 5.483 0 0 1 3.89-1.612z" style="fill:#000;stroke:none" transform="translate(.451 .002)"/>
    </g>
</svg>
