<svg xmlns="http://www.w3.org/2000/svg" width="60" height="60" viewBox="0 0 60 60">
    <g data-name="Group 11027">
        <path data-name="Path 2480" d="M0 30a30 30 0 1 1 30 30A30 30 0 0 1 0 30z" style="fill:#1977f3;fill-rule:evenodd"/>
        <path data-name="Path 91658" d="m4210.166 2796.17.9-5.846h-5.607v-3.793c0-1.6.782-3.159 3.3-3.159h2.55v-4.972a31.08 31.08 0 0 0-4.527-.4c-4.617 0-7.638 2.8-7.638 7.868v4.456H4194v5.846h5.135v14.13a20.3 20.3 0 0 0 3.159.244 20.661 20.661 0 0 0 3.159-.244v-14.13z" transform="translate(-4172.648 -2764.271)" style="fill:#fff"/>
    </g>
</svg>
