<svg xmlns="http://www.w3.org/2000/svg" width="15.927" height="20" viewBox="0 0 15.927 20">
    <path data-name="Path 91571" d="M15.219 11.785h-.01a1.127 1.127 0 0 0-.215-.029 1.071 1.071 0 0 0-.141-.018H9.929a1.1 1.1 0 0 0-.138.014 1.179 1.179 0 0 0-.152 0l-4.116.36-.721-1.98h6.381a.938.938 0 0 0 .958-.958v-.011a.938.938 0 0 0-.958-.958H4.101l-1.22-3.352V1.442a1.437 1.437 0 1 0-2.874 0v3.587a1.827 1.827 0 0 0 .1.525 1.8 1.8 0 0 0 .078.287l3.336 9.165a1.825 1.825 0 0 0 .274.46 1.306 1.306 0 0 0 1.16.555h3.056v2.462H4.077a.7.7 0 0 0-.718.718v.085a.7.7 0 0 0 .718.718h9.765a.7.7 0 0 0 .718-.718v-.085a.7.7 0 0 0-.718-.718H9.908v-2.462h4.4a.883.883 0 0 0 .962-.706l.63-2.352a.938.938 0 0 0-.678-1.173"/>
</svg>
