<svg xmlns="http://www.w3.org/2000/svg" width="241" height="241" viewBox="0 0 241 241">
    <defs>
        <clipPath id="nqvj58e0aa">
            <path data-name="사각형 6702" style="stroke:#000;stroke-linecap:round;stroke-linejoin:round;stroke-width:4px;fill:none" d="M0 0h153.94v125.251H0z"/>
        </clipPath>
    </defs>
    <g data-name="그룹 12717">
        <g style="fill:#f7f7f7">
            <path d="M119.5 239.5c-8.142 0-16.278-.82-24.184-2.438a119.397 119.397 0 0 1-22.526-6.992 120.013 120.013 0 0 1-20.383-11.064 120.86 120.86 0 0 1-17.76-14.653 120.861 120.861 0 0 1-14.653-17.76A120.013 120.013 0 0 1 8.93 166.21a119.397 119.397 0 0 1-6.992-22.526A120.884 120.884 0 0 1-.5 119.5c0-8.142.82-16.278 2.438-24.184A119.397 119.397 0 0 1 8.93 72.79a120.012 120.012 0 0 1 11.064-20.383 120.86 120.86 0 0 1 14.653-17.76 120.86 120.86 0 0 1 17.76-14.653A120.012 120.012 0 0 1 72.79 8.93a119.397 119.397 0 0 1 22.526-6.992A120.884 120.884 0 0 1 119.5-.5c8.142 0 16.278.82 24.184 2.438A119.397 119.397 0 0 1 166.21 8.93a120.013 120.013 0 0 1 20.384 11.064 120.861 120.861 0 0 1 17.759 14.653 120.86 120.86 0 0 1 14.653 17.76A120.013 120.013 0 0 1 230.07 72.79a119.397 119.397 0 0 1 6.992 22.526A120.884 120.884 0 0 1 239.5 119.5c0 8.142-.82 16.278-2.438 24.184a119.397 119.397 0 0 1-6.992 22.526 120.013 120.013 0 0 1-11.064 20.384 120.86 120.86 0 0 1-14.653 17.759 120.86 120.86 0 0 1-17.76 14.653 120.013 120.013 0 0 1-20.383 11.064 119.397 119.397 0 0 1-22.526 6.992A120.884 120.884 0 0 1 119.5 239.5z" style="stroke:none" transform="translate(1 1)"/>
            <path d="M119.5 0C53.502 0 0 53.502 0 119.5 0 185.498 53.502 239 119.5 239c65.998 0 119.5-53.502 119.5-119.5C239 53.502 185.498 0 119.5 0m0-1c8.175 0 16.345.824 24.284 2.448a119.898 119.898 0 0 1 22.62 7.022 120.513 120.513 0 0 1 20.47 11.11c6.38 4.31 12.38 9.261 17.832 14.714a121.362 121.362 0 0 1 14.714 17.833 120.514 120.514 0 0 1 11.11 20.469 119.897 119.897 0 0 1 7.022 22.62A121.384 121.384 0 0 1 240 119.5c0 8.175-.824 16.345-2.448 24.284a119.898 119.898 0 0 1-7.022 22.62 120.515 120.515 0 0 1-11.11 20.47c-4.31 6.38-9.261 12.38-14.714 17.832a121.362 121.362 0 0 1-17.833 14.714 120.515 120.515 0 0 1-20.469 11.11 119.898 119.898 0 0 1-22.62 7.022A121.383 121.383 0 0 1 119.5 240c-8.175 0-16.345-.824-24.284-2.448a119.897 119.897 0 0 1-22.62-7.022 120.514 120.514 0 0 1-20.47-11.11c-6.38-4.31-12.38-9.261-17.832-14.714a121.362 121.362 0 0 1-14.714-17.833 120.513 120.513 0 0 1-11.11-20.469 119.898 119.898 0 0 1-7.022-22.62A121.383 121.383 0 0 1-1 119.5c0-8.175.824-16.345 2.448-24.284a119.897 119.897 0 0 1 7.022-22.62 120.512 120.512 0 0 1 11.11-20.47c4.31-6.38 9.261-12.38 14.714-17.832A121.362 121.362 0 0 1 52.127 19.58 120.512 120.512 0 0 1 72.596 8.47a119.897 119.897 0 0 1 22.62-7.022A121.384 121.384 0 0 1 119.5-1z" style="fill:#dfdfdf;stroke:none" transform="translate(1 1)"/>
        </g>
        <g data-name="그룹 12725">
            <g data-name="그룹 12724">
                <path data-name="패스 91763" d="M51.209 71.427H32.957L18.216 13.6h25.623z" transform="translate(63.018 87.631)" style="fill:#fff;stroke:#000;stroke-linecap:round;stroke-linejoin:round;stroke-width:4px"/>
                <path data-name="패스 91764" d="M51.209 71.427H32.957L18.216 13.6h25.623z" transform="translate(63.018 87.631)" style="stroke:#000;stroke-linecap:round;stroke-linejoin:round;stroke-width:4px;fill:none"/>
                <path data-name="패스 91765" d="M54.925 71.427H36.673L29.3 13.6h25.625z" transform="translate(77.553 87.631)" style="fill:#fff;stroke:#000;stroke-linecap:round;stroke-linejoin:round;stroke-width:4px"/>
                <path data-name="패스 91766" d="M54.925 71.427H36.673L29.3 13.6h25.625z" transform="translate(77.553 87.631)" style="stroke:#000;stroke-linecap:round;stroke-linejoin:round;stroke-width:4px;fill:none"/>
                <path data-name="패스 91767" d="M58.642 71.427H40.391V13.6h25.621z" transform="translate(92.087 87.631)" style="fill:#fff;stroke:#000;stroke-linecap:round;stroke-linejoin:round;stroke-width:4px"/>
                <path data-name="패스 91768" d="M58.642 71.427H40.391V13.6h25.621z" transform="translate(92.087 87.631)" style="stroke:#000;stroke-linecap:round;stroke-linejoin:round;stroke-width:4px;fill:none"/>
                <path data-name="패스 91769" d="M66.54 71.427H48.289L55.658 13.6h25.624z" transform="translate(102.441 87.631)" style="fill:#fff;stroke:#000;stroke-linecap:round;stroke-linejoin:round;stroke-width:4px"/>
                <g data-name="그룹 12721">
                    <g data-name="그룹 12720" style="clip-path:url(#nqvj58e0aa)" transform="translate(39.139 69.804)">
                        <path data-name="패스 91770" d="M66.54 71.427H48.289L55.658 13.6h25.624z" transform="translate(63.302 17.827)" style="stroke:#000;stroke-linecap:round;stroke-linejoin:round;stroke-width:4px;fill:none"/>
                    </g>
                </g>
                <path data-name="패스 91771" d="M20.343 21.94h0z" transform="translate(65.807 98.565)" style="fill:#fff;stroke:#000;stroke-linecap:round;stroke-linejoin:round;stroke-width:4px"/>
                <path data-name="선 211" transform="translate(86.148 120.506)" style="stroke:#000;stroke-linecap:round;stroke-linejoin:round;stroke-width:4px;fill:none" d="M0 0h92.66"/>
                <path data-name="패스 91772" d="M22.469 30.282h0z" transform="translate(68.594 109.501)" style="fill:#fff;stroke:#000;stroke-linecap:round;stroke-linejoin:round;stroke-width:4px"/>
                <path data-name="선 212" transform="translate(91.062 139.782)" style="stroke:#000;stroke-linecap:round;stroke-linejoin:round;stroke-width:4px;fill:none" d="M0 0h82.832"/>
                <g data-name="그룹 12723">
                    <g data-name="그룹 12722" style="clip-path:url(#nqvj58e0aa)" transform="translate(39.139 69.804)">
                        <path data-name="패스 91773" d="M44.906 84.832 24.143 3.373H9.1" transform="translate(11.93 4.422)" style="stroke:#000;stroke-linecap:round;stroke-linejoin:round;stroke-width:4px;fill:none"/>
                        <path data-name="패스 91774" d="M110.585 55.483H26.646a8.43 8.43 0 1 1 0-16.86h79.317" transform="translate(23.879 50.631)" style="stroke:#000;stroke-linecap:round;stroke-linejoin:round;stroke-width:4px;fill:none"/>
                        <path data-name="패스 91775" d="M123.646 9.3H17.121l2.53 9.925h103.995a4.963 4.963 0 0 0 0-9.925" transform="translate(22.444 12.197)" style="fill:#fff;stroke:#000;stroke-linecap:round;stroke-linejoin:round;stroke-width:4px"/>
                        <path data-name="패스 91776" d="M123.646 9.3H17.121l2.53 9.925h103.995a4.963 4.963 0 0 0 0-9.925z" transform="translate(22.444 12.197)" style="stroke:#000;stroke-linecap:round;stroke-linejoin:round;stroke-width:4px;fill:none"/>
                        <path data-name="패스 91777" d="M39.268 54.043a8.124 8.124 0 1 1-8.125-8.125 8.125 8.125 0 0 1 8.125 8.125" transform="translate(30.177 60.194)" style="fill:#fff;stroke:#000;stroke-linecap:round;stroke-linejoin:round;stroke-width:4px"/>
                        <path data-name="패스 91778" d="M39.268 54.043a8.124 8.124 0 1 1-8.125-8.125 8.125 8.125 0 0 1 8.125 8.125z" transform="translate(30.177 60.194)" style="stroke:#000;stroke-linecap:round;stroke-linejoin:round;stroke-width:4px;fill:none"/>
                        <path data-name="패스 91779" d="M64.211 54.043a8.124 8.124 0 1 1-8.125-8.125 8.125 8.125 0 0 1 8.125 8.125" transform="translate(62.875 60.194)" style="fill:#fff;stroke:#000;stroke-linecap:round;stroke-linejoin:round;stroke-width:4px"/>
                        <path data-name="패스 91780" d="M64.211 54.043a8.124 8.124 0 1 1-8.125-8.125 8.125 8.125 0 0 1 8.125 8.125z" transform="translate(62.875 60.194)" style="stroke:#000;stroke-linecap:round;stroke-linejoin:round;stroke-width:4px;fill:none"/>
                        <path data-name="사각형 6703" transform="translate(2.889 2.889)" style="fill:#fff;stroke:#000;stroke-linecap:round;stroke-linejoin:round;stroke-width:4px" d="M0 0h23.012v9.81H0z"/>
                        <path data-name="사각형 6704" transform="translate(2.889 2.889)" style="stroke:#000;stroke-linecap:round;stroke-linejoin:round;stroke-width:4px;fill:none" d="M0 0h23.012v9.81H0z"/>
                    </g>
                </g>
            </g>
            <path data-name="패스 91781" d="M21.844 1.281a6.649 6.649 0 0 0-7.3 6.616 6.648 6.648 0 0 0-7.3-6.616 6.84 6.84 0 0 0-5.994 6.9 11.608 11.608 0 0 0 4.145 8.89l9.149 7.678 9.149-7.678a11.606 11.606 0 0 0 4.146-8.89 6.84 6.84 0 0 0-5.995-6.9" transform="translate(114.86 45.053)" style="fill:#fff;stroke:#000;stroke-linecap:round;stroke-linejoin:round;stroke-width:4px"/>
        </g>
    </g>
</svg>
