<svg xmlns="http://www.w3.org/2000/svg" width="36" height="36" viewBox="0 0 36 36">
    <path data-name="사각형 19" style="fill:none" d="M0 0h36v36H0z"/>
    <path data-name="Icon ionic-ios-star-half" d="M32.036 12.161H21.529l-3.193-9.529a1.157 1.157 0 0 0-2.171 0l-3.193 9.529H2.393A1.146 1.146 0 0 0 1.25 13.3a.84.84 0 0 0 .021.193 1.1 1.1 0 0 0 .479.807l8.636 6.086-3.315 9.639a1.146 1.146 0 0 0 .393 1.286 1.105 1.105 0 0 0 .643.279 1.4 1.4 0 0 0 .714-.257l8.429-6.007 8.429 6.007a1.338 1.338 0 0 0 .714.257 1.026 1.026 0 0 0 .636-.279 1.132 1.132 0 0 0 .393-1.286l-3.314-9.636 8.564-6.143.207-.179a1.2 1.2 0 0 0 .371-.764 1.21 1.21 0 0 0-1.214-1.142zm-3.386 2.514-5.7 4.093a2.006 2.006 0 0 0-.729 2.271l2.15 6.264a.287.287 0 0 1-.436.329l-5.529-3.943-.007-.007A2.664 2.664 0 0 1 17.25 21.5V6.539a.139.139 0 0 1 .271-.043l2.114 6.3a2 2 0 0 0 1.893 1.364h6.95a.285.285 0 0 1 .172.515z" transform="translate(.75 .625)" style="fill:#5ba6d2"/>
</svg>
