<svg data-name="그룹 10737" xmlns="http://www.w3.org/2000/svg" width="24" height="24" viewBox="0 0 24 24">
    <path data-name="패스 91612" d="M26.286 52.344a8.9 8.9 0 0 1 6.095 10.22l-.015.079a10.049 10.049 0 0 1-1.819 4.252l-.015.02A11.924 11.924 0 0 0 13.34 50.533l-.025.02a8.331 8.331 0 0 0-2.18 8.979l.02.045a5.248 5.248 0 0 0 10.03-2.188l-.015-2.267a2.735 2.735 0 0 1 1.43-2.411l.015-.01a4.614 4.614 0 0 1 3.658-.357z" transform="translate(-9.073 -47.591)" style="fill:#e50020"/>
    <path data-name="패스 91613" d="M17.169 63.126a8.957 8.957 0 0 1-6.155-10.235l.015-.079a10.037 10.037 0 0 1 1.839-4.257l.01-.02a12 12 0 0 0 17.356 16.407l.025-.025a8.317 8.317 0 0 0 2.2-8.989l-.02-.035a5.3 5.3 0 0 0-10.119 2.178l.015 2.272a2.76 2.76 0 0 1-1.448 2.421h-.015a4.662 4.662 0 0 1-2.269.58 4.367 4.367 0 0 1-1.424-.223z" transform="translate(-10.317 -43.893)" style="fill:#00428b"/>
</svg>
