<svg data-name="Icon feather-gift" xmlns="http://www.w3.org/2000/svg" width="24" height="24" viewBox="0 0 24 24">
    <path style="fill:none" d="M0 0h24v24H0z"/>
    <path data-name="패스 148" d="M20 12v10H4V12" style="stroke-linejoin:round;stroke-linecap:round;stroke:#000;stroke-width:1.5px;fill:none"/>
    <g data-name="패스 149" style="stroke-linejoin:round;stroke-linecap:round;fill:none">
        <path d="M2 7h20v5H2z" style="stroke:none"/>
        <path d="M3.5 8.5v2h17v-2h-17M2 7h20v5H2V7z" style="fill:#000;stroke:none"/>
    </g>
    <path data-name="패스 150" d="M12 22V7" style="stroke-linejoin:round;stroke:#000;stroke-width:1.5px;fill:none"/>
    <g data-name="패스 151" style="stroke-linejoin:round;stroke-linecap:round;fill:none">
        <path d="M13 8.5H7.857A3.073 3.073 0 0 1 5 5.25 3.073 3.073 0 0 1 7.857 2C11.857 2 13 8.5 13 8.5z" style="stroke:none" transform="translate(-.5)"/>
        <path d="M11.033 7a10.97 10.97 0 0 0-.455-1.097C9.808 4.308 8.892 3.5 7.858 3.5 7.12 3.5 6.5 4.301 6.5 5.25S7.121 7 7.857 7h3.176M13 8.5H7.857C6.28 8.5 5 7.045 5 5.25S6.28 2 7.857 2C11.857 2 13 8.5 13 8.5z" style="fill:#5ba6d2;stroke:none" transform="translate(-.5)"/>
    </g>
    <g data-name="패스 152" style="stroke-linejoin:round;stroke-linecap:round;fill:none">
        <path d="M12 8.5h5.143A3.073 3.073 0 0 0 20 5.25 3.073 3.073 0 0 0 17.143 2C13.143 2 12 8.5 12 8.5z" style="stroke:none" transform="translate(-.5)"/>
        <path d="M17.143 7c.736 0 1.357-.801 1.357-1.75s-.621-1.75-1.357-1.75c-1.023 0-1.93.792-2.697 2.354-.19.388-.35.78-.48 1.146h3.177m0 1.5H12S13.143 2 17.143 2C18.72 2 20 3.455 20 5.25S18.72 8.5 17.143 8.5z" style="fill:#5ba6d2;stroke:none" transform="translate(-.5)"/>
    </g>
</svg>
