<svg data-name="icon-purchase point-40" xmlns="http://www.w3.org/2000/svg" width="40" height="40" viewBox="0 0 40 40">
    <path data-name="사각형 6466" style="fill:none" d="M0 0h40v40H0z"/>
    <path data-name="빼기 9" d="M20.728 33.749H6.249a2.513 2.513 0 0 1-2.5-2.5v-22.5a2.513 2.513 0 0 1 2.5-2.5h27.5a2.508 2.508 0 0 1 2.5 2.5v13.443A9.892 9.892 0 0 0 29.999 20a10.008 10.008 0 0 0-3.125.5 7.43 7.43 0 0 0 .627-3 1.25 1.25 0 0 0-2.5 0 5 5 0 1 1-10 0 1.25 1.25 0 0 0-2.5 0 7.5 7.5 0 0 0 8.918 7.365 10.026 10.026 0 0 0-.69 8.886zm-14.479-25v2.5h27.5v-2.5z"/>
    <g transform="translate(22 22)">
        <circle data-name="타원 224" cx="8" cy="8" r="8"/>
        <path data-name="패스 91604" d="M.84 0h2.044v-3.22h1.792c2.268 0 3.584-1.372 3.584-3.332a3.238 3.238 0 0 0-3.56-3.36H.84zm2.044-4.872V-8.2H4.34a1.548 1.548 0 0 1 1.792 1.648 1.586 1.586 0 0 1-1.792 1.68z" transform="translate(4 13)" style="fill:#fff"/>
    </g>
</svg>
