<svg xmlns="http://www.w3.org/2000/svg" width="30" height="30" viewBox="0 0 30 30">
    <path data-name="Rectangle 6615" style="fill:none" d="M0 0h30v30H0z"/>
    <circle data-name="Ellipse 279" cx="6.563" cy="6.563" r="6.563" transform="translate(8.438 8.438)" style="stroke:#000;stroke-linecap:round;stroke-linejoin:round;stroke-width:1.5px;fill:none"/>
    <path data-name="Path 91693" d="m27.726 45.937-.14 2.176a.951.951 0 0 0 .29.755 11.788 11.788 0 0 0 4.762 2.749.951.951 0 0 0 .8-.126l1.814-1.209h1.875l1.813 1.208a.951.951 0 0 0 .8.126 11.788 11.788 0 0 0 4.76-2.749.951.951 0 0 0 .29-.755l-.14-2.176.938-1.624 1.954-.966a.951.951 0 0 0 .509-.629 11.788 11.788 0 0 0 0-5.5.951.951 0 0 0-.509-.629l-1.954-.966L44.651 34l.14-2.176a.951.951 0 0 0-.29-.755 11.788 11.788 0 0 0-4.762-2.749.951.951 0 0 0-.8.126l-1.814 1.209h-1.874l-1.814-1.209a.951.951 0 0 0-.8-.126 11.788 11.788 0 0 0-4.762 2.749.951.951 0 0 0-.29.755L27.726 34l-.937 1.624-1.954.966a.951.951 0 0 0-.509.629 11.788 11.788 0 0 0 0 5.5.951.951 0 0 0 .509.629l1.954.966z" transform="translate(-21.188 -24.969)" style="stroke:#000;stroke-linecap:round;stroke-linejoin:round;stroke-width:1.5px;fill:none"/>
</svg>
