<svg xmlns="http://www.w3.org/2000/svg" width="56" height="56" viewBox="0 0 56 56">
    <path data-name="사각형 19" style="fill:none" d="M0 0h56v56H0z"/>
    <g data-name="Icon ionic-ios-star" style="fill:none">
        <path d="M46.332 16.938H30.945L26.27 2.984a1.694 1.694 0 0 0-3.18 0l-4.675 13.954H2.924a1.679 1.679 0 0 0-1.674 1.674 1.23 1.23 0 0 0 .031.282 1.608 1.608 0 0 0 .7 1.182l12.646 8.913L9.775 43.1a1.679 1.679 0 0 0 .575 1.883 1.618 1.618 0 0 0 .941.408 2.05 2.05 0 0 0 1.046-.377l12.343-8.8 12.343 8.8a1.96 1.96 0 0 0 1.046.377 1.5 1.5 0 0 0 .931-.407 1.658 1.658 0 0 0 .575-1.883l-4.854-14.112 12.541-9 .3-.262a1.755 1.755 0 0 0 .544-1.119 1.771 1.771 0 0 0-1.774-1.67z" style="stroke:none" transform="translate(3.75 4.124)"/>
        <path d="m24.68 7.682-4.107 12.256H6.993l11.205 7.897-4.246 12.346 10.728-7.647 10.715 7.637-4.237-12.318 11.034-7.915H28.787L24.68 7.682m0-5.807c.722 0 1.36.429 1.59 1.109l4.675 13.954h15.387c.92 0 1.778.754 1.778 1.674 0 .43-.272.827-.544 1.12l-.303.261-12.542 8.996 4.854 14.112c.24.69.01 1.443-.576 1.883-.292.23-.575.408-.93.408-.346 0-.754-.168-1.046-.377L24.68 36.218l-12.343 8.797c-.292.199-.7.377-1.046.377-.355 0-.638-.189-.941-.408a1.679 1.679 0 0 1-.575-1.883l4.853-14.112-12.646-8.912c-.512-.408-.68-.816-.7-1.182a1.23 1.23 0 0 1-.032-.283c0-.92.753-1.674 1.674-1.674h15.49L23.09 2.984c.23-.68.868-1.109 1.59-1.109z" style="fill:#5ba6d2;stroke:none" transform="translate(3.75 4.124)"/>
    </g>
</svg>
