<svg data-name="icon-mileage point-40" xmlns="http://www.w3.org/2000/svg" width="40" height="40" viewBox="0 0 40 40">
    <path data-name="사각형 6465" style="fill:none" d="M0 0h40v40H0z"/>
    <path data-name="빼기 10" d="M19.999 36.249c-8.412 0-15-3.844-15-8.751v-15c0-4.904 6.589-8.749 15-8.749s15 3.845 15 8.752v8.839a9.91 9.91 0 0 0-2.519-1.027 2.7 2.7 0 0 0 .018-.312v-2.6a14.732 14.732 0 0 1-5.271 2.8 24.447 24.447 0 0 1-7.228 1.048 24.447 24.447 0 0 1-7.229-1.048 14.746 14.746 0 0 1-5.271-2.8v2.6c0 1.5 1.23 3.035 3.376 4.2a19.414 19.414 0 0 0 9.124 2.048c.222 0 .468 0 .731-.011a9.987 9.987 0 0 0-.653 2.511h-.078a24.447 24.447 0 0 1-7.229-1.048 14.746 14.746 0 0 1-5.271-2.8v2.6c0 1.5 1.23 3.039 3.376 4.207a19.449 19.449 0 0 0 9.124 2.041c.22 0 .463 0 .723-.011a10 10 0 0 0 1.405 2.428c-.702.057-1.418.083-2.128.083z"/>
    <g transform="translate(22 22)">
        <circle data-name="타원 224" cx="8" cy="8" r="8"/>
        <path data-name="패스 91604" d="M.84 0h2.044v-3.22h1.792c2.268 0 3.584-1.372 3.584-3.332a3.238 3.238 0 0 0-3.56-3.36H.84zm2.044-4.872V-8.2H4.34a1.548 1.548 0 0 1 1.792 1.648 1.586 1.586 0 0 1-1.792 1.68z" transform="translate(4 13)" style="fill:#fff"/>
    </g>
</svg>
