<svg xmlns="http://www.w3.org/2000/svg" width="30" height="30" viewBox="0 0 30 30">
    <g data-name="Group 10318">
        <path data-name="Path 1683" d="M25.2 18v11.995H6V18" transform="translate(-.598 -2.994)" style="stroke:#fff;stroke-linecap:round;stroke-linejoin:round;stroke-width:1.6px;fill:none"/>
        <path data-name="Path 1684" d="M3 10.5h24v6H3z" transform="translate(.004 -1.5)" style="stroke:#fff;stroke-linecap:round;stroke-linejoin:round;stroke-width:1.6px;fill:none"/>
        <path data-name="Path 1685" d="M18 28.492V10.5" transform="translate(-2.996 -1.492)" style="stroke:#fff;stroke-linecap:round;stroke-linejoin:round;stroke-width:1.6px;fill:none"/>
        <path data-name="Path 1686" d="M15.9 9h-5.4a3 3 0 1 1 0-6c4.2 0 5.4 6 5.4 6z" transform="translate(-.894)" style="stroke:#fff;stroke-linecap:round;stroke-linejoin:round;stroke-width:1.6px;fill:none"/>
        <path data-name="Path 1687" d="M18 9h5.4a3 3 0 1 0 0-6C19.2 3 18 9 18 9z" transform="translate(-2.99)" style="stroke:#fff;stroke-linecap:round;stroke-linejoin:round;stroke-width:1.6px;fill:none"/>
    </g>
    <path data-name="Rectangle 6440" style="fill:none" d="M0 0h30v30H0z"/>
</svg>
