<svg xmlns="http://www.w3.org/2000/svg" width="241" height="241" viewBox="0 0 241 241">
    <defs>
        <clipPath id="pesx1bk5qa">
            <path data-name="사각형 6701" style="stroke-linejoin:round;stroke:#000;stroke-linecap:round;stroke-width:4px;fill:none" d="M0 0h140.432v154.83H0z"/>
        </clipPath>
    </defs>
    <g data-name="그룹 12717">
        <g transform="translate(1 1)" style="fill:#f7f7f7;stroke:#dfdfdf">
            <circle cx="119.5" cy="119.5" r="119.5" style="stroke:none"/>
            <circle cx="119.5" cy="119.5" r="120" style="fill:none"/>
        </g>
        <g data-name="그룹 12716">
            <g data-name="그룹 12715" transform="translate(60 43.086)" style="clip-path:url(#pesx1bk5qa)">
                <rect data-name="사각형 6698" width="85.035" height="141.12" rx="4.167" transform="translate(2.485 2.486)" style="fill:#fff;stroke-linejoin:round;stroke:#000;stroke-linecap:round;stroke-width:4px"/>
                <path data-name="선 205" transform="translate(46.171 16.271)" style="fill:#fff;stroke:#000;stroke-linecap:round;stroke-width:4px" d="M0 0h7.81"/>
                <path data-name="선 206" transform="translate(46.171 16.271)" style="stroke-linejoin:round;stroke:#000;stroke-linecap:round;stroke-width:4px;fill:none" d="M0 0h7.81"/>
                <path data-name="선 207" transform="translate(36.023 16.271)" style="fill:#fff;stroke:#000;stroke-linecap:round;stroke-width:4px" d="M0 0h1.915"/>
                <path data-name="선 208" transform="translate(36.023 16.271)" style="stroke-linejoin:round;stroke:#000;stroke-linecap:round;stroke-width:4px;fill:none" d="M0 0h1.915"/>
                <path data-name="패스 91758" d="M18.581 28.6v13.2a5.129 5.129 0 0 1-5.549 5.549A5.129 5.129 0 0 1 7.483 41.8" transform="translate(7.39 28.264)" style="stroke-linejoin:round;stroke:#000;stroke-linecap:round;stroke-width:4px;fill:none"/>
                <path data-name="패스 91759" d="M22.287 46.95h0a5.55 5.55 0 0 1-5.549-5.55v-7.654a5.549 5.549 0 1 1 11.1 0V41.4a5.55 5.55 0 0 1-5.551 5.55z" transform="translate(16.542 27.867)" style="stroke-linejoin:round;stroke:#000;stroke-linecap:round;stroke-width:4px;fill:none"/>
                <path data-name="선 209" transform="translate(53.245 56.864)" style="fill:#fff;stroke:#000;stroke-linecap:round;stroke-width:4px" d="M0 0v18.753"/>
                <path data-name="선 210" transform="translate(53.245 56.864)" style="stroke-linejoin:round;stroke:#000;stroke-linecap:round;stroke-width:4px;fill:none" d="M0 0v18.753"/>
                <path data-name="패스 91760" d="M31.03 47.353V28.6l11.1 18.753V28.6" transform="translate(30.667 28.264)" style="stroke-linejoin:round;stroke:#000;stroke-linecap:round;stroke-width:4px;fill:none"/>
                <path data-name="패스 91761" d="M66.314 45.271a4.4 4.4 0 0 0-.32 6.508l-.29-.29a4.526 4.526 0 0 0-6.032-.425 4.4 4.4 0 0 0-.32 6.51l-.793-.8a4.523 4.523 0 0 0-6.03-.424 4.395 4.395 0 0 0-.32 6.508l-15.63-15.625a4.524 4.524 0 0 0-6.032-.424 4.4 4.4 0 0 0-.32 6.508L47.915 71l3.4 3.4a4.323 4.323 0 0 1-3.056 7.381h-5.532a4.564 4.564 0 0 0-4.639 4.159 4.4 4.4 0 0 0 4.39 4.635l29.514.624a11.234 11.234 0 0 0 3.046-.366l7.041 7.041 16.594-16.588-6.659-6.659a11.22 11.22 0 0 0-2.584-11.848L77.946 51.3 73.2 46.553l-.859-.859a4.525 4.525 0 0 0-6.03-.424" transform="translate(28.601 43.793)" style="fill:#fff;stroke-linejoin:round;stroke:#000;stroke-linecap:round;stroke-width:4px"/>
                <path data-name="패스 91762" d="M66.314 45.271a4.4 4.4 0 0 0-.32 6.508l-.29-.29a4.526 4.526 0 0 0-6.032-.425 4.4 4.4 0 0 0-.32 6.51l-.793-.8a4.523 4.523 0 0 0-6.03-.424 4.395 4.395 0 0 0-.32 6.508l-15.63-15.625a4.524 4.524 0 0 0-6.032-.424 4.4 4.4 0 0 0-.32 6.508L47.915 71l3.4 3.4a4.323 4.323 0 0 1-3.056 7.381h-5.532a4.564 4.564 0 0 0-4.639 4.159 4.4 4.4 0 0 0 4.39 4.635l29.514.624a11.234 11.234 0 0 0 3.046-.366l7.041 7.041 16.594-16.588-6.659-6.659a11.22 11.22 0 0 0-2.584-11.848L77.946 51.3 73.2 46.553l-.859-.859a4.525 4.525 0 0 0-6.027-.423z" transform="translate(28.601 43.793)" style="stroke-linejoin:round;stroke:#000;stroke-linecap:round;stroke-width:4px;fill:none"/>
                <path data-name="사각형 6699" transform="rotate(-45 224.26 -56.722)" style="fill:#fff;stroke-linejoin:round;stroke:#000;stroke-linecap:round;stroke-width:4px" d="M0 0h30.789v14.683H0z"/>
                <path data-name="사각형 6700" transform="rotate(-45 224.26 -56.722)" style="stroke-linejoin:round;stroke:#000;stroke-linecap:round;stroke-width:4px;fill:none" d="M0 0h30.789v14.683H0z"/>
            </g>
        </g>
    </g>
</svg>
