<svg xmlns="http://www.w3.org/2000/svg" width="40" height="40" viewBox="0 0 40 40">
    <path d="M23.931 1.34a6.415 6.415 0 0 0 4.244 1.332 6.247 6.247 0 0 1 6.361 4.464 6.07 6.07 0 0 0 2.623 3.487 5.944 5.944 0 0 1 2.43 7.223 5.86 5.86 0 0 0 0 4.31 5.944 5.944 0 0 1-2.43 7.223 6.072 6.072 0 0 0-2.623 3.487 6.247 6.247 0 0 1-6.361 4.464 6.415 6.415 0 0 0-4.244 1.332 6.44 6.44 0 0 1-7.863 0 6.415 6.415 0 0 0-4.244-1.332 6.248 6.248 0 0 1-6.361-4.464 6.07 6.07 0 0 0-2.623-3.487 5.944 5.944 0 0 1-2.43-7.223 5.86 5.86 0 0 0 0-4.31 5.944 5.944 0 0 1 2.43-7.223 6.069 6.069 0 0 0 2.623-3.487 6.248 6.248 0 0 1 6.361-4.464 6.415 6.415 0 0 0 4.245-1.332 6.44 6.44 0 0 1 7.863 0" style="fill:#5ba6d2"/>
</svg>
