<svg xmlns="http://www.w3.org/2000/svg" width="80" height="80" viewBox="0 0 80 80">
    <path data-name="icon-onlyfortoday" d="M47.863 2.679a12.829 12.829 0 0 0 8.487 2.663 12.5 12.5 0 0 1 12.722 8.928 12.141 12.141 0 0 0 5.245 6.974 11.888 11.888 0 0 1 4.86 14.446 11.719 11.719 0 0 0 0 8.62 11.888 11.888 0 0 1-4.86 14.446 12.143 12.143 0 0 0-5.245 6.974 12.494 12.494 0 0 1-12.722 8.928 12.829 12.829 0 0 0-8.487 2.664 12.88 12.88 0 0 1-15.726 0 12.829 12.829 0 0 0-8.487-2.664 12.5 12.5 0 0 1-12.723-8.928 12.14 12.14 0 0 0-5.245-6.974A11.888 11.888 0 0 1 .822 44.31a11.719 11.719 0 0 0 0-8.62 11.888 11.888 0 0 1 4.86-14.446 12.138 12.138 0 0 0 5.245-6.974A12.5 12.5 0 0 1 23.65 5.342a12.829 12.829 0 0 0 8.487-2.664 12.88 12.88 0 0 1 15.726 0" style="fill:#5ba6d2"/>
    <text transform="translate(15 47)" style="fill:#fff;font-size:20px;font-family:Pretendard-SemiBold,Pretendard;font-weight:600;letter-spacing:-.025em"><tspan x="0" y="0">단하루</tspan></text>
</svg>
