<svg xmlns="http://www.w3.org/2000/svg" width="72" height="72" viewBox="0 0 72 72">
    <g data-name="타원 253" style="fill:#f5f5f5;stroke:#dfdfdf">
        <circle cx="36" cy="36" r="36" style="stroke:none"/>
        <circle cx="36" cy="36" r="35.5" style="fill:none"/>
    </g>
    <path data-name="패스 91660" d="M45.5 65.991v-.039c0-.035 0-.069-.008-.1 0-.015 0-.029-.007-.044a1.105 1.105 0 0 0-.02-.1c0-.013-.006-.026-.01-.04q-.016-.056-.037-.111c0-.006 0-.012-.006-.018l-.008-.019-2.176-5.441A2.488 2.488 0 0 0 40.9 58.5h-5.4v-1.25A1.25 1.25 0 0 0 34.25 56H10.5A2.5 2.5 0 0 0 8 58.5V76a2.5 2.5 0 0 0 2.5 2.5h2.033a5 5 0 0 0 9.684 0h9.066a5 5 0 0 0 9.684 0H43a2.5 2.5 0 0 0 2.5-2.5V65.991zM35.5 61h5.4l1.5 3.75h-6.9zm-25-2.5H33v10H10.5zm6.875 21.25a2.5 2.5 0 1 1 2.5-2.5 2.5 2.5 0 0 1-2.5 2.5zm18.75 0a2.5 2.5 0 1 1 2.5-2.5 2.5 2.5 0 0 1-2.5 2.5z" transform="translate(9.25 -31.25)" style="stroke:#000;stroke-width:1.5px;fill:none"/>
</svg>
