<svg xmlns="http://www.w3.org/2000/svg" width="24" height="24" viewBox="0 0 24 24">
  <defs>
    <style>
      .cls-1, .cls-2 {
        fill: none;
      }

      .cls-3, .cls-4 {
        stroke: none;
      }

      .cls-4 {
        fill: #000;
      }
    </style>
  </defs>
  <g id="bt_찜" transform="translate(-1461 -289)">
    <rect id="사각형_40" data-name="사각형 40" class="cls-1" width="24" height="24" transform="translate(1461 289)"/>
    <g id="Icon_feather-heart" data-name="Icon feather-heart" class="cls-2" transform="translate(1461.451 289.002)">
      <path class="cls-3" d="M20.84,4.61a5.5,5.5,0,0,0-7.78,0L12,5.67,10.94,4.61a5.5,5.5,0,0,0-7.78,7.78l1.06,1.06L12,21.23l7.78-7.78,1.06-1.06a5.5,5.5,0,0,0,0-7.78Z"/>
      <path class="cls-4" d="M 16.94999694824219 4.4981689453125 C 15.88120746612549 4.4981689453125 14.87647724151611 4.914478302001953 14.1206579208374 5.670658111572266 L 11.99999809265137 7.791318893432617 L 9.879337310791016 5.670658111572266 C 9.123598098754883 4.914918899536133 8.118777275085449 4.498708724975586 7.049997329711914 4.498708724975586 C 5.981218338012695 4.498708724975586 4.976408004760742 4.914918899536133 4.220657348632812 5.670658111572266 C 2.660556793212891 7.230758666992188 2.660556793212891 9.769228935241699 4.220657348632812 11.32933807373047 L 11.99999809265137 19.10867881774902 L 19.77958679199219 11.32908821105957 C 20.53551864624023 10.57351875305176 20.95182800292969 9.568788528442383 20.95182800292969 8.499998092651367 C 20.95182800292969 7.431207656860352 20.53551864624023 6.426479339599609 19.77908706665039 5.670408248901367 C 19.02350807189941 4.914478302001953 18.0187873840332 4.4981689453125 16.94999694824219 4.4981689453125 M 16.94999694824219 2.998172760009766 C 18.35797500610352 2.998172760009766 19.76595306396484 3.53544807434082 20.83999824523926 4.60999870300293 C 22.98909759521484 6.758089065551758 22.98910713195801 10.24190807342529 20.83999824523926 12.38999843597412 L 11.99999809265137 21.22999954223633 L 3.159997940063477 12.38999843597412 C 1.011617660522461 10.24160861968994 1.011608123779297 6.758388519287109 3.159997940063477 4.60999870300293 C 5.308383941650391 2.461616516113281 8.791604995727539 2.461605072021484 10.93999767303467 4.60999870300293 L 11.99999809265137 5.669998168945312 L 13.05999755859375 4.60999870300293 C 14.13404273986816 3.53544807434082 15.54201984405518 2.998172760009766 16.94999694824219 2.998172760009766 Z"/>
    </g>
  </g>
</svg>
