<svg id="icon-gnb-mobile-gear" xmlns="http://www.w3.org/2000/svg" width="30" height="30" viewBox="0 0 30 30">
  <defs>
    <style>
      .cls-1, .cls-2 {
        fill: none;
      }

      .cls-2 {
        stroke: #fff;
        stroke-linecap: round;
        stroke-linejoin: round;
        stroke-width: 1.5px;
      }
    </style>
  </defs>
  <rect id="Rectangle_6615" data-name="Rectangle 6615" class="cls-1" width="30" height="30"/>
  <circle id="Ellipse_279" data-name="Ellipse 279" class="cls-2" cx="6.563" cy="6.563" r="6.563" transform="translate(8.438 8.438)"/>
  <path id="Path_91693" data-name="Path 91693" class="cls-2" d="M27.726,45.937l-.14,2.176a.951.951,0,0,0,.29.755,11.788,11.788,0,0,0,4.762,2.749.951.951,0,0,0,.8-.126l1.814-1.209h1.875L38.94,51.49a.951.951,0,0,0,.8.126A11.788,11.788,0,0,0,44.5,48.867a.951.951,0,0,0,.29-.755l-.14-2.176.938-1.624,1.954-.966a.951.951,0,0,0,.509-.629,11.788,11.788,0,0,0,0-5.5.951.951,0,0,0-.509-.629l-1.954-.966L44.651,34l.14-2.176a.951.951,0,0,0-.29-.755,11.788,11.788,0,0,0-4.762-2.749.951.951,0,0,0-.8.126l-1.814,1.209H35.251l-1.814-1.209a.951.951,0,0,0-.8-.126,11.788,11.788,0,0,0-4.762,2.749.951.951,0,0,0-.29.755L27.726,34l-.937,1.624-1.954.966a.951.951,0,0,0-.509.629,11.788,11.788,0,0,0,0,5.5.951.951,0,0,0,.509.629l1.954.966Z" transform="translate(-21.188 -24.969)"/>
</svg>
