<svg xmlns="http://www.w3.org/2000/svg" width="122" height="122" viewBox="0 0 122 122">
    <defs>
        <clipPath id="rnn2awmw4a">
            <circle cx="60" cy="60" r="60" transform="translate(105 25)" style="fill:#f7f7f7;stroke:#dfdfdf"/>
        </clipPath>
    </defs>
    <g data-name="bg" transform="translate(1 1)" style="fill:#f7f7f7;stroke:#dfdfdf">
        <circle cx="60" cy="60" r="60" style="stroke:none"/>
        <circle cx="60" cy="60" r="60.5" style="fill:none"/>
    </g>
    <g data-name="그룹 13211" style="clip-path:url(#rnn2awmw4a)" transform="translate(-104 -24)">
        <path data-name="패스 92062" d="M56.794 4H7.112A3.11 3.11 0 0 0 4 7.111v4.8a4.238 4.238 0 0 1 0 8.477v7.979a4.238 4.238 0 0 1 0 8.477v4.8a3.111 3.111 0 0 0 3.111 3.112h60.555a3.113 3.113 0 0 0 3.112-3.112v-23.66z" transform="translate(127.555 60.556)" style="fill:#fff"/>
        <path data-name="패스 92063" d="M195.222 106.867h-60.554A4.673 4.673 0 0 1 130 102.2v-4.8a1.556 1.556 0 0 1 1.556-1.556 2.682 2.682 0 1 0 0-5.364A1.556 1.556 0 0 1 130 88.923v-7.979a1.556 1.556 0 0 1 1.556-1.556 2.682 2.682 0 1 0 0-5.364A1.556 1.556 0 0 1 130 72.468v-4.8A4.673 4.673 0 0 1 134.668 63h49.682a1.556 1.556 0 0 1 1.1.456l13.985 13.984a1.557 1.557 0 0 1 .456 1.1v23.66a4.673 4.673 0 0 1-4.668 4.668m-62.111-8.124v3.456a1.558 1.558 0 0 0 1.556 1.556h60.554a1.558 1.558 0 0 0 1.556-1.556V79.186l-13.072-13.073h-49.038a1.557 1.557 0 0 0-1.556 1.555v3.456a5.8 5.8 0 0 1 0 11.165v5.291a5.8 5.8 0 0 1 0 11.165"/>
        <path data-name="패스 92064" d="M195.222 106.867h-60.554A4.673 4.673 0 0 1 130 102.2v-4.8a1.556 1.556 0 0 1 1.556-1.556 2.682 2.682 0 1 0 0-5.364A1.556 1.556 0 0 1 130 88.923v-7.979a1.556 1.556 0 0 1 1.556-1.556 2.682 2.682 0 1 0 0-5.364A1.556 1.556 0 0 1 130 72.468v-4.8A4.673 4.673 0 0 1 134.668 63h49.682a1.556 1.556 0 0 1 1.1.456l13.985 13.984a1.557 1.557 0 0 1 .456 1.1v23.66a4.673 4.673 0 0 1-4.668 4.668m-62.111-8.124v3.456a1.558 1.558 0 0 0 1.556 1.556h60.554a1.558 1.558 0 0 0 1.556-1.556V79.186l-13.072-13.073h-49.038a1.557 1.557 0 0 0-1.556 1.555v3.456a5.8 5.8 0 0 1 0 11.165v5.291a5.8 5.8 0 0 1 0 11.165"/>
        <path data-name="패스 92065" d="M147.502 68.447a1.556 1.556 0 0 1-1.556-1.556v-2.334a1.556 1.556 0 0 1 3.112 0v2.334a1.556 1.556 0 0 1-1.556 1.556"/>
        <path data-name="패스 92066" d="M147.502 95.942a1.556 1.556 0 0 1-1.556-1.556v-5.157a1.556 1.556 0 1 1 3.112 0v5.155a1.556 1.556 0 0 1-1.556 1.558m0-13.747a1.556 1.556 0 0 1-1.556-1.553v-5.16a1.556 1.556 0 1 1 3.112 0v5.16a1.556 1.556 0 0 1-1.556 1.556"/>
        <path data-name="패스 92067" d="M147.502 106.864a1.556 1.556 0 0 1-1.556-1.556v-2.334a1.556 1.556 0 1 1 3.112 0v2.334a1.556 1.556 0 0 1-1.556 1.556"/>
        <path data-name="패스 92069" d="M198.333 80.1h-10.872a4.673 4.673 0 0 1-4.668-4.668V64.556a1.556 1.556 0 0 1 2.657-1.1l13.984 13.984a1.556 1.556 0 0 1-1.1 2.656m-12.429-11.783v7.115a1.558 1.558 0 0 0 1.555 1.556h7.116z"/>
        <g data-name="그룹 13212">
            <path data-name="패스 92070" d="M162.211 94.263a1.556 1.556 0 0 1-1.145-2.61l12.936-14.061a1.556 1.556 0 0 1 2.29 2.107l-12.936 14.062a1.553 1.553 0 0 1-1.146.5"/>
            <path data-name="패스 92071" d="M172.99 95.374a3.816 3.816 0 1 1 3.816-3.816 3.82 3.82 0 0 1-3.816 3.816m0-4.52a.7.7 0 1 0 .7.7.7.7 0 0 0-.7-.7"/>
            <path data-name="패스 92072" d="M164.368 83.608a3.816 3.816 0 1 1 3.816-3.816 3.821 3.821 0 0 1-3.816 3.816m0-4.52a.7.7 0 1 0 .7.7.7.7 0 0 0-.7-.7"/>
        </g>
    </g>
</svg>
