<svg xmlns="http://www.w3.org/2000/svg" width="122" height="122" viewBox="0 0 122 122">
    <defs>
        <clipPath id="vt81gh52ea">
            <circle cx="60" cy="60" r="60" transform="translate(105 25)" style="fill:#f7f7f7;stroke:#dfdfdf"/>
        </clipPath>
    </defs>
    <g data-name="bg" transform="translate(1 1)" style="fill:#f7f7f7;stroke:#dfdfdf">
        <circle cx="60" cy="60" r="60" style="stroke:none"/>
        <circle cx="60" cy="60" r="60.5" style="fill:none"/>
    </g>
    <g data-name="그룹 13188" style="clip-path:url(#vt81gh52ea)" transform="translate(-104 -24)">
        <path data-name="패스 92048" d="M2.857 0h59.8a2.856 2.856 0 0 1 2.853 2.856v38.552a2.856 2.856 0 0 1-2.856 2.856H2.857A2.857 2.857 0 0 1 0 41.407V2.857A2.857 2.857 0 0 1 2.857 0z" transform="translate(132.745 58.081)" style="stroke:#000;stroke-width:3px;fill:#fff"/>
        <g data-name="그룹 13189">
            <path data-name="패스 92046" d="M45.429 76S46.315 86.331 41 89.282" transform="translate(115.242 26.637)" style="stroke-miterlimit:10;fill:none;stroke:#000;stroke-width:3px"/>
            <path data-name="패스 92047" d="M63.059 76s-.885 10.328 4.426 13.279" transform="translate(106.226 26.637)" style="stroke-miterlimit:10;fill:none;stroke:#000;stroke-width:3px"/>
        </g>
        <path data-name="선 231" transform="translate(136.745 115.919)" style="stroke-miterlimit:10;fill:none;stroke:#000;stroke-width:3px" d="M0 0h56.657"/>
        <path data-name="선 232" transform="translate(131.745 97.499)" style="fill:none;stroke:#000;stroke-width:3px" d="M0 0h66"/>
    </g>
</svg>
