<svg xmlns="http://www.w3.org/2000/svg" width="122" height="122" viewBox="0 0 122 122">
    <defs>
        <clipPath id="waicwku7fa">
            <circle cx="60" cy="60" r="60" transform="translate(105 25)" style="fill:#f7f7f7;stroke:#dfdfdf"/>
        </clipPath>
    </defs>
    <g data-name="bg" transform="translate(1 1)" style="fill:#f7f7f7;stroke:#dfdfdf">
        <circle cx="60" cy="60" r="60" style="stroke:none"/>
        <circle cx="60" cy="60" r="60.5" style="fill:none"/>
    </g>
    <g data-name="그룹 13203" style="clip-path:url(#waicwku7fa)" transform="translate(-104 -24)">
        <path data-name="패스 92050" d="m191.012 116.03-39.341-.011a1.5 1.5 0 0 1-.08-2.99 4.181 4.181 0 0 0 1.638-.47c1.873-.944 2.9-3.545 3.429-5.561a1.5 1.5 0 0 1 1.447-1.116h36.527a1.5 1.5 0 0 1 1.478 1.263c.076.485.685 4.812-1.415 7.268a4.681 4.681 0 0 1-3.682 1.616m-33.849-3 33.849.009a1.682 1.682 0 0 0 1.408-.568 5.841 5.841 0 0 0 .835-3.592h-2.95a1.542 1.542 0 0 1-.176 0h-30.9a13.639 13.639 0 0 1-2.063 4.153"/>
        <path data-name="패스 92051" d="M35.979 55.913h32.113c-1.336-7.662-2.678-15.324-2.571-22.985-.377-9.642 1.544-19.284-3.629-28.928H18.568c.255.5.488 1.018.712 1.533.079.184.148.37.223.554.134.331.267.664.388 1 .085.235.165.47.244.707a37.16 37.16 0 0 1 .512 1.672c.066.236.126.475.187.714.08.319.161.637.235.957l.075.358c1.489 6.922 1.1 14.423 1 21.437.094 2.4.046 4.819.015 7.221a65.445 65.445 0 0 0 .6 12.685 31.463 31.463 0 0 0 1.64 6.245c1.011 2.458 2.713 3.909 4.745 3.978h.4a5.655 5.655 0 0 0 2.228-.626c2.266-1.142 3.525-3.931 4.2-6.518" transform="translate(122.125 51.466)" style="fill:#fff"/>
        <path data-name="패스 92052" d="M151.671 116.019h-.453c-2.617-.089-4.832-1.877-6.078-4.9a33 33 0 0 1-1.727-6.55 61.916 61.916 0 0 1-.632-12.048l.022-1.7c.028-2.1.057-4.268-.025-6.369v-.08q.02-1.371.048-2.764c.118-6.137.24-12.484-1.018-18.337l-.079-.355a46.387 46.387 0 0 0-.192-.787l-.053-.211c-.05-.2-.1-.394-.156-.59a33.35 33.35 0 0 0-.723-2.272 25.9 25.9 0 0 0-.367-.944l-.086-.217c-.042-.1-.082-.208-.126-.311a26.15 26.15 0 0 0-.671-1.446 1.5 1.5 0 0 1 1.338-2.169h43.324a1.5 1.5 0 0 1 1.319.789c4.092 7.63 3.946 15.235 3.8 22.589-.045 2.3-.09 4.674 0 6.989v.079c-.1 7.472 1.229 15.14 2.523 22.558a1.514 1.514 0 0 1 .055.406 1.5 1.5 0 0 1-1.5 1.5h-31c-1.02 3.178-2.583 5.314-4.654 6.358a7.155 7.155 0 0 1-2.821.784h-.08m-.374-2.992h.344a4.213 4.213 0 0 0 1.6-.468c1.873-.944 2.9-3.545 3.429-5.561a1.5 1.5 0 0 1 1.447-1.116h30.334c-1.22-7.039-2.384-14.279-2.289-21.47-.092-2.389-.046-4.8 0-7.123.135-7.014.263-13.654-3.043-20.329h-40.1l.011.027c.142.35.282.7.41 1.055.089.246.173.493.256.741.1.292.2.593.286.895a29.585 29.585 0 0 1 .42 1.499l.056.223c.072.288.145.576.211.865l.08.377c1.332 6.192 1.207 12.716 1.085 19.024-.017.91-.035 1.814-.048 2.71.083 2.166.053 4.362.025 6.485l-.022 1.7a58.781 58.781 0 0 0 .583 11.469 30.469 30.469 0 0 0 1.551 5.945c.456 1.107 1.5 2.973 3.39 3.051"/>
        <path data-name="사각형 6798" transform="translate(133.749 53.969)" style="fill:none" d="M0 0h62.501v62.061H0z"/>
        <path data-name="패스 92054" d="M143.961 68.704h-8.5a1.5 1.5 0 0 1-1.478-1.284c-1.696-11.87 6.372-13.415 6.454-13.429a1.5 1.5 0 0 1 1.591.8c.238.47.476.983.75 1.613.058.136.109.264.16.393l.077.193c.142.35.282.7.41 1.055.089.246.173.493.256.741.1.292.2.593.286.895.085.278.169.562.248.849.055.192.106.394.157.6l.07.276c.072.288.144.576.211.865.019.082.037.166.054.251l.026.125c.3 1.412.542 2.89.714 4.4a1.5 1.5 0 0 1-1.486 1.666m-7.16-2.992h5.448a42.36 42.36 0 0 0-.445-2.442l-.032-.156-.037-.176c-.062-.272-.13-.54-.2-.808l-.068-.269c-.045-.175-.089-.35-.138-.523-.075-.27-.151-.53-.231-.789a24.786 24.786 0 0 0-.26-.811 28.276 28.276 0 0 0-.235-.68 25.9 25.9 0 0 0-.367-.944l-.086-.217c-.042-.1-.082-.208-.126-.31l-.1-.237c-1.369.753-3.575 2.849-3.124 8.353"/>
        <g data-name="그룹 13204">
            <path data-name="패스 92055" d="M167.899 102.36a1.5 1.5 0 0 1-1.416-1.014l-3.349-9.817a1.5 1.5 0 0 1 2.832-.966l3.349 9.817a1.5 1.5 0 0 1-1.416 1.979"/>
            <path data-name="패스 92056" d="M167.899 102.359a1.5 1.5 0 0 1-1.416-1.979l3.348-9.817a1.5 1.5 0 0 1 2.832.966l-3.348 9.817a1.5 1.5 0 0 1-1.416 1.014"/>
            <path data-name="패스 92057" d="M174.596 102.36a1.5 1.5 0 0 1-1.416-1.014l-3.349-9.817a1.5 1.5 0 1 1 2.832-.966l3.349 9.817a1.5 1.5 0 0 1-1.416 1.979"/>
            <path data-name="패스 92058" d="M174.596 102.359a1.5 1.5 0 0 1-1.416-1.979l3.348-9.817a1.5 1.5 0 0 1 2.832.966l-3.348 9.817a1.5 1.5 0 0 1-1.416 1.014"/>
            <path data-name="패스 92059" d="M178.743 96.148h-14.99a1.5 1.5 0 1 1 0-2.992h14.99a1.5 1.5 0 1 1 0 2.992"/>
        </g>
        <path data-name="패스 92060" d="M177.486 65.247h-24.6a1.5 1.5 0 1 1 0-2.992h24.6a1.5 1.5 0 0 1 0 2.992"/>
        <path data-name="패스 92061" d="M171.801 72.031h-17.5a1.5 1.5 0 1 1 0-2.992h17.5a1.5 1.5 0 1 1 0 2.992"/>
        <path data-name="사각형 6800" transform="translate(133.749 53.969)" style="fill:none" d="M0 0h62.501v62.061H0z"/>
    </g>
</svg>
