<svg xmlns="http://www.w3.org/2000/svg" width="20" height="20" viewBox="0 0 20 20">
    <path data-name="사각형 6569" style="fill:none" d="M0 0h20v20H0z"/>
    <path data-name="패스 91666" d="M159.417 40a6.394 6.394 0 0 1 4.514 4.514" transform="translate(-146.699 -36.809)" style="stroke:#5ba6d2;stroke-linecap:round;stroke-linejoin:round;stroke-width:1.5px;fill:none"/>
    <path data-name="패스 91667" d="M151.133 70.917a3.836 3.836 0 0 1 2.708 2.708" transform="translate(-139.076 -65.26)" style="stroke:#5ba6d2;stroke-linecap:round;stroke-linejoin:round;stroke-width:1.5px;fill:none"/>
    <path data-name="패스 91668" d="M44.186 39.7a6.729 6.729 0 0 0 3.114 3.1.632.632 0 0 0 .625-.047l2-1.332a.638.638 0 0 1 .605-.056l3.736 1.6a.636.636 0 0 1 .383.662 3.83 3.83 0 0 1-3.8 3.344A10.849 10.849 0 0 1 40 36.126a3.83 3.83 0 0 1 3.344-3.8.636.636 0 0 1 .662.383l1.6 3.74a.638.638 0 0 1-.053.6l-1.327 2.028a.633.633 0 0 0-.04.623z" transform="translate(-36.808 -29.744)" style="stroke:#5ba6d2;stroke-linecap:round;stroke-linejoin:round;stroke-width:1.5px;fill:none"/>
</svg>
