<svg id="icon-info-32" xmlns="http://www.w3.org/2000/svg" width="32" height="32" viewBox="0 0 32 32">
  <defs>
    <style>
      .cls-1 {
        fill: none;
      }

      .cls-2 {
        fill: #fff;
      }
    </style>
  </defs>
  <rect id="bg" class="cls-1" width="32" height="32"/>
  <circle id="round" cx="13" cy="13" r="13" transform="translate(3 3)"/>
  <path id="_" data-name="?" class="cls-2" d="M-.108.422V.563H2.24V.422A3.522,3.522,0,0,1,4.165-3.1,4.407,4.407,0,0,0,6.512-7.043c0-2.653-2-4.437-4.977-4.413-2.723-.023-4.93,1.573-5.023,4.507H-1A2.459,2.459,0,0,1,1.535-9.437,2.359,2.359,0,0,1,4.024-7.09,3.144,3.144,0,0,1,2.287-4.414C.808-3.5-.084-2.583-.108.422ZM-.483,3.9a1.608,1.608,0,0,0,1.643,1.6,1.569,1.569,0,0,0,1.6-1.6,1.609,1.609,0,0,0-1.6-1.643A1.648,1.648,0,0,0-.483,3.9Z" transform="translate(14.489 19.458)"/>
</svg>
