<svg width="24" height="24" viewBox="0 0 24 24" fill="none" xmlns="http://www.w3.org/2000/svg">
<g clip-path="url(#clip0_1_12)">
<path d="M19.5 3.5H4.5C3.94772 3.5 3.5 3.94772 3.5 4.5V19.5C3.5 20.0523 3.94772 20.5 4.5 20.5H19.5C20.0523 20.5 20.5 20.0523 20.5 19.5V4.5C20.5 3.94772 20.0523 3.5 19.5 3.5Z" stroke="black" stroke-linecap="round" stroke-linejoin="round"/>
<path d="M16.5 2.5V5.5" stroke="black" stroke-linecap="round" stroke-linejoin="round"/>
<path d="M7.5 2.5V5.5" stroke="black" stroke-linecap="round" stroke-linejoin="round"/>
<path d="M3.5 7.5H20.5" stroke="black" stroke-linecap="round" stroke-linejoin="round"/>
<path d="M12.001 9.5L13.351 12.521L16.501 12.938L14.185 15.221L14.782 18.5L12.001 16.89L9.21998 18.5L9.81998 15.221L7.50098 12.938L10.651 12.522L12.001 9.5Z" fill="black" stroke="black" stroke-linecap="round" stroke-linejoin="round"/>
</g>
<defs>
<clipPath id="clip0_1_12">
<rect width="18" height="19" fill="white" transform="translate(3 2)"/>
</clipPath>
</defs>
</svg>
