<svg xmlns="http://www.w3.org/2000/svg" width="23.999" height="23.999" viewBox="0 0 23.999 23.999">
    <g data-name="그룹 12125">
        <path data-name="사각형 6468" style="fill:none" d="M0 0h23.999v23.999H0z"/>
        <g data-name="빼기 11" style="fill:none">
            <path d="M5.719 17.8a.626.626 0 0 1-.4-.143.638.638 0 0 1-.233-.492v-1.909a.626.626 0 0 1 .185-.449l1.086-1.087v-2.14L.761 12.7a.634.634 0 0 1-.128.014.636.636 0 0 1-.633-.637v-1.906A.638.638 0 0 1 .352 9.6l6-3 .01-4.059A2.542 2.542 0 0 1 8.906 0a2.544 2.544 0 0 1 2.542 2.541L11.46 6.6l6.007 3a.637.637 0 0 1 .352.569v.131a5.533 5.533 0 0 0-2.52-.6 5.6 5.6 0 0 0-5.187 7.716L8.9 17.174l-3.054.612a.675.675 0 0 1-.127.014z" style="stroke:none" transform="translate(3.101 2.302)"/>
            <path d="m6.085 16.718 2.671-.534a6.682 6.682 0 0 1-.058-.885c0-3.116 2.171-5.734 5.08-6.422l-3.317-1.658-.009-4.678a1.542 1.542 0 1 0-3.085.002L7.356 7.22 1 10.396v1.236l6.357-1.271v3.773l-1.272 1.273v1.311m-.366 1.08a.638.638 0 0 1-.633-.635v-1.907c0-.171.065-.33.185-.449l1.086-1.087v-2.14L.761 12.7a.625.625 0 0 1-.528-.13.63.63 0 0 1-.233-.493v-1.906c0-.24.138-.463.352-.569L6.357 6.6l.01-4.06A2.542 2.542 0 0 1 8.906 0h.005a2.544 2.544 0 0 1 2.541 2.54l.008 4.06 6.007 3.002a.637.637 0 0 1 .352.569v.126a5.606 5.606 0 0 0-7.707 7.12l-1.211-.243-3.054.612a.674.674 0 0 1-.128.012z" style="fill:#000;stroke:none" transform="translate(3.101 2.302)"/>
        </g>
        <g transform="translate(13.6 12.8)">
            <circle data-name="타원 224" cx="5.2" cy="5.2" r="5.2"/>
            <text transform="translate(2.2 7.7)" style="fill:#fff;font-size:7px;font-family:Pretendard-Bold,Pretendard;font-weight:700"><tspan x="0" y="0">M</tspan></text>
        </g>
    </g>
</svg>
