<svg id="icon-submenu-4" xmlns="http://www.w3.org/2000/svg" width="24" height="24" viewBox="0 0 24 24">
  <defs>
    <style>
      .cls-1 {
        fill: none;
      }

      .cls-2 {
        fill: #fff;
      }
    </style>
  </defs>
  <rect id="사각형_6344" data-name="사각형 6344" class="cls-1" width="24" height="24"/>
  <g id="그룹_11603" data-name="그룹 11603" transform="translate(2.415 1.611)">
    <path id="패스_91731" data-name="패스 91731" class="cls-2" d="M-113.509,412.392c0-.014-.008-.026-.009-.04a.4.4,0,0,0,.011-.053c0-.1-.114-9.655-9.982-9.655s-9.982,9.558-9.982,9.655a.408.408,0,0,0,.01.047.406.406,0,0,0-.01.047v4.838a2.214,2.214,0,0,0,2.433,1.883h1.89a2.215,2.215,0,0,0,2.433-1.883v-3.456a2.214,2.214,0,0,0-2.433-1.883h-3.219c.118-1.726,1.082-8.245,8.878-8.245,7.778,0,8.755,6.517,8.878,8.245h-3.22a2.214,2.214,0,0,0-2.433,1.883v3.455a2.215,2.215,0,0,0,2.433,1.883h1.889a2.941,2.941,0,0,0,1.279-.289,2.609,2.609,0,0,1-1.485,1.774l-3.693,1.7a1.966,1.966,0,0,1-.719.175v-2.283a.524.524,0,0,0-.544-.5h-4.031a.524.524,0,0,0-.544.5v2.786a.524.524,0,0,0,.544.5h4.482a3.135,3.135,0,0,0,1.3-.284l3.693-1.7a3.555,3.555,0,0,0,2.155-3.214v-3.664l0-.008Zm-14.294,1.382v3.456c0,.477-.616.88-1.346.88h-1.89c-.73,0-1.346-.4-1.346-.88v-4.337h3.236C-128.418,412.893-127.8,413.3-127.8,413.774Zm6.154,8.7h-2.944v-1.783h2.944Zm5.707-4.366h-1.889c-.73,0-1.346-.4-1.346-.88v-3.455c0-.478.616-.881,1.346-.881h3.235v4.336C-114.6,417.707-115.213,418.11-115.942,418.11Z" transform="translate(133.471 -402.644)"/>
  </g>
  <g id="그룹_11602" data-name="그룹 11602" transform="translate(2.415 1.611)">
    <path id="패스_91731-2" data-name="패스 91731" d="M-113.509,412.392c0-.014-.008-.026-.009-.04a.4.4,0,0,0,.011-.053c0-.1-.114-9.655-9.982-9.655s-9.982,9.558-9.982,9.655a.408.408,0,0,0,.01.047.406.406,0,0,0-.01.047v4.838a2.214,2.214,0,0,0,2.433,1.883h1.89a2.215,2.215,0,0,0,2.433-1.883v-3.456a2.214,2.214,0,0,0-2.433-1.883h-3.219c.118-1.726,1.082-8.245,8.878-8.245,7.778,0,8.755,6.517,8.878,8.245h-3.22a2.214,2.214,0,0,0-2.433,1.883v3.455a2.215,2.215,0,0,0,2.433,1.883h1.889a2.941,2.941,0,0,0,1.279-.289,2.609,2.609,0,0,1-1.485,1.774l-3.693,1.7a1.966,1.966,0,0,1-.719.175v-2.283a.524.524,0,0,0-.544-.5h-4.031a.524.524,0,0,0-.544.5v2.786a.524.524,0,0,0,.544.5h4.482a3.135,3.135,0,0,0,1.3-.284l3.693-1.7a3.555,3.555,0,0,0,2.155-3.214v-3.664l0-.008Zm-14.294,1.382v3.456c0,.477-.616.88-1.346.88h-1.89c-.73,0-1.346-.4-1.346-.88v-4.337h3.236C-128.418,412.893-127.8,413.3-127.8,413.774Zm6.154,8.7h-2.944v-1.783h2.944Zm5.707-4.366h-1.889c-.73,0-1.346-.4-1.346-.88v-3.455c0-.478.616-.881,1.346-.881h3.235v4.336C-114.6,417.707-115.213,418.11-115.942,418.11Z" transform="translate(133.471 -402.644)"/>
  </g>
</svg>
