<svg xmlns="http://www.w3.org/2000/svg" width="60" height="60" viewBox="0 0 60 60">
  <defs>
    <style>
      .cls-1, .cls-2 {
        fill-rule: evenodd;
      }

      .cls-2 {
        fill: #fff;
      }
    </style>
  </defs>
  <g id="apple" transform="translate(-611 -1117)">
    <rect id="icon_area" data-name="icon area" width="60" height="60" rx="10" transform="translate(611 1117)"/>
    <g id="Apple-2" data-name="Apple" transform="translate(616 1122)">
      <path id="패스_2478" data-name="패스 2478" class="cls-1" d="M0,25A25,25,0,1,1,25,50,25,25,0,0,1,0,25Z"/>
      <path id="패스_2479" data-name="패스 2479" class="cls-2" d="M31.57,14.752A6.445,6.445,0,0,0,32.986,10a6.874,6.874,0,0,0-4.448,2.408,5.96,5.96,0,0,0-1.456,4.635,5.8,5.8,0,0,0,4.487-2.291ZM40,31.474a21.152,21.152,0,0,1-1.89,3.549c-1.227,1.881-2.956,4.223-5.1,4.24-1.9.021-2.395-1.248-4.98-1.232S24.905,39.287,23,39.268c-2.143-.019-3.782-2.132-5.009-4.013C14.558,30,14.2,23.829,16.313,20.548a7.592,7.592,0,0,1,6.11-3.693c2.27,0,3.7,1.253,5.578,1.253,1.824,0,2.934-1.256,5.56-1.256a7.408,7.408,0,0,1,5.592,2.969A6.45,6.45,0,0,0,40,31.474Z" transform="translate(-2.5 -1)"/>
    </g>
  </g>
</svg>
