<svg xmlns="http://www.w3.org/2000/svg" width="124" height="55.367" viewBox="0 0 124 55.367">
    <defs>
        <clipPath id="uakyyyalpa">
            <path data-name="사각형 1448" d="M0 0h124v55.367H0z"/>
        </clipPath>
        <clipPath id="rdzphf2q2b">
            <path data-name="사각형 1451" d="M0 0h124v55.366H0z"/>
        </clipPath>
    </defs>
    <g data-name="그룹 9063" style="clip-path:url(#uakyyyalpa)">
        <g data-name="그룹 9068" style="clip-path:url(#rdzphf2q2b)">
            <path data-name="패스 2404" d="M80.989 10.648s-.022-.153-.48-.2c0 0-1.025.24-1.046-1.221s-.088-3.533 0-5.647a1.875 1.875 0 0 1 1.241-1.674s.436-.044.239-.567l-.13-.261s0-.219-.305-.175a20.747 20.747 0 0 1-3.819.041.449.449 0 0 0-.435.435s-.109.393.2.525a2.2 2.2 0 0 1 1.44 2.2c.065 1.679.088 4.011.088 4.011s-2.486-3.663-4.078-6.476a1.137 1.137 0 0 0-1.2-.7 34.66 34.66 0 0 1-4.818.023.466.466 0 0 0-.524.457.566.566 0 0 0 .262.654s1.308.829 1.308 1.112l-.021 6.084s.11 2.377-.524 2.072c0 0-.371.239-1.264-1.4a84.8 84.8 0 0 1-3.925-8.5s-.392-1.265-1.2-1.265a2.465 2.465 0 0 0-.982.3 18.6 18.6 0 0 1-3.75 1.658.447.447 0 0 0-.306.567s-.064.327.415.5a2.013 2.013 0 0 1 1.025.609 19.725 19.725 0 0 1-1.418 3.271c-.916 1.657-2.092 4.4-5.473 4.4h-1.33s-.348.042-.348-.437V7.551h.872s1.417-.3 2.092 1.527c0 0 .131.567.611.349a.564.564 0 0 0 .5-.611 24.226 24.226 0 0 1 .022-3.336.447.447 0 0 0-.393-.479.53.53 0 0 0-.611.109 2.516 2.516 0 0 1-2.049.958h-1.026V2.797s-.021-.216.132-.239 2.049-.48 3.16.414a4.9 4.9 0 0 1 1.418 1.592s.217.546.784.174c0 0 .437-.065.219-.742a21.748 21.748 0 0 1-.654-2.617.718.718 0 0 0-.807-.654 57.214 57.214 0 0 1-9.746.262.438.438 0 0 0-.546.371.49.49 0 0 0 .175.633s1.286.589 1.286 2.855v3.795s.219 3.01-.85 3.01c0 0-.459.2-1.243-1.351s-.828-1.593-.828-1.593a3.431 3.431 0 0 0-3.36-2.115s3.773-.632 3.425-3.468c0 0-.065-2.158-2.9-2.246h-.306a77.477 77.477 0 0 1-9.464.153.4.4 0 0 0-.5.348.43.43 0 0 0 .131.59c.349.239 1.351.827 1.351 3.008v4.209s.2 2.312-1.395 3.184c0 0-.327.109-.153.567a.382.382 0 0 0 .48.349 40.04 40.04 0 0 1 6.564-.023s.305.023.392-.174a1.133 1.133 0 0 1 .109-.218s.306-.306-.153-.61-1.221-.763-1.286-2.7a9.157 9.157 0 0 1 0-1.983h.283s.981-.088 1.634 1.395c0 0 1.266 3.052 1.462 3.424a1.707 1.707 0 0 0 1.94 1.025 89.366 89.366 0 0 1 14.587.022.972.972 0 0 0 1.024-.61s1.178-3.164 1.461-3.665c0 0 2.486-.064 3.838-.042a4.107 4.107 0 0 1 .5 1.874 1.282 1.282 0 0 1-.894 1.266.439.439 0 0 0-.2.61.456.456 0 0 0 .5.391 67.352 67.352 0 0 1 10.227-.042s.392.153.523-.371a.42.42 0 0 0-.175-.611s-1.548-.347-1.548-2.812.022-4.208.022-4.208 1.178 1.678 2.573 4.185 2.137 3.577 2.137 3.577a1.488 1.488 0 0 0 2.071.632 40.736 40.736 0 0 0 3.708-2.137.4.4 0 0 0 .152-.567zm-43.324-6.41c.011.2-.067 1.983-2.4 1.983V4.084s.022-1.592 1.286-1.592 1.1 1.547 1.115 1.745m20.668 3.422s.806-1.9 1.155-2.44a10.727 10.727 0 0 1 1.332 2.463 9.28 9.28 0 0 1-2.487-.023"/>
            <path data-name="패스 2405" d="M106.479 12.272a2.611 2.611 0 0 1-1.243-2.376c-.089-1.853-.065-5.366-.065-5.366s-.092-1.96 1.155-2.573c0 0 .328-.152.153-.589a.456.456 0 0 0-.48-.37 46.663 46.663 0 0 1-6.454.02s-.436-.02-.523.349a.471.471 0 0 0 .152.632 3.221 3.221 0 0 1 1.329 2.965v3.777s.089 2.857-.98 2.661c0 0-.371.24-1.265-1.4a84.977 84.977 0 0 1-3.925-8.5S93.94.237 93.133.237a2.447 2.447 0 0 0-.981.306A18.68 18.68 0 0 1 88.401 2.2a.447.447 0 0 0-.305.567s-.066.327.414.5a2 2 0 0 1 1.025.611 19.74 19.74 0 0 1-1.417 3.27c-.916 1.657-1.723 4.077-3.881 5.169 0 0-.418.087-.284.588.152.567.436.414.436.414a13.839 13.839 0 0 1 3.838 0c.567.044.479-.414.479-.414a.365.365 0 0 0-.043-.457l-.24-.306s-.939-.24.392-2.921c0 0 2.486-.066 3.838-.045a4.118 4.118 0 0 1 .5 1.877 1.28 1.28 0 0 1-.894 1.265.44.44 0 0 0-.2.61.458.458 0 0 0 .5.393c.436-.044 7.676-.349 13.563.022a.524.524 0 0 0 .523-.349.55.55 0 0 0-.175-.72M89.471 7.65a19.472 19.472 0 0 1 1.156-2.442 7.78 7.78 0 0 1 1.329 2.463 11.8 11.8 0 0 1-2.485-.021"/>
            <path data-name="패스 2406" d="M123.485 11.728c-.522-.108-.916-.61-1.286-1.352s-.938-1.831-.938-1.831a3.444 3.444 0 0 0-3.25-1.919s3.425-.589 3.425-3.162-3.054-2.616-3.054-2.616h-.523a49.884 49.884 0 0 1-9.245.131.483.483 0 0 0-.633.435s-.043.394.2.546 1.222.741 1.286 2.791.11 1.46.066 4.252c0 0 .173 2.682-1.352 3.337 0 0-.392.087-.175.654 0 0 .131.436.5.284a52.047 52.047 0 0 1 6.672.021s.349.131.457-.327c0 0 .284-.306-.153-.632a2.819 2.819 0 0 1-1.308-2.268c-.086-1.374-.065-2.464-.065-2.464h.3s1.026-.132 1.723 1.482 1.177 2.791 1.177 2.791a3.719 3.719 0 0 0 1.2 1.7s.306.283 1.44.153a11.425 11.425 0 0 0 3.686-.96.411.411 0 0 0 .283-.566s.087-.371-.437-.481m-6.971-7.391c-.062.44-.176 1.941-2.4 1.941V4.141s.043-1.592 1.242-1.592 1.22 1.349 1.158 1.788"/>
            <path data-name="패스 2407" d="M27.956 7.215a3.189 3.189 0 0 0-6.093 1.32l.008 1.374a1.662 1.662 0 0 1-.87 1.461h-.006a2.838 2.838 0 0 1-2.227.217 5.165 5.165 0 0 1-.684-.267c-.1-.046-.2-.1-.29-.147-.056-.03-.114-.059-.169-.091a5.106 5.106 0 0 1-.355-.229c-.079-.055-.155-.116-.232-.175-.055-.044-.111-.086-.165-.132a3.424 3.424 0 0 1-.22-.2 4.432 4.432 0 0 1-.119-.118 5.367 5.367 0 0 1-1.568-3.8 5.464 5.464 0 0 1 .1-1.034l.009-.048a6.148 6.148 0 0 1 1.081-2.541 7.206 7.206 0 0 0-.758 7.649h-.012c0 .005 0 .011.006.016l-.059.044s-.283.218-.851-.435-3.9-4.689-3.9-4.689a15.949 15.949 0 0 1 4.184-3.181s.544-.174.413-.654l-.087-.284s-.022-.3-.5-.24a26.8 26.8 0 0 1-5.015.022.556.556 0 0 0-.48.284s-.218.37 0 .588 1 .764 1 1.5c0 0 .174.545-1.026 1.417a27.163 27.163 0 0 1-2.441 1.7l.026-2.044A3.105 3.105 0 0 1 7.832 1.97a.332.332 0 0 0 .2-.415l-.086-.218a.384.384 0 0 0-.436-.306 46.4 46.4 0 0 1-6.454.044.423.423 0 0 0-.392.2l-.088.174s-.153.392.088.567a2.871 2.871 0 0 1 1.281 2.569s.109 3.425-.044 4.754a3.852 3.852 0 0 1-1.33 3.031.482.482 0 0 0-.153.546l.153.284s.109.218.48.175a37.353 37.353 0 0 1 6.454-.044.276.276 0 0 0 .349-.152l.153-.306a.416.416 0 0 0-.153-.546 2.828 2.828 0 0 1-1.221-2.289c-.022-1.352-.022-2.2-.022-2.2s.589.241 3.729 4.885a2.437 2.437 0 0 0 3.467.764 20.12 20.12 0 0 0 2.442-1.549l.074-.045a.038.038 0 0 1 .006.008l.009-.006a7.223 7.223 0 0 0 10.284.8l.016-.012a5.035 5.035 0 0 0 1.324-5.436z"/>
            <path data-name="패스 2408" d="m16.173 2.784-.014.021.023-.031z"/>
            <path data-name="패스 2409" d="M21.866 0a7.2 7.2 0 0 0-3.394.846h6.787A7.2 7.2 0 0 0 21.866 0"/>
            <path data-name="패스 2410" d="M15.523 4.765a5.113 5.113 0 0 0-.055.736v.1h6.4l-.005-.834z"/>
            <path data-name="패스 2411" d="M21.876 5.953h-6.388a5 5 0 0 0 .146.833h6.125a3.141 3.141 0 0 0 .117-.833"/>
            <path data-name="패스 2412" d="M28.7 7.141a5.339 5.339 0 0 1 .072.835h.284a7.285 7.285 0 0 0 .038-.742v-.093z"/>
            <path data-name="패스 2413" d="M25.853 1.199h-7.976a7.1 7.1 0 0 0-.764.583l-.016.013a4.175 4.175 0 0 0-.241.239H26.89a7.34 7.34 0 0 0-1.037-.835"/>
            <path data-name="패스 2414" d="M21.637 7.141h-5.9c.01.028.02.062.031.09l.01.023a3.14 3.14 0 0 0 .453.722h4.906a3.234 3.234 0 0 0 .5-.835"/>
            <path data-name="패스 2415" d="M20.793 8.33H16.58a3.185 3.185 0 0 0 4.213 0"/>
            <path data-name="패스 2416" d="m27.564 11.688.012-.018-.022.029z"/>
            <path data-name="패스 2417" d="M27.576 11.67a7.17 7.17 0 0 0 .634-.965h-.057a6.158 6.158 0 0 1-.576.965"/>
            <path data-name="패스 2418" d="M28.308 10.352h.081a7.1 7.1 0 0 0 .337-.833h-.146a6.252 6.252 0 0 1-.272.833"/>
            <path data-name="패스 2419" d="m28.673 9.067-.008.047c0 .018-.008.036-.011.051h.178a7.163 7.163 0 0 0 .178-.835h-.248a5.414 5.414 0 0 1-.089.737"/>
            <path data-name="패스 2420" d="M15.852 3.575a4.946 4.946 0 0 0-.265.834h6.288a1.657 1.657 0 0 1 .317-.834z"/>
            <path data-name="패스 2421" d="M28.629 6.786h.452a7.572 7.572 0 0 0-.1-.833h-.624a5.407 5.407 0 0 1 .271.833"/>
            <path data-name="패스 2422" d="M22.544 3.221a1.707 1.707 0 0 1 .192-.124h.006a2.835 2.835 0 0 1 2.227-.217 5.34 5.34 0 0 1 .847.343h2.063a7.5 7.5 0 0 0-.649-.834H16.548a5.076 5.076 0 0 0-.536.834z"/>
            <path data-name="패스 2423" d="M28.194 5.599h.715a6.906 6.906 0 0 0-.246-.834h-.992a5.4 5.4 0 0 1 .523.834"/>
            <path data-name="패스 2424" d="M27.371 4.41h1.149a7.2 7.2 0 0 0-.421-.834h-1.682a5.385 5.385 0 0 1 .958.834"/>
            <path data-name="패스 2425" d="m16.165 2.788-.009.012.018-.024z"/>
            <path data-name="패스 2426" d="M3.975 38.666c0-2.184 2.17-2.884 3.887-2.884a6.682 6.682 0 0 1 4.729 2v-3.581a14.45 14.45 0 0 0-4.488-.7c-3.675 0-7.561 1.521-7.561 5.513 0 6.719 10.362 5.831 10.362 10.775 0 2.218-2.591 3.295-4.307 3.295a10.133 10.133 0 0 1-6.6-2.63l.874 3.961a14.889 14.889 0 0 0 5.392.951c4.7 0 8.073-3.169 8.073-6.56 0-5.862-10.363-5.8-10.363-10.14"/>
            <path data-name="패스 2427" d="M19.938 50.392V38.444c0-1.426-.18-3.771 1.355-4.341v-.1H15.51v.1c1.536.6 1.355 2.915 1.355 4.341v11.948c0 1.426.181 3.77-1.355 4.372v.1h5.783v-.1c-1.535-.6-1.355-2.915-1.355-4.372"/>
            <path data-name="패스 2428" d="M48.504 34.008h-5.272v.1c1.687.856.994 2.377.483 3.169l-3.735 5.894-4.821-8.271a2.508 2.508 0 0 0-2.259-.887h-7.841v.1c2.018.95.211 2.915-.784 4.4l-3.946 5.513 6.688 9.476a4.4 4.4 0 0 0 3.4 1.363h2.83v-.1a9.6 9.6 0 0 1-3.614-2.979l-6.084-8.4 6.845-9.237a7.824 7.824 0 0 1 2.623 3.12l5 8.462v4.689c0 1.49.21 3.55-1.266 4.342v.1h5.874v-.1c-1.536-1.172-1.536-2.123-1.536-4.025v-5.006z"/>
            <path data-name="패스 2429" d="M55.512 38.666c0-2.187 2.17-2.884 3.887-2.884a6.682 6.682 0 0 1 4.728 2v-3.581a14.447 14.447 0 0 0-4.489-.7c-3.674 0-7.559 1.521-7.559 5.513 0 6.719 10.36 5.831 10.36 10.775 0 2.218-2.589 3.295-4.307 3.295a10.132 10.132 0 0 1-6.6-2.63l.873 3.961a14.892 14.892 0 0 0 5.392.951c4.7 0 8.073-3.169 8.073-6.56 0-5.862-10.363-5.8-10.363-10.14"/>
            <path data-name="패스 2430" d="M80.682 34.101c1.537.6 1.327 2.915 1.327 4.372v3.928H71.133v-3.93c0-1.457-.181-3.77 1.327-4.372v-.1h-5.725v.1c1.539.6 1.328 2.915 1.328 4.341v11.978c0 1.427.179 3.74-1.328 4.342v.1h5.725v-.1c-1.508-.6-1.327-2.915-1.327-4.342v-5.735h10.876v5.735c0 1.427.21 3.74-1.327 4.342v.1h5.753v-.1c-1.537-.6-1.356-2.915-1.356-4.342V38.444c0-1.426-.181-3.739 1.356-4.341v-.1h-5.753z"/>
            <path data-name="패스 2431" d="M98.181 33.469a10.907 10.907 0 0 0-11.214 10.9 10.757 10.757 0 0 0 10.915 11 10.969 10.969 0 0 0 11.006-11.155 10.614 10.614 0 0 0-10.706-10.742m-.148 19.615c-4.7 0-7.657-4.563-7.657-9 0-4.785 2.96-8.334 7.6-8.334 4.726 0 7.508 4.469 7.508 9.1 0 4.722-2.9 8.239-7.447 8.239"/>
            <path data-name="패스 2432" d="M117.103 34.008h-7.321v.1c1.508.633 1.327 2.947 1.327 4.373v11.947c0 1.427.18 3.772-1.358 4.342v.1h5.994v-.1c-1.6-.95-1.567-2.218-1.567-3.993V36.48a11.6 11.6 0 0 1 2.109-.191c2.411 0 4.278 1.11 4.278 3.9 0 2.755-2.3 4.392-4.655 4.795h4.224a5.811 5.811 0 0 0 3.864-5.43c0-3.549-2.983-5.546-6.9-5.546"/>
            <path data-name="패스 2433" d="M.648 20.191a1.458 1.458 0 0 0-.632-1.37 73.686 73.686 0 0 1 3.574-.124c3.959 0 5.388 2.405 5.388 4.893 0 2.831-2.062 4.852-5.4 4.852H.016a1.458 1.458 0 0 0 .632-1.374zm1.4 7a5.443 5.443 0 0 0 1.251.124c2.557 0 4.1-1.361 4.1-3.78a3.582 3.582 0 0 0-3.807-3.711c-.495 0-1.319.082-1.539.11z"/>
            <path data-name="패스 2434" d="M19.561 18.821a1.458 1.458 0 0 0-.633 1.374v4.907a2.092 2.092 0 0 0 2.3 2.419c1.512 0 2.529-.8 2.529-2.24v-5.086a1.458 1.458 0 0 0-.632-1.374h2.666a1.458 1.458 0 0 0-.632 1.374v6.872a1.458 1.458 0 0 0 .632 1.374h-1.997v-.921A3.639 3.639 0 0 1 21 28.648c-3.175 0-3.477-2.213-3.477-3.368v-5.085a1.458 1.458 0 0 0-.632-1.374z"/>
            <path data-name="패스 2435" d="M37.304 27.067a1.458 1.458 0 0 0 .632 1.374H35.27a1.458 1.458 0 0 0 .632-1.374v-7.148l-1.635-.015a1.923 1.923 0 0 0-1.43.577l.55-1.718a4.576 4.576 0 0 0 .88.055h5.322a7.826 7.826 0 0 0 .838-.055l-.481 1.608a1.112 1.112 0 0 0-1.1-.467l-1.539.014z"/>
            <path data-name="패스 2436" d="M47.901 18.793a.976.976 0 0 1 .4.069l2.625 4.151 1.9-2.941a1.1 1.1 0 0 0 .193-.55.842.842 0 0 0-.467-.7h2.377l-3.546 5.319v2.928a1.458 1.458 0 0 0 .632 1.374h-2.667a1.458 1.458 0 0 0 .632-1.374V24.13l-2.831-4.371a2.4 2.4 0 0 0-1.031-.935z"/>
            <path data-name="패스 2437" d="M76.888 18.82a2.755 2.755 0 0 0 .495-.041v1.622a1.654 1.654 0 0 0-1.443-.495l-1.855.041v2.749h1.979a2.779 2.779 0 0 0 .495-.041v1.5a1.349 1.349 0 0 0-1.045-.358h-1.429v3.27a1.421 1.421 0 0 0 .7 1.374H72.05a1.48 1.48 0 0 0 .632-1.374v-6.872a1.48 1.48 0 0 0-.632-1.375z"/>
            <path data-name="패스 2438" d="M86.66 18.792c.4-.014.8-.027 1.2-.027 3.134 0 3.45 1.745 3.45 2.5a2.6 2.6 0 0 1-2.382 2.439c1.072 1.691 3.065 4.179 4.426 4.742-.962.069-1.333.082-1.484.082-1.581 0-3.725-3.477-4.591-5.1.99-.1 2.447-.66 2.447-2.034 0-.619-.234-1.608-1.924-1.608a3.382 3.382 0 0 0-.921.1v7.189a1.458 1.458 0 0 0 .632 1.374h-2.666a1.458 1.458 0 0 0 .632-1.374v-6.881a1.458 1.458 0 0 0-.632-1.374c.6 0 1.21-.014 1.814-.027"/>
            <path data-name="패스 2439" d="M104.775 18.821v1.58a1.655 1.655 0 0 0-1.443-.495l-1.856.041v2.749h1.979a2.778 2.778 0 0 0 .495-.041v1.5a1.327 1.327 0 0 0-1.045-.358h-1.43v3.45c.839.082 1.512.1 1.787.1a3.91 3.91 0 0 0 2.873-.839l-.7 1.938h-5.993a1.48 1.48 0 0 0 .632-1.374v-6.877a1.48 1.48 0 0 0-.632-1.374z"/>
            <path data-name="패스 2440" d="M118.726 18.821v1.58a1.655 1.655 0 0 0-1.443-.495l-1.856.041v2.749h1.979a2.779 2.779 0 0 0 .495-.041v1.5a1.327 1.327 0 0 0-1.045-.358h-1.43v3.45c.839.082 1.512.1 1.787.1a3.91 3.91 0 0 0 2.873-.839l-.7 1.938h-5.993a1.48 1.48 0 0 0 .632-1.374v-6.877a1.48 1.48 0 0 0-.632-1.374z"/>
        </g>
    </g>
</svg>
