<svg xmlns="http://www.w3.org/2000/svg" width="60" height="60" viewBox="0 0 60 60">
    <g data-name="Group 11028">
        <path data-name="Path 2480" d="M0 30a30 30 0 1 1 30 30A30 30 0 0 1 0 30z" style="fill:#2aa9e0;fill-rule:evenodd"/>
        <path d="M312.182 399.18a12.247 12.247 0 0 1-3.519.965 6.144 6.144 0 0 0 2.694-3.389 12.264 12.264 0 0 1-3.89 1.487 6.132 6.132 0 0 0-10.44 5.588 17.393 17.393 0 0 1-12.628-6.4 6.133 6.133 0 0 0 1.9 8.179 6.1 6.1 0 0 1-2.775-.766v.077a6.131 6.131 0 0 0 4.914 6.007 6.141 6.141 0 0 1-2.767.1 6.132 6.132 0 0 0 5.723 4.254 12.292 12.292 0 0 1-7.609 2.623 12.455 12.455 0 0 1-1.461-.086 17.34 17.34 0 0 0 9.391 2.753c11.269 0 17.431-9.335 17.431-17.431q0-.4-.018-.793a12.446 12.446 0 0 0 3.057-3.171z" style="fill:#fff" transform="translate(-267.252 -378.439)"/>
    </g>
</svg>
