<?xml version="1.0" encoding="UTF-8"?><svg id="Layer_1" xmlns="http://www.w3.org/2000/svg" viewBox="0 0 23.91 20.16"><defs><style>.cls-1{fill:#fff;}</style></defs><path class="cls-1" d="M17.34,5.39c0,1.43-.57,2.8-1.58,3.81-1.01,1.01-2.38,1.58-3.81,1.58s-2.8-.57-3.81-1.58c-1.01-1.01-1.58-2.38-1.58-3.81,0-.19,.07-.37,.21-.5,.13-.13,.31-.21,.5-.21s.37,.07,.5,.21c.13,.13,.21,.31,.21,.5,0,1.06,.42,2.07,1.17,2.82s1.76,1.17,2.82,1.17,2.07-.42,2.82-1.17,1.17-1.76,1.17-2.82c0-.19,.07-.37,.21-.5,.13-.13,.31-.21,.5-.21s.37,.07,.5,.21c.13,.13,.21,.31,.21,.5Z"/><path class="cls-1" d="M18.31,1.5c2.26,0,4.1,1.84,4.1,4.1V14.56c0,2.26-1.84,4.1-4.1,4.1H5.6c-2.26,0-4.1-1.84-4.1-4.1V5.6C1.5,3.34,3.34,1.5,5.6,1.5h12.71m0-1.5H5.6C2.51,0,0,2.51,0,5.6V14.56c0,3.09,2.51,5.6,5.6,5.6h12.71c3.09,0,5.6-2.51,5.6-5.6V5.6c0-3.09-2.51-5.6-5.6-5.6h0Z"/></svg>