<svg width="30" height="30" viewBox="0 0 30 30" fill="none" xmlns="http://www.w3.org/2000/svg">
<path d="M11.875 5C13.4294 4.99997 14.9513 5.44584 16.2599 6.28471C17.5686 7.12358 18.6091 8.32024 19.2581 9.73272C19.9071 11.1452 20.1373 12.7142 19.9214 14.2536C19.7055 15.7929 19.0525 17.2381 18.04 18.4175L25.095 25.4725L24.2113 26.3562L17.155 19.3C16.1598 20.151 14.9737 20.7489 13.6977 21.0428C12.4217 21.3366 11.0936 21.3177 9.82642 20.9877C8.55927 20.6576 7.39067 20.0262 6.42014 19.1472C5.4496 18.2682 4.70589 17.1677 4.25234 15.9393C3.79879 14.7109 3.64884 13.3911 3.81527 12.0923C3.98169 10.7935 4.45955 9.5542 5.20816 8.47988C5.95676 7.40556 6.95393 6.52808 8.11473 5.92217C9.27553 5.31627 10.5656 4.9999 11.875 5V5ZM11.875 6.25C10.0516 6.25 8.30295 6.97433 7.01364 8.26364C5.72433 9.55295 5 11.3016 5 13.125C5 14.9484 5.72433 16.697 7.01364 17.9864C8.30295 19.2757 10.0516 20 11.875 20C13.6984 20 15.447 19.2757 16.7364 17.9864C18.0257 16.697 18.75 14.9484 18.75 13.125C18.75 11.3016 18.0257 9.55295 16.7364 8.26364C15.447 6.97433 13.6984 6.25 11.875 6.25Z" fill="white"/>
</svg>
