<svg xmlns="http://www.w3.org/2000/svg" width="40" height="40" viewBox="0 0 40 40">
    <path data-name="사각형 6453" style="fill:none" d="M0 0h40v40H0z"/>
    <path data-name="패스 91576" d="M40.125 49h-19.3a1.25 1.25 0 0 1-1.23-1.026l-4.17-22.948A1.25 1.25 0 0 0 14.2 24H12" transform="translate(-10.125 -20.25)" style="stroke:#000;stroke-linecap:round;stroke-linejoin:round;stroke-width:3px;fill:none"/>
    <circle data-name="타원 219" cx="3.125" cy="3.125" r="3.125" transform="translate(8.125 28.75)" style="stroke:#000;stroke-linecap:round;stroke-linejoin:round;stroke-width:3px;fill:none"/>
    <circle data-name="타원 220" cx="3.125" cy="3.125" r="3.125" transform="translate(26.875 28.75)" style="stroke:#000;stroke-linecap:round;stroke-linejoin:round;stroke-width:3px;fill:none"/>
    <path data-name="패스 91577" d="M40 64h27.252a1.25 1.25 0 0 1 1.23 1.474l-2.045 11.25a1.25 1.25 0 0 1-1.23 1.026H42.5" transform="translate(-33.75 -54)" style="stroke:#000;stroke-linecap:round;stroke-linejoin:round;stroke-width:3px;fill:none"/>
</svg>
