<svg width="30" height="30" viewBox="0 0 30 30" fill="none" xmlns="http://www.w3.org/2000/svg">
<path d="M19.4414 26.25C19.4414 26.4365 19.3673 26.6153 19.2355 26.7472C19.1036 26.879 18.9248 26.9531 18.7383 26.9531H11.2383C11.0518 26.9531 10.873 26.879 10.7411 26.7472C10.6092 26.6153 10.5352 26.4365 10.5352 26.25C10.5352 26.0635 10.6092 25.8847 10.7411 25.7528C10.873 25.621 11.0518 25.5469 11.2383 25.5469H18.7383C18.9248 25.5469 19.1036 25.621 19.2355 25.7528C19.3673 25.8847 19.4414 26.0635 19.4414 26.25V26.25ZM25.6758 22.3828C25.5348 22.6342 25.3288 22.8431 25.0793 22.9874C24.8298 23.1318 24.546 23.2063 24.2578 23.2031H5.74219C5.45397 23.2063 5.17021 23.1318 4.92071 22.9874C4.67121 22.8431 4.46517 22.6342 4.32422 22.3828C4.17804 22.132 4.10102 21.8469 4.10102 21.5566C4.10102 21.2664 4.17804 20.9813 4.32422 20.7305C5.03907 19.5117 5.88282 17.2031 5.88282 13.125V12.1875C5.87973 10.9882 6.11328 9.80016 6.57008 8.69131C7.02688 7.58245 7.69796 6.57461 8.54488 5.72552C9.39179 4.87643 10.3979 4.20276 11.5056 3.74311C12.6133 3.28347 13.8007 3.04687 15 3.04688H15.0703C20.0625 3.08203 24.1172 7.23047 24.1172 12.293V13.125C24.1172 17.2031 24.9609 19.5117 25.6758 20.7305C25.822 20.9813 25.899 21.2664 25.899 21.5566C25.899 21.8469 25.822 22.132 25.6758 22.3828V22.3828ZM24.457 21.4453C23.6602 20.0625 22.7109 17.5078 22.7109 13.125V12.293C22.7109 8.00391 19.2773 4.47656 15.0586 4.45312H15C13.9858 4.45466 12.9819 4.65594 12.0456 5.04546C11.1092 5.43498 10.2587 6.00512 9.54269 6.72332C8.82666 7.44153 8.25911 8.29373 7.87243 9.23127C7.48575 10.1688 7.28753 11.1733 7.28907 12.1875V13.125C7.28907 17.5078 6.33985 20.0625 5.54297 21.4453C5.5224 21.4809 5.51157 21.5214 5.51157 21.5625C5.51157 21.6036 5.5224 21.6441 5.54297 21.6797C5.56117 21.7165 5.58972 21.7472 5.6251 21.768C5.66049 21.7888 5.70118 21.7988 5.74219 21.7969H24.2578C24.2988 21.7988 24.3395 21.7888 24.3749 21.768C24.4103 21.7472 24.4388 21.7165 24.457 21.6797C24.4776 21.6441 24.4884 21.6036 24.4884 21.5625C24.4884 21.5214 24.4776 21.4809 24.457 21.4453Z" fill="white"/>
</svg>
