<svg width="30" height="30" viewBox="0 0 30 30" fill="none" xmlns="http://www.w3.org/2000/svg">
<path d="M27.1758 24.8437C25.4265 21.8303 22.6264 19.5686 19.3125 18.4922C20.901 17.5476 22.1353 16.1076 22.8261 14.3935C23.5168 12.6793 23.6256 10.7858 23.1358 9.00381C22.646 7.22182 21.5846 5.64993 20.1148 4.52961C18.645 3.4093 16.8481 2.80253 15 2.80253C13.1519 2.80253 11.3549 3.4093 9.88515 4.52961C8.41536 5.64993 7.35403 7.22182 6.86423 9.00381C6.37443 10.7858 6.48324 12.6793 7.17394 14.3935C7.86465 16.1076 9.09905 17.5476 10.6875 18.4922C7.37355 19.5686 4.57352 21.8303 2.82422 24.8437C2.75085 24.9502 2.70028 25.0707 2.67571 25.1976C2.65113 25.3245 2.65307 25.4551 2.6814 25.5813C2.70974 25.7074 2.76385 25.8263 2.84035 25.9306C2.91685 26.0348 3.01408 26.122 3.12592 26.1869C3.23777 26.2517 3.36182 26.2927 3.49027 26.3073C3.61873 26.3219 3.74881 26.3098 3.87235 26.2717C3.9959 26.2336 4.11022 26.1704 4.20815 26.086C4.30608 26.0016 4.3855 25.8978 4.44141 25.7812C5.51295 23.9297 7.05256 22.3924 8.90579 21.3237C10.759 20.255 12.8607 19.6924 15 19.6924C17.1393 19.6924 19.241 20.255 21.0942 21.3237C22.9474 22.3924 24.4871 23.9297 25.5586 25.7812C25.6145 25.8978 25.6939 26.0016 25.7918 26.086C25.8898 26.1704 26.0041 26.2336 26.1276 26.2717C26.2512 26.3098 26.3813 26.3219 26.5097 26.3073C26.6382 26.2927 26.7622 26.2517 26.8741 26.1869C26.9859 26.122 27.0831 26.0348 27.1596 25.9306C27.2361 25.8263 27.2903 25.7074 27.3186 25.5813C27.3469 25.4551 27.3489 25.3245 27.3243 25.1976C27.2997 25.0707 27.2492 24.9502 27.1758 24.8437V24.8437ZM8.4375 11.25C8.4375 9.95206 8.82238 8.68327 9.54348 7.60407C10.2646 6.52487 11.2895 5.68374 12.4886 5.18704C13.6878 4.69034 15.0073 4.56038 16.2803 4.8136C17.5533 5.06681 18.7226 5.69183 19.6404 6.60961C20.5582 7.52739 21.1832 8.69672 21.4364 9.96972C21.6896 11.2427 21.5597 12.5622 21.063 13.7614C20.5663 14.9605 19.7251 15.9854 18.6459 16.7065C17.5667 17.4276 16.2979 17.8125 15 17.8125C13.2595 17.8125 11.5903 17.1211 10.3596 15.8904C9.1289 14.6597 8.4375 12.9905 8.4375 11.25Z" fill="white"/>
</svg>
